<?xml version="1.0" encoding="UTF-8"?>
<svg xmlns="http://www.w3.org/2000/svg" xmlns:xlink="http://www.w3.org/1999/xlink" viewBox="0 0 20 20" width="20px" height="20px">
<g id="surface47164965">
<path style=" stroke:none;fill-rule:nonzero;fill:rgb(97.254902%,70.588237%,10.588235%);fill-opacity:1;" d="M 17.144531 2.507812 C 16.867188 2.480469 16.566406 2.523438 16.261719 2.644531 C 15.886719 2.789062 10.011719 5.261719 4.535156 7.566406 L 2.726562 8.328125 C 2.023438 8.613281 1.671875 9.078125 1.671875 9.699219 C 1.671875 10.132812 1.855469 10.726562 2.734375 11.074219 L 5.789062 12.296875 C 6.054688 13.089844 6.667969 14.929688 6.820312 15.417969 C 6.914062 15.710938 7.144531 16.441406 7.730469 16.609375 C 7.847656 16.652344 7.976562 16.671875 8.101562 16.671875 C 8.472656 16.671875 8.738281 16.5 8.867188 16.402344 L 10.808594 14.757812 L 13.167969 16.941406 C 13.257812 17.03125 13.738281 17.5 14.386719 17.5 C 15.191406 17.5 15.800781 16.828125 15.929688 16.179688 C 16 15.824219 18.273438 4.40625 18.273438 4.40625 C 18.476562 3.492188 18.109375 3.015625 17.875 2.8125 C 17.671875 2.640625 17.421875 2.539062 17.144531 2.507812 Z M 16.589844 4.308594 C 16.277344 5.886719 14.566406 14.480469 14.304688 15.722656 L 10.859375 12.53125 L 8.519531 14.511719 L 9.167969 11.980469 C 9.167969 11.980469 13.636719 7.457031 13.90625 7.191406 C 14.121094 6.980469 14.167969 6.90625 14.167969 6.835938 C 14.167969 6.738281 14.117188 6.667969 14 6.667969 C 13.894531 6.667969 13.753906 6.765625 13.679688 6.8125 C 12.726562 7.40625 8.671875 9.71875 6.671875 10.855469 L 3.777344 9.699219 L 5.183594 9.105469 C 8.765625 7.597656 15.144531 4.910156 16.589844 4.308594 Z M 16.589844 4.308594 "/>
</g>
</svg>
