<svg xmlns="http://www.w3.org/2000/svg">
<defs>
<font id="HangingLetters" horiz-adv-x="1014" >
  <font-face 
    font-family="Hanging Letters"
    font-weight="400"
    font-stretch="normal"
    units-per-em="2048"
    panose-1="2 0 5 0 0 0 0 0 0 0"
    ascent="1638"
    descent="-410"
    x-height="2207"
    cap-height="2213"
    bbox="-342 -419.998 2048 2250"
    underline-thickness="150"
    underline-position="-142"
    unicode-range="U+0020-U+F002"
  />
<missing-glyph horiz-adv-x="1024" 
d="M100 0v1434h824v-1434h-824zM150 50h724v1334h-724v-1334zM325 1148c20.667 18.667 40.002 32.998 58.002 42.998c35.333 20 72.666 30 111.999 30c61.333 0 110.666 -15.833 147.999 -47.5s56 -74.167 56 -127.5c0 -32.667 -7.66699 -65.5 -23 -98.5
s-44.333 -76.167 -87 -129.5c-42 -53.333 -75 -97.333 -99 -132s-36 -67.667 -36 -99c0 -25.333 8 -69.666 24 -132.999h-32c-23.333 64.667 -35 114 -35 148c0 50.667 27.167 123.334 81.5 218.001s81.5 167 81.5 217c0 38 -11 68 -33 90s-52.333 33 -91 33
c-25.333 0 -48.333 -5.66699 -69 -17c-17.333 -10 -36 -23.333 -56 -40v45zM389.002 333.998l57 57.999c7.33301 6.66699 14 10 20 10c6.66699 0 14 -3.66699 22 -11l56 -60c6 -7.33301 9 -14 9 -20c0 -7.33301 -3.33301 -14.666 -10 -21.999l-56 -62
c-9.33301 -9.33301 -16.333 -14 -21 -14c-7.33301 0 -14 3.33301 -20 10l-61 71c-4.66699 6 -7 12 -7 18c0 6.66699 3.66699 14 11 22zM516.002 2222l12.001 -0.000976562c4 0 9.33301 -5.33301 16 -16v-656c10.667 -11.333 16 -22 16 -32v-12
c0 -9.33301 -5.33301 -20 -16 -32v-108c0 -4 -5.33301 -9.33301 -16 -16h-12c-4 0 -9.33301 5.33301 -16 16v100c-20.667 0 -32.667 16 -36 48c5.33301 26.667 14.666 40 27.999 40c0 55.333 -21.333 106 -64 152c-11.333 -10.667 -22 -16 -32 -16h-12
c-20 0 -34.667 14.667 -44 44c5.33301 34.667 21.333 52 48 52h4c22 0 40.667 -18.667 56 -56c23.333 -15.333 39.333 -36.666 48 -63.999h4v540c0 4 5.33301 9.33301 16 16z" />
    <glyph glyph-name=".notdef" horiz-adv-x="1024" 
d="M100 0v1434h824v-1434h-824zM150 50h724v1334h-724v-1334zM325 1148c20.667 18.667 40.002 32.998 58.002 42.998c35.333 20 72.666 30 111.999 30c61.333 0 110.666 -15.833 147.999 -47.5s56 -74.167 56 -127.5c0 -32.667 -7.66699 -65.5 -23 -98.5
s-44.333 -76.167 -87 -129.5c-42 -53.333 -75 -97.333 -99 -132s-36 -67.667 -36 -99c0 -25.333 8 -69.666 24 -132.999h-32c-23.333 64.667 -35 114 -35 148c0 50.667 27.167 123.334 81.5 218.001s81.5 167 81.5 217c0 38 -11 68 -33 90s-52.333 33 -91 33
c-25.333 0 -48.333 -5.66699 -69 -17c-17.333 -10 -36 -23.333 -56 -40v45zM389.002 333.998l57 57.999c7.33301 6.66699 14 10 20 10c6.66699 0 14 -3.66699 22 -11l56 -60c6 -7.33301 9 -14 9 -20c0 -7.33301 -3.33301 -14.666 -10 -21.999l-56 -62
c-9.33301 -9.33301 -16.333 -14 -21 -14c-7.33301 0 -14 3.33301 -20 10l-61 71c-4.66699 6 -7 12 -7 18c0 6.66699 3.66699 14 11 22zM516.002 2222l12.001 -0.000976562c4 0 9.33301 -5.33301 16 -16v-656c10.667 -11.333 16 -22 16 -32v-12
c0 -9.33301 -5.33301 -20 -16 -32v-108c0 -4 -5.33301 -9.33301 -16 -16h-12c-4 0 -9.33301 5.33301 -16 16v100c-20.667 0 -32.667 16 -36 48c5.33301 26.667 14.666 40 27.999 40c0 55.333 -21.333 106 -64 152c-11.333 -10.667 -22 -16 -32 -16h-12
c-20 0 -34.667 14.667 -44 44c5.33301 34.667 21.333 52 48 52h4c22 0 40.667 -18.667 56 -56c23.333 -15.333 39.333 -36.666 48 -63.999h4v540c0 4 5.33301 9.33301 16 16z" />
    <glyph glyph-name="space" unicode=" " horiz-adv-x="508" 
 />
    <glyph glyph-name="space" unicode="&#xa0;" horiz-adv-x="508" 
 />
    <glyph glyph-name="exclam" unicode="!" horiz-adv-x="672" 
d="M297 2215l8.00098 0.000976562c3.33301 0 7 -3.66699 11 -11v-949c7.33301 -7.33301 11 -14.333 11 -21v-8c0 -6.66699 -3.66699 -14 -11 -22v-5h3c76 0 114 -6.33301 114 -19c5.33301 -8.66699 8 -25 8 -49v-228c0 -47.333 -16.333 -189 -49 -425
c-10.667 -101.333 -18.667 -152 -24 -152c0 -10 -13.667 -17 -41 -21h-8v-111h76c36 0 54 -20 54 -60v-152c0 -41.333 -17 -62 -51 -62h-168c-40 0 -60 18 -60 54v174c3.33301 30.667 18.666 46 45.999 46h52c8.66699 6 13 9.33301 13 10c0 24 -8 36 -24 36
c-24 0 -36 9.66699 -36 29v6c0 14.667 10 24.667 30 30h6c19.333 -3.33301 29 -13.333 29 -30v-6l-2 -13l5 -3v52c-34 0 -51 24.333 -51 73c-9.33301 60 -30.333 221.667 -63 485c2 101.333 3 187 3 257v35c0 29.333 24.333 44 73 44h27c-10.667 10 -16 20.667 -16 32
c4 18 10.333 27 19 27c0 37.333 -14.333 71.666 -43 102.999c-8 -7.33301 -15.333 -11 -22 -11h-8c-13.333 0 -23.333 10 -30 30c4 23.333 15 35 33 35h2c15.333 0 28 -12.667 38 -38c16 -10 27 -24.333 33 -43h2v870c0 2.66699 3.66699 6.33398 11 11zM257.001 1104
c0 -26 16.001 -41.332 48.001 -45.999c27.333 5.33301 41 21.333 41 48c-6.66699 25.333 -16.667 38 -30 38v-13c0 -2.66699 -3.66699 -6.33398 -11 -11.001h-8c-2.66699 0 -6.33398 3.66699 -11.001 11v13h-2c-18 -10 -27 -23.333 -27 -40zM270.002 416.002
c0 -16 6.33203 -28.667 18.999 -38c0 16 3.66699 24 11 24h8c2.66699 0 6.33398 -3.66699 11.001 -11v-19h3c16 8.66699 24 24 24 46c-6 25.333 -16.667 38 -32 38h-11c-16.667 0 -27.667 -13.333 -33 -40zM319.001 134.002l0.000976562 -26.999
c0 -2.66699 -2.66699 -5.33398 -8 -8.00098h-11c-7.33301 0 -11 10 -11 30c-6.66699 0 -13 -9.33301 -19 -28c5.33301 -21.333 21.666 -32 48.999 -32c28.667 3.33301 43 16 43 38c-8 18 -19.667 27 -35 27h-8z" />
    <glyph glyph-name="quotedbl" unicode="&#x22;" horiz-adv-x="672" 
d="M127 2215h8c2.66699 0 6.33398 -3.66699 11.001 -11v-499c7.33301 -7.33301 11 -14.333 11 -21v-8c0 -6.66699 -3.66699 -14 -11 -22v-5h3c75.333 0 113 -6.33301 113 -19c5.33301 -8.66699 8 -25 8 -49v-98c0 -47.333 -10.833 -103.666 -32.5 -168.999
s-35.167 -98 -40.5 -98c0 -10 -13.333 -17 -40 -21h-8h-30c-34.667 0 -72.667 82.667 -114 248l3 127v35c0 29.333 24.333 44 73 44h27c-10.667 10 -16 20.667 -16 32c3.33301 18 9.66602 27 18.999 27c0 37.333 -14.667 71.666 -44 102.999
c-7.33301 -7.33301 -14.333 -11 -21 -11h-8c-14 0 -24 10 -30 30c3.33301 23.333 14 35 32 35h3c15.333 0 28 -12.667 38 -38c15.333 -10 26 -24.333 32 -43h3v420c0 2.66699 3.66699 6.33398 11 11zM86 1554c0 -26 16.334 -41.332 49.001 -45.999
c27.333 5.33301 41 21.333 41 48c-7.33301 25.333 -17.333 38 -30 38v-13c0 -2.66699 -3.66699 -6.33398 -11 -11.001h-8c-2.66699 0 -6.33398 3.66699 -11.001 11v13h-3c-18 -10 -27 -23.333 -27 -40zM477.001 2215l8 -0.000976562c2.66699 0 6.33398 -3.66699 11.001 -11
v-499c7.33301 -7.33301 11 -14.333 11 -21v-8c0 -6.66699 -3.66699 -14 -11 -22v-5h3c75.333 0 113 -6.33301 113 -19c5.33301 -8.66699 8 -25 8 -49v-98c0 -47.333 -10.833 -103.666 -32.5 -168.999s-35.167 -98 -40.5 -98c0 -10 -13.333 -17 -40 -21h-8h-30
c-34.667 0 -72.667 82.667 -114 248l3 127v35c0 29.333 24.333 44 73 44h27c-10.667 10 -16 20.667 -16 32c3.33301 18 9.66602 27 18.999 27c0 37.333 -14.667 71.666 -44 102.999c-7.33301 -7.33301 -14.333 -11 -21 -11h-8c-14 0 -24 10 -30 30
c3.33301 23.333 14 35 32 35h3c15.333 0 28 -12.667 38 -38c15.333 -10 26 -24.333 32 -43h3v420c0 2.66699 3.66699 6.33398 11 11.001zM436.001 1554c0 -26 16.334 -41.332 49.001 -45.999c27.333 5.33301 41 21.333 41 48c-7.33301 25.333 -17.333 38 -30 38v-13
c0 -2.66699 -3.66699 -6.33398 -11 -11.001h-8c-2.66699 0 -6.33398 3.66699 -11.001 11v13h-3c-18 -10 -27 -23.333 -27 -40z" />
    <glyph glyph-name="numbersign" unicode="#" horiz-adv-x="1336" 
d="M702 2212l8.99707 -0.00195312c2.66699 0 6.66699 -4 12 -12v-936c8 -8.66699 12 -17 12 -25v-9c0 -5.33301 -2 -11.333 -6 -18c26.667 0 42.667 -11 48 -33c32 -152 51.333 -248.667 58 -290c9.33301 -21.333 19.333 -33.666 30 -36.999c20 0 50.333 6 91 18
c22.667 0 38.667 -14 48 -42c16 -42 24 -67 24 -75v-19c0 -20 -34.333 -39 -103 -57c-24 -13.333 -36 -32.666 -36 -57.999c18.667 -126.667 36.667 -190 54 -190h25c40 12 64 18 72 18c30 0 53.333 -40.333 70 -121v-15c0 -19.333 -34.333 -39.333 -103 -60
c-24 -15.333 -36 -30.666 -36 -45.999v-6c38 -214 57 -322.667 57 -326c0 -33.333 -48.333 -58.666 -145 -75.999c-28.667 0 -45.667 37.333 -51 112c-27.333 138 -45.666 216.667 -54.999 236c-9.33301 8 -21.333 12 -36 12c-90.667 -18 -136 -44.333 -136 -79l48 -272
c4 -22.667 6 -43.667 6 -63c0 -28.667 -48.333 -53 -145 -73c-24.667 0 -42.667 50.333 -54 151l-43 191c-8.66699 14 -19.667 21 -33 21c-6.66699 0 -40 -8 -100 -24c-32 0 -56 44.333 -72 133c0 20.667 44.333 44.667 133 72c16 11.333 24 28.666 24 51.999
c-16 126.667 -34.333 190 -55 190h-21l-75 -21h-18c-29.333 0 -52.666 43.333 -69.999 130c0 23.333 37.333 44.666 112 63.999c30 15.333 45 31.333 45 48v12c0 6 -19 111 -57 315c0 40 48.333 68 145 84c31.333 0 51.333 -52.333 60 -157c22.667 -102 34 -158.333 34 -169
c10.667 -22.667 22.667 -34 36 -34h3c32.667 0 78 15.333 136 46c6 10 9 20 9 30v6c-8 59.333 -27 166.333 -57 321c0 32.667 29 54.667 87 66c-14 12.667 -21 25.667 -21 39c4 20.667 11 31 21 31c0 41.333 -16 79.666 -48 114.999c-8.66699 -8.66699 -16.667 -13 -24 -13
h-9c-15.333 0 -26.666 11.333 -33.999 34c4.66699 26 17 39 37 39h3c16.667 0 30.667 -14 42 -42c17.333 -11.333 29.333 -27.666 36 -48.999h3v849c0 3.33301 4.33301 7.33301 13 12zM655.997 1094c0 -28.667 18.332 -45.668 54.999 -51.001c30 6 45 24 45 54
c-8 28.667 -19 43 -33 43v-16c0 -2.66699 -4 -6.66699 -12 -12h-9c-3.33301 0 -7.66602 4 -12.999 12v16h-3c-20 -11.333 -30 -26.666 -30 -45.999zM522.996 504.997c14 -133.333 33.332 -199.999 57.999 -199.999c4 0 8 -1 12 -3c44 10 79 21 105 33
c24.667 9.33301 37 25.666 37 48.999v6c-17.333 124.667 -33.666 187 -48.999 187l-15 3h-18c-86.667 -20 -130 -45 -130 -75z" />
    <glyph glyph-name="dollar" unicode="$" 
d="M460 2210l6.99902 -0.000976562c2.66699 0 6 -3.33301 10 -10v-933c6 -6.66699 9 -13 9 -19v-7c0 -6 -3 -12.667 -9 -20v-2c79.333 -7.33301 153 -33.666 221 -78.999c52.667 -52 86.334 -102.667 101.001 -152c4.66699 -12.667 7 -21.667 7 -27v-9
c0 -22.667 -24.667 -34 -74 -34l-101 -14c-25.333 0 -44 16.667 -56 50c-28 50 -64 75 -108 75c-12.667 -6.66699 -19 -15.667 -19 -27v-2c15.333 -156 26.333 -234 33 -234c0 -8.66699 38.667 -18 116 -28c85.333 -16 156 -46.667 212 -92
c46.667 -36 79.334 -94.667 98.001 -176c5.33301 -22.667 8.66602 -48.334 9.99902 -77.001c0 -87.333 -37.667 -167.333 -113 -240c-57.333 -52 -129.666 -88.333 -216.999 -109c-14 -10 -21 -23.667 -21 -41c2.66699 -36.667 4 -59.667 4 -69c0 -18.667 -15 -30 -45 -34
c-30.667 0 -46 13 -46 39c-5.33301 57.333 -17.333 86 -36 86c-80.667 6.66699 -141 18 -181 34c-80.667 33.333 -141.667 90.333 -183 171c-26.667 56.667 -40 96 -40 118s31 34.667 93 38l80 10c27.333 0 49 -27.333 65 -82c42 -62.667 88.333 -94 139 -94
c14.667 0 22.667 9 24 27c-18 192 -32.333 288 -43 288c0 7.33301 -41.667 17 -125 29c-109.333 28.667 -181.666 69 -216.999 121c-36.667 52.667 -55 116 -55 190v5c0 118.667 65.667 214 197 286c28.667 12.667 65.667 26.334 111 41.001c10 10.667 15 24.334 15 41.001
c-2 26.667 -3 46.667 -3 60c0 10 11.333 18.667 34 26h7c34 0 51 -15 51 -45c0 -22.667 6.33301 -42 19 -58l-3 12v2c3.33301 16 9 24 17 24c0 33.333 -12.667 64 -38 92c-6.66699 -6.66699 -13.334 -10 -20.001 -10h-7c-12 0 -20.667 9 -26 27c3.33301 20.667 13 31 29 31
h2c13.333 0 24.666 -11.333 33.999 -34c14 -8.66699 23.667 -21.334 29 -38.001h2v863c0 2.66699 3.33301 6 10 10zM423.999 1132c0 -22.667 14.333 -36.333 43 -41c24 5.33301 36 20 36 44c-6 22 -14.667 33 -26 33v-12c0 -2 -3.33301 -5 -10 -9h-7c-2.66699 0 -6 3 -10 9
v12h-2c-16 -8.66699 -24 -20.667 -24 -36zM220.999 880c4.66699 -30.667 18.332 -56.333 40.999 -77c35.333 -19.333 62 -29 80 -29h7c16 2.66699 24 10.667 24 24c-9.33301 141.333 -19.666 212 -30.999 212c-12 2.66699 -18.333 4 -19 4c-34 0 -65.333 -25.667 -94 -77
c-3.33301 -16 -6 -35 -8 -57zM507.997 485.001c16.667 -162 28.668 -243 36.001 -243c8 -4.66699 14.333 -7 19 -7h10c78.667 29.333 118 78 118 146v10c0 29.333 -14.667 59 -44 89c-40.667 24 -74.334 36 -101.001 36h-19c-12.667 -6 -19 -16.333 -19 -31z" />
    <glyph glyph-name="percent" unicode="%" horiz-adv-x="1610" 
d="M720 2219l10.002 0.00292969c3.33301 0 7.66602 -4.33301 12.999 -13v-1130c8.66699 -9.33301 13 -18 13 -26v-10c0 -8 -4.33301 -16.667 -13 -26v-26c172.667 0 336.667 -71.667 492 -215c132.667 -146 199 -303.667 199 -473v-26
c0 -244.667 -117.333 -444.334 -352 -599.001c-121.333 -63.333 -233.333 -95 -336 -95h-52c-211.333 0 -397 95.667 -557 287c-91.333 128 -137 266 -137 414v6c0 231.333 102 422.666 306 573.999c127.333 84.667 261 127 401 127v19c-16.667 0 -26.334 13.333 -29.001 40
c4 21.333 11.667 32 23 32c0 44.667 -17.333 86 -52 124c-9.33301 -8.66699 -18.333 -13 -27 -13h-9c-16.667 0 -28.667 12 -36 36c4 28 17 42 39 42h3c18 0 33.333 -15 46 -45c18.667 -12.667 31.667 -30.334 39 -53.001h3v1036c0 3.33301 4.33301 7.66602 13 13z
M743.002 946.003c0 -22 -4.33301 -32.999 -13 -32.999h-10c-8 0 -12.333 8.66699 -13 26c-6 0 -12.333 -12 -19 -36c4.66699 -32.667 18.667 -49 42 -49c22.667 0 36.667 15.333 42 46c0 21.333 -9.66699 36.666 -29 45.999z" />
    <glyph glyph-name="ampersand" unicode="&#x26;" horiz-adv-x="1443" 
d="M750 2217l8.00195 0.00195312c2.66699 0 6 -3.33301 10 -10v-906c7.33301 -6.66699 11 -13.334 11 -20.001v-8c0 -4.66699 -1.66699 -10 -5 -16h2c24.667 5.33301 45.334 8 62.001 8c112 0 208.667 -41.333 290 -124c46 -48.667 69 -110.667 69 -186
c0 -105.333 -51.667 -190.666 -155 -255.999c-44.667 -21.333 -88.334 -38.666 -131.001 -51.999c-8.66699 -9.33301 -13 -18.666 -13 -27.999c0 -14.667 20.667 -71.667 62 -171c7.33301 -6.66699 14 -10 20 -10c18 0 40.667 23.333 68 70c12.667 12 25.334 18 38.001 18
c105.333 -25.333 158 -49.333 158 -72v-3c-8 -41.333 -53.667 -104.333 -137 -189c-26 -18.667 -39 -34 -39 -46v-18c0 -6 32 -84.667 96 -236c10 -25.333 15 -44 15 -56c-6 -10.667 -14.333 -16 -25 -16c-155.333 45.333 -233 74.666 -233 87.999
c-8.66699 6 -22.334 36 -41.001 90c-9.33301 17.333 -22.333 26 -39 26c-80.667 -27.333 -153 -41 -217 -41c-54.667 5.33301 -104 15.666 -148 30.999c-118.667 48 -198 115.333 -238 202c-18.667 49.333 -28 88.666 -28 117.999v42c0 76 32.667 152.667 98 230
c56.667 53.333 144.667 93.666 264 120.999l10 16v18c-20.667 72.667 -31 123.334 -31 152.001c0 115.333 54.333 200.666 163 255.999c12 4 19 6 21 6c-12 10.667 -18 21.667 -18 33c3.33301 17.333 9.33301 26 18 26c0 35.333 -14 68 -42 98
c-7.33301 -6.66699 -14 -10 -20 -10h-8c-12.667 0 -22 9.33301 -28 28c3.33301 22.667 13.666 34 30.999 34h2c14.667 0 26.667 -12 36 -36c15.333 -10 25.666 -24 30.999 -42h3v831c0 2.66699 3.33301 6 10 10zM711.002 1157c0 -25.333 15.668 -39.999 47.001 -43.999
c26 5.33301 39 20.666 39 45.999c-6.66699 24 -16.334 36 -29.001 36v-12c0 -3.33301 -3.33301 -7 -10 -11h-8c-2.66699 0 -6 3.66699 -10 11v12h-3c-17.333 -9.33301 -26 -22 -26 -38zM771.003 958.003c16.667 -81.333 31.333 -122.001 44 -122.001
c0 -5.33301 7.66699 -8 23 -8c40 4 78.667 24 116 60c22.667 31.333 34 57 34 77v26c0 48.667 -28.333 82.334 -85 101.001l-23 3c-50 0 -83.667 -27 -101 -81c-3.33301 -7.33301 -6 -26 -8 -56zM443.002 433.002v-18.001c0 -37.333 17 -73.666 51 -108.999
c37.333 -34.667 76.333 -52 117 -52h23c52 0 98.667 14.667 140 44c3.33301 6 5 11.333 5 16v5c0 17.333 -33.667 107 -101 269c-16.667 10 -28 15 -34 15c-66.667 0 -126 -30 -178 -90c-15.333 -29.333 -23 -56 -23 -80z" />
    <glyph glyph-name="quotesingle" unicode="'" horiz-adv-x="672" 
d="M127 2215h8c2.66699 0 6.33398 -3.66699 11.001 -11v-499c7.33301 -7.33301 11 -14.333 11 -21v-8c0 -6.66699 -3.66699 -14 -11 -22v-5h3c75.333 0 113 -6.33301 113 -19c5.33301 -8.66699 8 -25 8 -49v-98c0 -47.333 -10.833 -103.666 -32.5 -168.999
s-35.167 -98 -40.5 -98c0 -10 -13.333 -17 -40 -21h-8h-30c-34.667 0 -72.667 82.667 -114 248l3 127v35c0 29.333 24.333 44 73 44h27c-10.667 10 -16 20.667 -16 32c3.33301 18 9.66602 27 18.999 27c0 37.333 -14.667 71.666 -44 102.999
c-7.33301 -7.33301 -14.333 -11 -21 -11h-8c-14 0 -24 10 -30 30c3.33301 23.333 14 35 32 35h3c15.333 0 28 -12.667 38 -38c15.333 -10 26 -24.333 32 -43h3v420c0 2.66699 3.66699 6.33398 11 11zM86 1554c0 -26 16.334 -41.332 49.001 -45.999
c27.333 5.33301 41 21.333 41 48c-7.33301 25.333 -17.333 38 -30 38v-13c0 -2.66699 -3.66699 -6.33398 -11 -11.001h-8c-2.66699 0 -6.33398 3.66699 -11.001 11v13h-3c-18 -10 -27 -23.333 -27 -40z" />
    <glyph glyph-name="parenleft" unicode="(" horiz-adv-x="1330" 
d="M653 2213l11.001 0.00195312c3.33301 0 8 -4.66699 14 -14v-697c9.33301 -10 14 -19.333 14 -28v-10c0 -8.66699 -4.66699 -18.334 -14 -29.001v-24c157.333 0 295.666 -68 414.999 -204c56 -83.333 84 -163 84 -239v-939c0 -132.667 -70.333 -249.667 -211 -351
c-96 -58.667 -189.667 -88 -281 -88h-42c-167.333 0 -308 70.333 -422 211c-54 77.333 -81 157 -81 239v924c0 146 79.667 271.667 239 377c95.333 46.667 182 70 260 70v17c-18 0 -28.333 14.333 -31 43c4.66699 23.333 12.667 35 24 35c0 48 -18.667 92.333 -56 133
c-10 -9.33301 -19.333 -14 -28 -14h-11c-17.333 0 -30 13 -38 39c4.66699 30.667 18.667 46 42 46h3c20 0 36.333 -16.667 49 -50c20.667 -12.667 35 -31.334 43 -56.001h3v595c0 4 4.66699 8.66699 14 14zM678.001 1362c0 -23.333 -4.66602 -35 -13.999 -35h-11
c-8.66699 0 -13.334 9.33301 -14.001 28c-14 -10.667 -21 -26 -21 -46c0 -25.333 16.333 -40.666 49 -45.999c28 0 42 18.667 42 56c0 17.333 -10.333 31.666 -31 42.999z" />
    <glyph glyph-name="parenright" unicode=")" horiz-adv-x="2022" 
d="M974 2217l11.0039 0.000976562c3.33301 0 7.66602 -4.33301 12.999 -13v-861c9.33301 -9.33301 14 -18.333 14 -27v-10c0 -8.66699 -4.66699 -18 -14 -28v-31c93.333 55.333 143.666 83 150.999 83h3c20.667 -36.667 57 -90.334 109 -161.001c8 0 70.667 6.66699 188 20
c27.333 -121.333 43.333 -187.333 48 -198c120.667 -34 181 -54.333 181 -61l-30 -192l150 -126l-99 -171l92 -174c-102 -75.333 -153.333 -114.333 -154 -117l21 -195c-7.33301 -4 -70 -19.667 -188 -47l-48 -188h-3l-192 30
c-68.667 -94.667 -108.334 -144.667 -119.001 -150l-158 103c-10.667 -2 -66.334 -33 -167.001 -93c-18 18 -55.667 72.667 -113 164c-116 -13.333 -179.667 -20 -191 -20l-48 195c-120.667 36.667 -181 57 -181 61l27 195c-96 79.333 -145 121.333 -147 126l99 168
c-48.667 88.667 -79.334 148 -92.001 178c98 70 149.333 108.667 154 116c-14 114 -21 179 -21 195l188 48c30 125.333 48.333 188 55 188l184 -35c77.333 102.667 117.333 154 120 154l144 -92v20c-18 0 -28.333 13.667 -31 41c4.66699 23.333 12.667 35 24 35
c0 46.667 -18.333 90 -55 130c-9.33301 -9.33301 -18.333 -14 -27 -14h-11c-16.667 0 -29 12.333 -37 37c4.66699 30 18.334 45 41.001 45h3c19.333 0 35.333 -16 48 -48c20 -12.667 33.667 -31 41 -55h4v762c0 3.33301 4.33301 7.66602 13 13zM998.004 1128
c0 -22.667 -4.33301 -34 -13 -34h-11c-8.66699 0 -13 9 -13 27c-6.66699 0 -13.667 -12.667 -21 -38c5.33301 -34 20.333 -51 45 -51c24 0 38.667 16 44 48c0 22 -10.333 38 -31 48z" />
    <glyph glyph-name="asterisk" unicode="*" horiz-adv-x="647" 
d="M264 2205l7.00195 -0.000976562c2.66699 0 6 -3 10 -9v-551c6 -7.33301 9 -14 9 -20v-7c0 -5.33301 -3 -11.666 -9 -18.999v-19h7c32 0 48 -15.333 48 -46v-38c0 -64 5.33301 -96 16 -96l15 -2h5l122 40h9c20.667 0 36.667 -28 48 -84v-4c0 -20 -39.667 -41 -119 -63
c-24 -7.33301 -36 -19.333 -36 -36c0 -6.66699 20.667 -37.667 62 -93c12.667 -16.667 19 -28.667 19 -36c0 -20 -22.333 -42.333 -67 -67c-6.66699 -3.33301 -12.334 -5 -17.001 -5c-10.667 0 -33 24.667 -67 74c-22.667 35.333 -41 53 -55 53h-5
c-22 -18 -50.667 -55.667 -86 -113c-11.333 -8 -21.666 -12 -30.999 -12c-38.667 16.667 -63.667 36 -75 58c-1.33301 2.66699 -2 6 -2 10c0 12.667 25.667 52.334 77 119.001c2.66699 5.33301 4 10.333 4 15c0 20.667 -31 37.334 -93 50.001c-40 16 -60 31.333 -60 46
c10.667 58.667 27.334 88 50.001 88c9.33301 0 51.666 -13.333 126.999 -40h10c16 0 24 14.333 24 43v79l2 14c-1.33301 3.33301 -2 6.66602 -2 9.99902c5.33301 22 16.666 33 33.999 33c2.66699 2 5.66699 3 9 3v14c-12 0 -19 9.66699 -21 29c2.66699 16 8 24 16 24
c0 32.667 -12.667 63 -38 91c-6.66699 -6 -13 -9 -19 -9h-7c-12 0 -21 8.66699 -27 26c3.33301 20.667 13 31 29 31h2c13.333 0 24.666 -11.333 33.999 -34c14 -8.66699 23.667 -21.334 29 -38.001h2v482c0 2.66699 3.33301 5.66699 10 9zM281.002 1549
c0 -16 -3.33203 -24 -9.99902 -24h-7c-6 0 -9.33301 6.33301 -10 19c-4 0 -8.66699 -8.66699 -14 -26c3.33301 -24 13.666 -36 30.999 -36c16.667 0 27 11 31 33c0 16 -7 27.333 -21 34z" />
    <glyph glyph-name="plus" unicode="+" horiz-adv-x="1072" 
d="M548 2205l7.00098 0.00195312c2.66699 0 6.33398 -3.33301 11.001 -10v-884c6.66699 -6.66699 10 -13.334 10 -20.001v-7c0 -6 -3.33301 -12.667 -10 -20v-10h2c54 0 81 -14.333 81 -43c1.33301 -8.66699 2 -19.667 2 -33v-217c0 -26.667 13.333 -40 40 -40h222
c43.333 0 65 -13.333 65 -40c0 -24 1 -56.667 3 -98c-7.33301 -25.333 -20 -38 -38 -38c-22.667 -2 -42 -3 -58 -3h-173c-40.667 0 -61 -12.333 -61 -37v-222c0 -43.333 -10 -65 -30 -65c0 -2.66699 -9.33301 -5.33398 -28 -8.00098c-77.333 0 -116 8.33301 -116 25
c-3.33301 6.66699 -5 16 -5 28v209c0 46.667 -11.667 70 -35 70h-199c-60 0 -90 7.66699 -90 23c-3.33301 0 -6 20 -8 60c0 60.667 7.66699 91 23 91c15.333 3.33301 27.666 5 36.999 5h209c42 0 63 14.333 63 43v244c0 28.667 17 43 51 43h15v8
c-12.667 0 -20.334 10 -23.001 30c3.33301 16.667 9.33301 25 18 25c0 34.667 -13.333 66.667 -40 96c-7.33301 -6.66699 -14.333 -10 -21 -10h-7c-12.667 0 -22 9 -28 27c3.33301 22 13.333 33 30 33h3c14 0 25.667 -11.667 35 -35c14.667 -9.33301 24.667 -23 30 -41h3
v811c0 2.66699 3.33301 6 10 10zM566.001 1211c0 -16.667 -3.66699 -25 -11 -25h-7c-6.66699 0 -10 6.66699 -10 20c-4.66699 0 -9.66699 -9.33301 -15 -28c3.33301 -25.333 14 -38 32 -38s29 11.667 33 35c0 16.667 -7.33301 28.667 -22 36z" />
    <glyph glyph-name="comma" unicode="," horiz-adv-x="557" 
d="M191 2215h6.99902c2 0 5 -3 9 -9v-1943c4.66699 -14 7 -21.667 7 -23v-3c0 -8 -2.33301 -15 -7 -21v-14h50c23.333 0 38.333 -8 45 -24c2 -2.66699 3 -6 3 -10v-135c0 -22.667 0.666992 -48.667 2 -78c0 -44.667 -19 -95.334 -57 -152.001c-38.667 -44 -90 -75 -154 -93
h-3c-17.333 0 -27.666 12 -30.999 36v31c0 22.667 20 44.667 60 66c25.333 27.333 41 54.333 47 81c0 25.333 -21.333 38 -64 38c-30 0 -45 18 -45 54v131c0 36.667 18.333 55 55 55h66v7c-12.667 0 -20.667 8.66699 -24 26v5c0 8.66699 5.66699 16.334 17 23.001
c0 33.333 -12.667 63.666 -38 90.999c0 -2.66699 -4 -6 -12 -10h-12c-17.333 2.66699 -26 11.334 -26 26.001v5c0 13.333 8.66699 22 26 26h5c14 0 23.667 -10.333 29 -31c22 -17.333 33 -32.333 33 -45h2v1881c0 2.66699 3.33301 5.66699 10 9zM154.999 126
c4.66699 -25.333 19 -37.999 43 -37.999c18 0 29.667 12.667 35 38c0 14 -7 25.667 -21 35h-5c0 -12.667 -3 -19 -9 -19h-7c-4 0 -8 6.33301 -12 19c-16 -8.66699 -24 -20.334 -24 -35.001z" />
    <glyph glyph-name="hyphen" unicode="-" horiz-adv-x="670" 
d="M332 2208l8.00195 -0.000976562l9 -7c1.33301 -562.667 2 -847.667 2 -855c0 -71.333 1 -216.666 3 -435.999c4 0 7 -6.33301 9 -19v-3c0 -8 -2.33301 -15 -7 -21v-7h166c32 0 48 -13.667 48 -41c1.33301 -5.33301 2 -14 2 -26v-61c0 -40 -12 -60 -36 -60
c-7.33301 -1.33301 -17.333 -2 -30 -2h-363c-28.667 0 -43 20.667 -43 62v31c0 58 5.66699 87 17 87c0 5.33301 10 8.66602 30 9.99902h178v2c-10 0 -16.333 8 -19 24v5c0 8.66699 5.66699 16.334 17 23.001c0 32.667 -12.667 62.667 -38 90h-2
c-2.66699 -6 -8.33398 -9 -17.001 -9h-7c-12 0 -20.667 8.66699 -26 26c3.33301 20.667 12.666 31 27.999 31c20.667 -2 31 -12.333 31 -31c9.33301 0 20.333 -13.333 33 -40h3c-2 30 -3 49.667 -3 59c0 95.333 -0.666992 482.333 -2 1161zM356.002 811.999
c-1.33301 -12.667 -4.33301 -19.001 -9 -19.001h-10c-6 2.66699 -9 8.33398 -9 17.001c-4.66699 0 -9.66699 -8.66699 -15 -26c4 -24 14.333 -36 31 -36s27 11 31 33c0 14 -5.33301 24.333 -16 31h-3z" />
    <glyph glyph-name="hyphen" unicode="&#xad;" horiz-adv-x="670" 
d="M332 2208l8.00195 -0.000976562l9 -7c1.33301 -562.667 2 -847.667 2 -855c0 -71.333 1 -216.666 3 -435.999c4 0 7 -6.33301 9 -19v-3c0 -8 -2.33301 -15 -7 -21v-7h166c32 0 48 -13.667 48 -41c1.33301 -5.33301 2 -14 2 -26v-61c0 -40 -12 -60 -36 -60
c-7.33301 -1.33301 -17.333 -2 -30 -2h-363c-28.667 0 -43 20.667 -43 62v31c0 58 5.66699 87 17 87c0 5.33301 10 8.66602 30 9.99902h178v2c-10 0 -16.333 8 -19 24v5c0 8.66699 5.66699 16.334 17 23.001c0 32.667 -12.667 62.667 -38 90h-2
c-2.66699 -6 -8.33398 -9 -17.001 -9h-7c-12 0 -20.667 8.66699 -26 26c3.33301 20.667 12.666 31 27.999 31c20.667 -2 31 -12.333 31 -31c9.33301 0 20.333 -13.333 33 -40h3c-2 30 -3 49.667 -3 59c0 95.333 -0.666992 482.333 -2 1161zM356.002 811.999
c-1.33301 -12.667 -4.33301 -19.001 -9 -19.001h-10c-6 2.66699 -9 8.33398 -9 17.001c-4.66699 0 -9.66699 -8.66699 -15 -26c4 -24 14.333 -36 31 -36s27 11 31 33c0 14 -5.33301 24.333 -16 31h-3z" />
    <glyph glyph-name="period" unicode="." horiz-adv-x="866" 
d="M205 2218h6.99902c2.66699 0 6 -3.33301 10 -10v-1966c5.33301 -14.667 8 -23 8 -25v-2c0 -8.66699 -2.66699 -16 -8 -22v-15h57c29.333 0 44 -13 44 -39v-157c0 -30 -7.33301 -45 -22 -45c0 -3.33301 -16.333 -5.66602 -49 -6.99902h-113c-44.667 0 -67 12.333 -67 37
c-1.33301 15.333 -2 30 -2 44v118c0 24.667 9.66699 41 29 49h96v7c-12.667 0 -20.667 9 -24 27v5c0 9.33301 5.66699 17.666 17 24.999c0 34 -13 65 -39 93c-0.666992 -2 -5 -5.33301 -13 -10h-12c-18 2.66699 -27 11.667 -27 27v5c0 14 9 23 27 27h5
c14.667 0 24.334 -10.667 29.001 -32c23.333 -18 35 -33.333 35 -46h2v1902c0 2.66699 3.33301 6 10 10zM167.999 99c5.33301 -26 20.001 -38.999 44.001 -38.999c19.333 0 31.666 13 36.999 39c0 15.333 -7.33301 27.666 -22 36.999h-5c0 -12.667 -3.33301 -19 -10 -19h-7
c-4 0 -8 6.33301 -12 19c-16.667 -8.66699 -25 -21 -25 -37z" />
    <glyph glyph-name="slash" unicode="/" horiz-adv-x="569" 
d="M93 -50h-80l541 1484h80z" />
    <glyph glyph-name="zero" unicode="0" 
d="M443 2217l8.00098 0.000976562c2.66699 0 6.33398 -3.33301 11.001 -10v-906c6.66699 -7.33301 10 -14.333 10 -21v-8c0 -6 -3.33301 -12.667 -10 -20c138 0 247.333 -61 328 -183c48.667 -94.667 73 -163.334 73 -206.001c6.66699 0 14.667 -67 24 -201v-62
c0 -196 -45.333 -353.333 -136 -472c-54 -54.667 -106.333 -89.667 -157 -105c-62 -15.333 -108 -23 -138 -23c-210 0 -347.333 101.667 -412 305c-27.333 98 -41 192 -41 282c-2 0 -3 0.666992 -3 2c2 9.33301 3 17.333 3 24v23c0 6 -1 10.333 -3 13
c6.66699 124 19 218 37 282c24 74.667 58.667 139 104 193c27.333 33.333 54.333 56.666 81 69.999c67.333 38.667 133.333 58 198 58c-7.33301 6.66699 -11 15.334 -11 26.001c4 17.333 10.333 26 19 26c0 36 -14 69 -42 99c-7.33301 -7.33301 -14.333 -11 -21 -11h-8
c-12.667 0 -22 9.66699 -28 29c3.33301 22.667 13.666 34 30.999 34h2c14.667 0 27 -12.333 37 -37c15.333 -9.33301 25.666 -23 30.999 -41h3v830c0 2.66699 3.33301 6 10 10zM404.001 1155c0 -25.333 15.667 -40 47 -44c26 5.33301 39 21 39 47c-6.66699 24 -16 36 -28 36
v-13c0 -2.66699 -3.66699 -6 -11 -10h-8c-2.66699 0 -6 3.33301 -10 10v13h-3c-17.333 -9.33301 -26 -22.333 -26 -39zM245.001 613.001l3.00195 -36.999l-3 -10c5.33301 -98.667 14 -167.334 26 -206.001c20 -68 52.333 -115 97 -141c31.333 -14 55.666 -21 72.999 -21
c43.333 0 85 18.333 125 55c52 68 78 192.333 78 373v26c0 264 -66 396 -198 396h-29c-22.667 0 -51.334 -14 -86.001 -42c-46.667 -60.667 -70 -119.667 -70 -177c-8.66699 -12 -14 -84 -16 -216z" />
    <glyph glyph-name="one" unicode="1" horiz-adv-x="670" 
d="M412 2213l8 0.00195312c2.66699 0 6 -3.33301 10 -10v-914h3c0 10.667 11.333 25.667 34 45c4.66699 20.667 15.334 31 32.001 31h2c17.333 0 28 -11.333 32 -34c-6 -19.333 -15.667 -29 -29 -29h-8c-6 0 -13 3.66699 -21 11c-26 -29.333 -39 -60 -39 -92v-5
c10 -10.667 15 -19.334 15 -26.001v-8c0 -12 -7 -20.667 -21 -26v-8c19.333 1.33301 30.666 3 33.999 5c42 0 63 -15.667 63 -47l92 -1118c0 -33.333 -38.333 -50 -115 -50l-84 -8c-30 4 -45 19 -45 45c-3.33301 29.333 -22.333 263.666 -57 702.999
c-10 19.333 -21.667 29 -35 29h-5l-228 -13h-3c-28 0 -42 23.667 -42 71c-3.33301 16.667 -5 41 -5 73c-0 25.333 32.333 41 97 47c94.667 27.333 156 65 184 113c19.333 24 36 64.333 50 121c12 17.333 35.667 26 71 26v13c-9.33301 9.33301 -14 17.333 -14 24v5
c0 7.33301 4.66699 16 14 26v990c0 2.66699 3.33301 6 10 10zM373 1043c0 -25.333 15.668 -40.332 47.001 -44.999c26 5.33301 39 21 39 47c-6.66699 24.667 -16.334 37 -29.001 37v-13c0 -2.66699 -3.33301 -6.33398 -10 -11.001h-8c-2.66699 0 -6 3.66699 -10 11v13h-3
c-17.333 -10 -26 -23 -26 -39z" />
    <glyph glyph-name="two" unicode="2" horiz-adv-x="917" 
d="M430 2204l7.99805 -0.00488281c2.66699 0 6 -3.33301 10 -10v-866h3c0 10 11 24.667 33 44c4.66699 20.667 15 31 31 31h3c16.667 0 27 -11.333 31 -34c-6 -18.667 -15.667 -28 -29 -28h-7c-6.66699 0 -13.667 3.33301 -21 10c-26 -28.667 -39 -58.667 -39 -90v-5
c10.667 -10.667 16 -19.334 16 -26.001v-8c0 -11.333 -7 -19.666 -21 -24.999v-13h44c170 0 295.333 -69.667 376 -209c24 -47.333 36 -101.333 36 -162v-21c0 -153.333 -91 -278.666 -273 -375.999c-108.667 -63.333 -191 -116.666 -247 -159.999
c-26 -22.667 -39 -40.667 -39 -54c3.33301 -10.667 21.333 -18.334 54 -23.001c304 -13.333 456 -22.666 456 -27.999c14 -11.333 21 -27.666 21 -48.999c-2 -96 -10.667 -144 -26 -144l-23 -8l-796 44c-20.667 8.66699 -31 22.334 -31 41.001v10
c0 54.667 27.333 126 82 214c44.667 54 85 93.667 121 119c82.667 58.667 193.667 129 333 211c64 46 104.333 95.667 121 149c4.66699 28 7 49.333 7 64c0 74 -36 128.333 -108 163c-16 4.66699 -36.667 9 -62 13h-10c-69.333 0 -122.333 -39.667 -159 -119
c-14 -32.667 -25.333 -73 -34 -121c-11.333 -14 -24.333 -21 -39 -21c-101.333 0 -160.333 7 -177 21c-7.33301 10 -11 17 -11 21c4.66699 82 28 161 70 237c48.667 76.667 117.334 131.334 206.001 164.001c20.667 7.33301 47.334 13.666 80.001 18.999v20
c-8.66699 8.66699 -13 16.334 -13 23.001v5c0 7.33301 4.33301 16 13 26v941c0 2.66699 3.33301 6 10 10zM390.998 1086c0 -24.667 15.667 -39.3311 47 -43.998c25.333 5.33301 38 20.666 38 45.999c-6 24 -15.333 36 -28 36v-12c0 -2.66699 -3.33301 -6.33398 -10 -11.001
h-8c-2.66699 0 -6 3.66699 -10 11v12h-3c-17.333 -9.33301 -26 -22 -26 -38z" />
    <glyph glyph-name="three" unicode="3" horiz-adv-x="897" 
d="M385 2211l7.00195 -0.00195312c2.66699 0 6.33398 -3.33301 11.001 -10v-865c6.66699 -7.33301 10 -14.333 10 -21v-8c0 -6 -3.33301 -12.667 -10 -20c33.333 1.33301 55.666 2 66.999 2c155.333 0 278.333 -61 369 -183c27.333 -56 41 -106 41 -150v-5
c0 -84 -26.667 -150.333 -80 -199c0 -3.33301 -16.333 -15.333 -49 -36c-10 -8 -15 -13 -15 -15v-6c0 -11.333 24 -33.666 72 -66.999c48 -55.333 72 -109.333 72 -162c2 0 4 -10.333 6 -31c-2 -10.667 -4 -16 -6 -16l3 -13v-2c0 -60.667 -27.667 -131.334 -83 -212.001
c-88 -94.667 -208.333 -142 -361 -142h-3c-46 0 -109.667 13 -191 39c-163.333 74.667 -245 199.334 -245 374.001c0 34.667 15.333 52 46 52c120.667 0 181 -14 181 -42c15.333 -85.333 37 -140.333 65 -165c42 -39.333 90 -59 144 -59h5c88 0 147.667 39.667 179 119
c8.66699 24.667 13 42.667 13 54v10c0 75.333 -28.667 126 -86 152c-14.667 12 -60.334 23.333 -137.001 34c-19.333 0 -31.333 15.333 -36 46c4 76 12.667 114 26 114c0 4.66699 38 8 114 10c62 18.667 93 33.334 93 44.001c29.333 29.333 44 62 44 98
c0 74.667 -42.333 126.334 -127 155.001c-15.333 3.33301 -26.333 5 -33 5h-16c-92.667 0 -154.667 -58.333 -186 -175c-7.33301 -12 -18.333 -18 -33 -18h-8c-112 2.66699 -168 10.334 -168 23.001c-6.66699 9.33301 -10 18.666 -10 27.999c17.333 86 49 156 95 210
c67.333 69.333 135.333 109.666 204 120.999c-12 10.667 -18 21.667 -18 33c3.33301 17.333 9.33301 26 18 26c0 36 -13.667 68.667 -41 98c-7.33301 -6.66699 -14.333 -10 -21 -10h-8c-12.667 0 -22 9.33301 -28 28c3.33301 22.667 13.666 34 30.999 34h3
c14 0 26 -12 36 -36c14.667 -10 25 -23.667 31 -41h2v790c0 2.66699 3.66699 6 11 10zM346.002 1191c0 -24.667 15.334 -39.333 46.001 -44c26 5.33301 39 21 39 47c-6.66699 24 -16 36 -28 36v-13c0 -2.66699 -3.66699 -6 -11 -10h-7
c-2.66699 0 -6.33398 3.33301 -11.001 10v13h-2c-17.333 -10 -26 -23 -26 -39z" />
    <glyph glyph-name="four" unicode="4" horiz-adv-x="953" 
d="M496 2212l7.99805 -0.00195312c3.33301 0 7 -3.66699 11 -11v-972h3c0 10.667 11.667 26 35 46c4.66699 21.333 15.334 32 32.001 32h3c17.333 0 28 -11.667 32 -35c-6 -19.333 -16 -29 -30 -29h-8c-6 0 -13 3.33301 -21 10c-26.667 -29.333 -40 -60.666 -40 -93.999v-5
c10.667 -10.667 16 -19.667 16 -27v-8c0 -12 -7.33301 -21 -22 -27v-8c46.667 7.33301 74.334 11 83.001 11c26.667 0 43 -38.333 49 -115c60.667 -358 94.667 -553 102 -585c10 -14.667 25 -22 45 -22c44.667 9.33301 70.667 14 78 14h5c29.333 0 46.333 -26 51 -78
c7.33301 -41.333 11 -69 11 -83c0 -26 -16 -41.333 -48 -46c-64.667 -5.33301 -97 -20.666 -97 -45.999c0 -10.667 -0.666992 -16 -2 -16c16 -87.333 27.333 -156 34 -206c0 -31.333 -47.333 -50.333 -142 -57c0 -3.33301 -13.333 -5 -40 -5h-13
c-28.667 0 -43 21.333 -43 64c-20.667 129.333 -36 194 -46 194c-9.33301 5.33301 -18.333 8 -27 8s-153.667 -23.333 -435 -70h-21c-24.667 0 -40.667 40.333 -48 121c-7.33301 30.667 -11 55.667 -11 75v10c0 22 24 75.667 72 161l309 601c15.333 36 36 54 62 54
c0 3.33301 14.333 7 43 11v16c-9.33301 9.33301 -14 17.333 -14 24v5c0 8 4.66699 17 14 27v1050c0 2.66699 3.33301 6.33398 10 11zM455.998 976.998c0 -26 16 -41.332 48 -45.999c27.333 6 41 22.333 41 49c-7.33301 24.667 -17.333 37 -30 37v-13
c0 -2.66699 -3.66699 -6.33398 -11 -11.001h-8c-2.66699 0 -6 3.66699 -10 11v13h-3c-18 -10 -27 -23.333 -27 -40zM216.998 308.999c2.66699 -18 12.6689 -27 30.002 -27c138 20 219.333 35.333 244 46c6.66699 0 13 11.333 19 34c-34.667 227.333 -56.334 341 -65.001 341
c0 4 -1.66699 6 -5 6h-5c-16.667 0 -37.334 -29.667 -62.001 -89c-62.667 -113.333 -114.667 -215.333 -156 -306v-5z" />
    <glyph glyph-name="five" unicode="5" 
d="M406 2209l7.99805 0.00195312c2.66699 0 6 -3.33301 10 -10v-922c7.33301 -7.33301 11 -14.333 11 -21v-7c0 -6 -2.66699 -12.333 -8 -19c326 -70 509.333 -111 550 -123c10.667 -8.66699 16 -17.334 16 -26.001v-16c0 -16.667 -8.66699 -58.667 -26 -126
c-9.33301 -14 -20.666 -21 -33.999 -21h-3c-8.66699 0 -148.334 29 -419.001 87h-16c-26 0 -48.667 -35 -68 -105c-17.333 -34 -30.333 -67 -39 -99c0 -9.33301 4.33301 -16.333 13 -21h8l97 21h31c153.333 0 266 -71 338 -213c21.333 -46.667 32 -89.334 32 -128.001v-71
c0 -104 -42 -201.667 -126 -293c-94 -84 -193.667 -126 -299 -126c-159.333 0 -294.666 58.667 -405.999 176c-50.667 68.667 -76 142.667 -76 222v21c0 35.333 12.333 53 37 53c134 -22 201 -41.333 201 -58c17.333 -89.333 34 -134 50 -134c0 -22 40.333 -46.333 121 -73
l31 -3c34.667 0 74 11.333 118 34c48.667 42.667 78.334 82 89.001 118c10.667 30 16 52.667 16 68v42c0 57.333 -27 110 -81 158c-40 27.333 -91.667 41 -155 41c-38.667 -4.66699 -78 -21 -118 -49c-11.333 -4 -19 -6 -23 -6h-14c-89.333 16.667 -145 31.667 -167 45
l-5 18v8c8.66699 30 63.667 166.333 165 409c44.667 113.333 72.334 171 83.001 173c0 5.33301 9 8 27 8l-3 5v8c3.33301 17.333 9.33301 26 18 26c0 36 -14 69.333 -42 100c-7.33301 -7.33301 -14 -11 -20 -11h-8c-13.333 0 -23 9.66699 -29 29
c3.33301 22.667 13.666 34 30.999 34h3c14.667 0 27 -12.333 37 -37c14.667 -9.33301 25 -23.333 31 -42h3v846c0 2.66699 3.33301 6 10 10zM366.998 1110c0 -25.333 15.668 -40.332 47.001 -44.999c26 5.33301 39 21 39 47c-6.66699 24.667 -16.334 37 -29.001 37v-13
c0 -2.66699 -3.33301 -6.33398 -10 -11.001h-8c-2.66699 0 -6 3.66699 -10 11v13h-3c-17.333 -10 -26 -23 -26 -39z" />
    <glyph glyph-name="six" unicode="6" horiz-adv-x="968" 
d="M373 2207l8.00195 -0.000976562c2.66699 0 6.33398 -3.66699 11.001 -11v-823h2c0 10 11.667 24.667 35 44c4.66699 21.333 15 32 31 32h3c17.333 0 27.666 -11.333 30.999 -34c-5.33301 -19.333 -15 -29 -29 -29h-7c-6.66699 0 -14 3.33301 -22 10
c-26 -28.667 -39 -59.334 -39 -92.001v-5c10.667 -10.667 16 -19.334 16 -26.001v-8c0 -12 -7 -21 -21 -27v-10c54.667 17.333 95 26 121 26c198 0 333.667 -81.333 407 -244c16 -44 24 -85.333 24 -124v-8c0 -26 -15 -39 -45 -39c-120.667 21.333 -181 42.333 -181 63
c-10.667 44.667 -24 78 -40 100c-39.333 42 -76 63 -110 63h-26c-90 0 -169 -79.667 -237 -239l-3 -16v-16c0 -2.66699 3.66699 -6 11 -10h13c61.333 29.333 108.666 44 141.999 44h58c46 -5.33301 86.333 -15.666 121 -30.999c31.333 -10.667 71.666 -38.667 120.999 -84
c68 -71.333 102 -155.666 102 -252.999v-8c0 -163.333 -71.667 -296.333 -215 -399c-70 -35.333 -135.667 -53 -197 -53c-116 0 -220.333 36 -313 108c-64 66.667 -101.667 124.334 -113 173.001c-21.333 72 -32 135.333 -32 190c0 225.333 59.667 423.333 179 594
c40 50 79.333 88.667 118 116c20 12 42 23.333 66 34v26c-8.66699 9.33301 -13 17.333 -13 24v5c0 7.33301 4.33301 16 13 26v900c0 3.33301 3.33301 7 10 11zM334.002 1125c0 -25.333 15.668 -39.999 47.001 -43.999c26.667 5.33301 40 21 40 47
c-6.66699 24.667 -16.334 37 -29.001 37v-13c0 -2.66699 -3.66699 -6.33398 -11 -11.001h-8c-2.66699 0 -6 3.66699 -10 11v13h-3c-17.333 -10 -26 -23.333 -26 -40zM237.003 423l2 -4.99902c-1.33301 -3.33301 -2 -6 -2 -8c0 -84 38.333 -147 115 -189
c20 -8.66699 34 -13 42 -13h45c64 0 118.333 44.667 163 134c14 44 21 78 21 102c0 51.333 -14 100.666 -42 147.999c-38 42 -82.667 63 -134 63h-26c-73.333 0 -130.333 -51.667 -171 -155c-8.66699 -28 -13 -53.667 -13 -77z" />
    <glyph glyph-name="seven" unicode="7" horiz-adv-x="847" 
d="M634 2210l8.00098 -0.000976562c2.66699 0 6 -3.33301 10 -10v-811h3c0 10 11.333 24.667 34 44c4.66699 20.667 15 31 31 31h2c18 0 28.667 -11 32 -33c-5.33301 -19.333 -15 -29 -29 -29h-8c-6 0 -13 3.33301 -21 10c-26 -28.667 -39 -59 -39 -91v-5
c10.667 -10.667 16 -19.334 16 -26.001v-8c0 -12 -7 -20.667 -21 -26v-11h3c55.333 12.667 94.333 19.667 117 21c22.667 0 39.334 -40.667 50.001 -122c6.66699 -22.667 10 -40 10 -52v-14c0 -10.667 -24.333 -55.667 -73 -135c-88.667 -198 -133 -412.667 -133 -644
c3.33301 -109.333 9.33301 -188.666 18 -237.999c0 -41.333 -24.333 -62 -73 -62c-20.667 -5.33301 -68.334 -15 -143.001 -29c-28 0 -42 39 -42 117c0 9.33301 -1 37.333 -3 84c0 250.667 60 507 180 769c7.33301 11.333 11 21 11 29c0 11.333 -12.333 18.333 -37 21
l-18 -5l-5 2c-271.333 -57.333 -419.333 -87.666 -444 -90.999c-31.333 4 -47 23 -47 57c-15.333 70.667 -23 110.667 -23 120v5c0 30 38.333 48.333 115 55c167.333 36.667 336.666 71.667 507.999 105v20c-8.66699 9.33301 -13 17.333 -13 24v5
c0 7.33301 4.33301 16 13 26v887c0 2.66699 3.66699 6 11 10zM595.001 1144c0 -25.333 15.6689 -40.332 47.002 -44.999c26 6 39 21.667 39 47c-6.66699 24.667 -16.334 37 -29.001 37v-13c0 -2.66699 -3.33301 -6.33398 -10 -11.001h-8
c-2.66699 0 -6.33398 3.66699 -11.001 11v13h-2c-17.333 -10 -26 -23 -26 -39z" />
    <glyph glyph-name="eight" unicode="8" horiz-adv-x="888" 
d="M423 2216h7.00098c2.66699 0 6 -3.33301 10 -10v-837c6.66699 -7.33301 10 -14 10 -20v-8c0 -6 -3.33301 -12.667 -10 -20v-7c156 0 269.667 -59 341 -177c26.667 -46.667 40 -97 40 -151c0 -45.333 -21.667 -97.666 -65 -156.999
c-41.333 -34.667 -63.666 -54.667 -66.999 -60c0 -14.667 20.667 -31.334 62 -50.001c54.667 -36.667 89.667 -88 105 -154c6.66699 -20 10.667 -47.333 12 -82c0 -138 -64 -240.667 -192 -308c-69.333 -36.667 -149.666 -55 -240.999 -55
c-166.667 0 -292.667 54.667 -378 164c-38 62 -57 128.333 -57 199c1.33301 46 13.666 95 36.999 147c24.667 45.333 68 84.333 130 117c0 0.666992 3.33301 4.66699 10 12v5c0 10 -18.333 27.333 -55 52c-50 59.333 -75 116 -75 170l3 12v7c0 105.333 52 188.333 156 249
c48 28 106.333 47 175 57c7.33301 0 18 1 32 3v2c-12.667 0 -20.334 10 -23.001 30c3.33301 16.667 9.33301 25 18 25c0 34 -13.333 65.667 -40 95c-6.66699 -6.66699 -13.334 -10 -20.001 -10h-7c-12.667 0 -22 9 -28 27c3.33301 21.333 13.333 32 30 32h3
c13.333 0 25 -11.667 35 -35c14 -9.33301 23.667 -22.333 29 -39h3v765c0 2.66699 3.33301 6 10 10zM386.001 1229c0 -24 14.667 -38 44 -42c25.333 5.33301 38 20.333 38 45c-6.66699 23.333 -16 35 -28 35v-13c0 -2.66699 -3.33301 -6 -10 -10h-7
c-2.66699 0 -6 3.33301 -10 10v13h-3c-16 -9.33301 -24 -22 -24 -38zM413.001 1135c-3.33301 1.33301 -6.00098 2.00098 -8.00098 2.00098c-28.667 -4 -57.667 -15.667 -87 -35c-38 -32 -57 -72.333 -57 -121v-8c0 -65.333 38.333 -111 115 -137
c25.333 -4.66699 45 -7 59 -7h13c60.667 0 108.667 26.333 144 79c11.333 26.667 17 51.667 17 75c0 41.333 -14.667 77.666 -44 108.999c-35.333 30 -70.333 45 -105 45c0 2 -3.33301 3 -10 3c-23.333 -2 -35.666 -3.66699 -36.999 -5zM234 488.001
c0 -72 34.667 -129.333 104 -172c31.333 -14.667 68 -22 110 -22c50.667 0 97.667 21.667 141 65c30 37.333 45 77 45 119v13c0 72.667 -39 128 -117 166c-18 6.66699 -44.333 11.667 -79 15c-92 0 -156 -38 -192 -114c-8 -28.667 -12 -52 -12 -70z" />
    <glyph glyph-name="nine" unicode="9" horiz-adv-x="953" 
d="M501 2214l7.99512 -0.00292969c2.66699 0 6.33398 -3.66699 11.001 -11v-797h3c0 10 11.333 25 34 45c4.66699 21.333 15.334 32 32.001 32h2c18 0 28.667 -11.667 32 -35c-5.33301 -19.333 -15 -29 -29 -29h-8c-6 0 -13 3.66699 -21 11
c-26.667 -29.333 -40 -60.333 -40 -93v-5c10.667 -11.333 16 -20.333 16 -27v-8c0 -12 -7 -20.667 -21 -26c0 -3.33301 22 -9.66602 66 -18.999c100.667 -39.333 181.334 -113.666 242.001 -222.999c68.667 -146 103 -299.667 103 -461v-53
c-7.33301 -82.667 -20.666 -151 -39.999 -205c-41.333 -120 -108.333 -204.667 -201 -254c-15.333 -15.333 -68.666 -33 -159.999 -53c-8.66699 -2 -17.334 -3 -26.001 -3h-69c-47.333 0 -104.666 16 -171.999 48c-76 46.667 -128.333 113.667 -157 201v8
c0 20.667 19.333 33 58 37l117 16h8c25.333 0 49.333 -20.333 72 -61c40 -42 84 -63 132 -63c60 0 111.333 33.333 154 100c32 68 48 142.333 48 223c0 23.333 -7 35 -21 35h-8c-78.667 -74.667 -139.667 -112 -183 -112c-8.66699 -5.33301 -40.667 -10.666 -96 -15.999
c-118 0 -219.667 49.667 -305 149c-52.667 82.667 -79 171 -79 265c-2 0 -3 2 -3 6c0 112 38 212.667 114 302c88.667 90 202.667 135 342 135c12 -1.33301 23.667 -2 35 -2v2c-9.33301 9.33301 -14 17.333 -14 24v5c0 8 4.66699 17 14 27v874
c0 2.66699 3.33301 6.33398 10 11zM461.995 1156c0 -25.333 15.668 -40.332 47.001 -44.999c26.667 6 40 22 40 48c-6.66699 24.667 -16.334 37 -29.001 37v-13c0 -2.66699 -3.66699 -6.33398 -11 -11.001h-8c-2.66699 0 -6 3.66699 -10 11v13h-3
c-17.333 -10 -26 -23.333 -26 -40zM246.996 853.998c0 -55.333 17.667 -112 53 -170c38 -47.333 87.333 -71 148 -71h14c41.333 3.33301 81 22.666 119 57.999c37.333 40.667 56 97.334 56 170.001c0 77.333 -40.667 146.333 -122 207c-24.667 10.667 -47 16 -67 16h-45
c-25.333 -4 -51 -14 -77 -30c-52.667 -44.667 -79 -104.667 -79 -180z" />
    <glyph glyph-name="colon" unicode=":" horiz-adv-x="557" 
d="M145 167l82.001 84c10 9.33301 19.667 14 29 14c8.66699 0 19 -5.33301 31 -16l80 -86c8 -10.667 12 -20.334 12 -29.001c0 -10 -4.66699 -20.333 -14 -31l-80 -88c-13.333 -13.333 -23 -20 -29 -20c-10.667 0 -20.334 4.66699 -29.001 14l-88 101
c-6.66699 8.66699 -10 17.334 -10 26.001c0 10 5.33301 20.333 16 31zM145.001 860l82.001 84c10 9.33301 19.667 14 29 14c8.66699 0 19 -5.33301 31 -16l80 -86c8 -10.667 12 -20.334 12 -29.001c0 -10 -4.66699 -20.333 -14 -31l-80 -88c-13.333 -13.333 -23 -20 -29 -20
c-10.667 0 -20.334 4.66699 -29.001 14l-88 101c-6.66699 8.66699 -10 17.334 -10 26.001c0 10 5.33301 20.333 16 31z" />
    <glyph glyph-name="semicolon" unicode=";" horiz-adv-x="557" 
d="M145 859l82.001 84c10 9.33301 19.667 14 29 14c8.66699 0 19 -5.33301 31 -16l80 -86c8 -10.667 12 -20.334 12 -29.001c0 -10 -4.66699 -20.333 -14 -31l-80 -88c-13.333 -13.333 -23 -20 -29 -20c-10.667 0 -20.334 4.66699 -29.001 14l-88 101
c-6.66699 8.66699 -10 17.334 -10 26.001c0 10 5.33301 20.333 16 31zM238.001 258c29.333 0 58.832 -21.833 88.499 -65.5s44.5 -94.167 44.5 -151.5c0 -72.667 -23.667 -148.167 -71 -226.5s-93.666 -117.5 -138.999 -117.5v43c48.667 28.667 77.667 92 87 190
c0 79.333 -43 133 -129 161v42z" />
    <glyph glyph-name="semicolon" unicode="&#x37e;" horiz-adv-x="557" 
d="M145 859l82.001 84c10 9.33301 19.667 14 29 14c8.66699 0 19 -5.33301 31 -16l80 -86c8 -10.667 12 -20.334 12 -29.001c0 -10 -4.66699 -20.333 -14 -31l-80 -88c-13.333 -13.333 -23 -20 -29 -20c-10.667 0 -20.334 4.66699 -29.001 14l-88 101
c-6.66699 8.66699 -10 17.334 -10 26.001c0 10 5.33301 20.333 16 31zM238.001 258c29.333 0 58.832 -21.833 88.499 -65.5s44.5 -94.167 44.5 -151.5c0 -72.667 -23.667 -148.167 -71 -226.5s-93.666 -117.5 -138.999 -117.5v43c48.667 28.667 77.667 92 87 190
c0 79.333 -43 133 -129 161v42z" />
    <glyph glyph-name="less" unicode="&#x3c;" 
d="M927 1074l-625 -359l625 -355v-167l-840 481v83l840 484v-167z" />
    <glyph glyph-name="equal" unicode="=" horiz-adv-x="2100" 
d="M1053 2211l10.999 0.000976562c3.33301 0 8 -4.66699 14 -14v-960c9.33301 -10.667 14 -20.334 14 -29.001v-11c0 -8.66699 -4.66699 -18.334 -14 -29.001v-28c189.333 0 370 -79 542 -237c145.333 -160.667 218 -334 218 -520v-29c0 -269.333 -129 -489.333 -387 -660
c-133.333 -69.333 -256.666 -104 -369.999 -104h-57c-232.667 0 -437 105.333 -613 316c-100.667 140.667 -151 292.334 -151 455.001v7c0 254.667 112.333 465.334 337 632.001c140 93.333 287 140 441 140v21c-18 0 -28.667 14.333 -32 43c4.66699 24 13 36 25 36
c0 49.333 -19 94.666 -57 135.999c-10 -9.33301 -19.667 -14 -29 -14h-11c-18 0 -31 13.333 -39 40c4.66699 30.667 19 46 43 46h4c20 0 36.667 -16.667 50 -50c20.667 -13.333 35 -32.333 43 -57h3v856c0 3.33301 5 8 15 14zM1078 1093c0 -24 -4.66699 -36 -14 -36h-11
c-9.33301 0 -14.333 9.66699 -15 29c-6 0 -13 -13.333 -21 -40c5.33301 -35.333 21 -53 47 -53c24.667 0 40 16.667 46 50c0 23.333 -10.667 40 -32 50zM1110 828.001c0 -10.667 -2.33398 -21.667 -7.00098 -33l7 -3c6 14 11 21 15 21h17c5.33301 -0.666992 8 -3 8 -7v-93
c0 -4.66699 -6 -7 -18 -7v-8h64v8c-12 0 -18 2.33301 -18 7v93c0.666992 4.66699 3.33398 7 8.00098 7h17c6 0 9.66699 -6 11 -18h7v8l4 25l-18 -4h-79zM535.998 706.001l-0.000976562 -8h43v8c-9.33301 0 -14 2.33301 -14 7c6 19.333 10.667 29 14 29h25
c10 -3.33301 15 -14.333 15 -33v-3h-11v-8h57v8c-14 0 -28.333 28.667 -43 86c-3.33301 0 -6.66602 10.667 -9.99902 32h-4c-12 0 -27.667 -31 -47 -93c-6 -16.667 -14.333 -25 -25 -25zM711.997 824.001v-7c9.33301 0 14 -2.33301 14 -7v-97c0 -4.66699 -6 -7 -18 -7v-8h61
v8c-9.33301 0 -14 2.33301 -14 7v39c0.666992 4.66699 3 7 7 7h15c6.66699 0 10 -4.66699 10 -14h8v40h-8c0 -10 -3.33301 -15 -10 -15h-15c-4.66699 0 -7 2.33301 -7 7v29c0.666992 4.66699 3 7 7 7h22c1.33301 0 7.33301 -6 18 -18h3v29h-93zM815.997 763.001
l0.000976562 -4c5.33301 -40.667 25.666 -61 60.999 -61c48 0 72 20.333 72 61v4c0 38 -24 58.333 -72 61c-40.667 -8 -61 -28.333 -61 -61zM962.998 824.001l-0.000976562 -6.99902c12 -0.666992 18 -4.33398 18 -11.001v-79c0 -14 -6 -21 -18 -21v-8h50
c-14 7.33301 -21 19.333 -21 36v51c0.666992 4.66699 3 7 7 7c32 -46.667 57 -78 75 -94c4.66699 0 7 2.66699 7 8v89c0 14.667 6 22 18 22v7h-46v-7c12 0 18 -13.333 18 -40v-32h-4c-1.33301 0 -22.666 26.333 -63.999 79h-40zM1279 817.002
c9.33301 -4 14 -7.66602 14 -10.999v-93c0 -4.66699 -4.66699 -7 -14 -7v-8h61c30.667 3.33301 46 15.333 46 36c0 11.333 -8.33301 23.333 -25 36c12 3.33301 18 11.666 18 24.999c0 19.333 -16.667 29 -50 29h-43c-4.66699 -0.666992 -7 -3 -7 -7zM1390 824.003
l-0.000976562 -6.99902c16 0 31.667 -24 47 -72v-32c0 -4.66699 -5 -7 -15 -7v-8h61v8c-12 0 -18 2.33301 -18 7v32c16.667 48 33.667 72 51 72v7h-43v-7c6.66699 0 10 -2.33301 10 -7c-11.333 -28.667 -19.666 -43 -24.999 -43c-12 21.333 -18 35.666 -18 42.999v7h7v7h-57
zM869.996 813.004l14 0.000976562c21.333 0 32 -14.333 32 -43v-28c0 -22 -9.33301 -33 -28 -33h-7c-22 3.33301 -33 16.666 -33 39.999v25c0 18.667 7.33301 31.667 22 39zM1325 813.005h15c3.33301 0 7 -3.33301 11 -10v-22c-2.66699 -7.33301 -10 -11 -22 -11h-4
c-4.66699 0 -7 2.33301 -7 7v29c0.666992 4.66699 3 7 7 7zM593.996 785.005h3c4.66699 -16 7 -27 7 -33h-18l-7 4c6 19.333 11 29 15 29zM1329 763.005c19.333 0 29 -10.667 29 -32c-5.33301 -14.667 -10.333 -22 -15 -22h-14c-7.33301 2.66699 -11 10 -11 22v25
c0 4.66699 3.66699 7 11 7zM575.996 408.005l-0.000976562 -11h61c4.66699 0 7 2.33301 7 7c-14.667 3.33301 -22 7 -22 11c4.66699 31.333 10.667 47 18 47h43c6 0 13.333 -17 22 -51c-14.667 -2.66699 -22 -6 -22 -10l7 -4h83v4c-19.333 10 -29 17 -29 21l-57 169h-4
c-16.667 0 -37 -42 -61 -126c-13.333 -38 -27.666 -57 -42.999 -57h-3zM1390 537.005v-3.99902c0 -20.667 22.667 -43.334 68 -68.001c10 -10 15 -19.333 15 -28c0 -19.333 -9.66699 -29 -29 -29h-4c-18 0 -36 15.667 -54 47l-7 -4c0 -38 16.667 -57 50 -57h18
c43.333 4.66699 65 23.667 65 57c0 30 -22.667 54 -68 72c-12 9.33301 -18 20 -18 32v4c0 2.66699 6 8.66699 18 18h21c6 0 17 -12 33 -36h7v7c0 28.667 -8.33301 43 -25 43h-29c-40.667 -4.66699 -61 -22.667 -61 -54zM338.995 580.006c16.667 -4 25 -8.66699 25 -14v-147
c0 -3.33301 -8.33301 -9.33301 -25 -18l7 -4h79c4.66699 0 7 2.33301 7 7c-16.667 4.66699 -25 9.66699 -25 15v64c0.666992 4.66699 3 7 7 7h65c4.66699 -0.666992 7 -3 7 -7v-64c0 -2.66699 -7.33301 -8.66699 -22 -18l8 -4h75c4.66699 0 7 2.33301 7 7
c-16.667 6 -25 11 -25 15v147c0 7.33301 7.33301 11 22 11v10h-87v-10c14.667 0 22 -3.66699 22 -11v-54c0 -4.66699 -2.33301 -7 -7 -7h-65c-4.66699 0 -7 2.33301 -7 7v54c0 2.66699 7.33301 8.66699 22 18l-8 3h-75c-4.66699 -0.666992 -7 -3 -7 -7zM794.995 584.006v-4
c14 -9.33301 21 -15.333 21 -18v-140c0 -3.33301 -8.33301 -10.333 -25 -21v-4h82c5.33301 0 8 2.33301 8 7c-17.333 6 -26 11 -26 15v53c1.33301 5.33301 4 8 8 8h10c25.333 -48 42.333 -72 51 -72c0 -5.33301 10.667 -9 32 -11h21c5.33301 0 8 2.33301 8 7
c-22 0 -45 28.667 -69 86c22 9.33301 33 26.333 33 51c0 30.667 -26.333 46 -79 46h-58zM1006 587.006v-3c14.667 -9.33301 22 -15.333 22 -18v-147c0 -6 -9.66699 -11 -29 -15v-7h158l11 47l-8 3c-17.333 -24 -28 -36 -32 -36h-36c-12 0 -19 3.66699 -21 11v61
c0.666992 4.66699 3 7 7 7h18c16.667 0 25 -8.33301 25 -25h11v65h-11c0 -12.667 -4.66699 -21 -14 -25h-29c-4.66699 0 -7 2.33301 -7 7v54c0.666992 4.66699 3 7 7 7h32c21.333 -4 32 -14.667 32 -32h4c4.66699 0 7 2.33301 7 7c-2 16 -3 29 -3 39h-144zM1196 587.006v-3
c14.667 -9.33301 22 -15.333 22 -18v-147c0 -6 -9.66699 -11 -29 -15v-7h158l11 47l-7 3c-18 -24 -29 -36 -33 -36h-36c-12 0 -19 3.66699 -21 11v61c0.666992 4.66699 3 7 7 7h18c16.667 0 25 -8.33301 25 -25h11v65h-11c0 -12.667 -4.66699 -21 -14 -25h-29
c-4.66699 0 -7 2.33301 -7 7v54c0.666992 4.66699 3 7 7 7h32c22 -4 33 -14.667 33 -32h3c4.66699 0 7 2.33301 7 7c-2 16 -3 29 -3 39h-144zM1548 580.006c16.667 -4 25 -8.66699 25 -14v-147c0 -3.33301 -8.33301 -9.33301 -25 -18l7 -4h79c4.66699 0 7 2.33301 7 7
c-16.667 4.66699 -25 9.66699 -25 15v64c0.666992 4.66699 3 7 7 7h65c4.66699 -0.666992 7 -3 7 -7v-64c0 -2.66699 -7.33301 -8.66699 -22 -18l8 -4h75c4.66699 0 7 2.33301 7 7c-16.667 6 -25 11 -25 15v147c0 7.33301 7.33301 11 22 11v10h-87v-10
c14.667 0 22 -3.66699 22 -11v-54c0 -4.66699 -2.33301 -7 -7 -7h-65c-4.66699 0 -7 2.33301 -7 7v54c0 2.66699 7.33301 8.66699 22 18l-8 3h-75c-4.66699 -0.666992 -7 -3 -7 -7zM862.995 573.006h18c16.667 -10.667 25 -24 25 -40c-2 -26 -13 -39 -33 -39h-10
c-5.33301 0 -8 2.33301 -8 7v65c1.33301 4.66699 4 7 8 7zM657.995 533.006h7l18 -53l-7 -4h-32v4c0 7.33301 4.66699 25 14 53zM887.995 218.006l3.00098 0.000976562c16 4.66699 27 7 33 7h3c40.667 -6.66699 61 -24.667 61 -54c-2 -4 -3 -8.66699 -3 -14
c4 2 14.667 4.33301 32 7c63.333 -24 99.333 -36 108 -36c0 3.33301 8.33301 11.666 25 24.999c4.66699 0 7 -3.66699 7 -11c-24 -40 -36 -71 -36 -93h21c4.66699 6 18 37 40 93l7 4h4c4 0 7.33301 -6 10 -18c-15.333 -28 -26 -54.333 -32 -79c19.333 -6 29 -12 29 -18v-3
c0 -5.33301 -2.33301 -8 -7 -8c-8 2.66699 -17.667 4 -29 4l-4 -21v-47c0 -28.667 11 -43 33 -43h7c38 48.667 57 99 57 151c0 93.333 -53.667 161.333 -161 204c-24 4.66699 -45.667 7 -65 7c-52.667 0 -100.334 -19 -143.001 -57zM872.996 164.007l-0.000976562 -7
c0 -12 20.333 -42 61 -90l4 -18c0 -36 -26.333 -58.667 -79 -68c-7.33301 0 -17 2.33301 -29 7v-7c46.667 -90.667 111.334 -136 194.001 -136h25c47.333 0 88 15.333 122 46c-20 0 -32 22.667 -36 68c0 12.667 2.33301 36.667 7 72h-10c-14 0 -22.333 -12 -25 -36
c-26 -47.333 -51.333 -71 -76 -71h-7c-12.667 0 -21 4.66699 -25 14v11c0 40 33.333 72.333 100 97c10 30 15 49 15 57c-8 0 -41.667 14.333 -101 43h-3c-26.667 0 -40 -9.66699 -40 -29c8 -18.667 26 -28 54 -28c6 0 18 2.33301 36 7l4 -7c-10 -10 -22 -15 -36 -15
c-45.333 0 -68 17 -68 51l-18 -4h-22c-4.66699 0 -7 2.33301 -7 7v4c13.333 -2.66699 23 -4 29 -4c16.667 7.33301 25 19.333 25 36c0 22 -9.66699 37.667 -29 47h-25c-22 0 -35.333 -15.667 -40 -47zM377.995 160.007c-4.66699 0 -6.99902 2.66699 -6.99902 8v3
c0 6.66699 2.33301 14 7 22h-7c-3.33301 0 -7 -3.66699 -11 -11c0 -14 7.33301 -26 22 -36h4c18.667 0 28 14.333 28 43h7c5.33301 -0.666992 8 -3 8 -7v-7l-8 -11v-4c10 4 15 7.66699 15 11v4c0 12.667 -6 22 -18 28h-15c-4.66699 0 -10.334 -13 -17.001 -39z
M847.996 175.007c-21.333 -43.333 -32 -83.999 -32 -121.999c0 -38.667 13 -58 39 -58h15c24 0 38.333 15.667 43 47c0 14.667 -19.333 44.667 -58 90c-2 7.33301 -3 21.666 -3 42.999h-4zM1612 85.0078c0 2.66699 -1 4 -3 4v-29c12 0 27.333 -8.33301 46 -25l-3 -7h7
c9.33301 18 14 28.667 14 32l-7 -4c-26 12.667 -40.333 22.334 -43 29.001c0 4 5 8.66699 15 14c26 -10.667 39 -21.334 39 -32.001c2.66699 0 10 10.667 22 32h-4l-7 -3c-22 9.33301 -35.333 17.666 -40 24.999v7c0.666992 4.66699 3 7 7 7h11
c22 -9.33301 33 -18.666 33 -27.999c5.33301 0 12.333 10.667 21 32h-4l-7 -4c-24.667 14.667 -40 22 -46 22h-8c-7.33301 0 -13 -13.333 -17 -40c-10.667 0 -18 -10.667 -22 -32h-4zM392.996 114.008c4 -22 14.668 -33 32.001 -33h4v4c-12 0 -18 8.33301 -18 25v4
c0 3.33301 4.66699 8 14 14h7c10 -18 15 -28.667 15 -32h7c3.33301 0 6.66602 3.66699 9.99902 11v10c0 14 -8.33301 25 -25 33h-10c-24 -4.66699 -36 -16.667 -36 -36zM442.997 135.008h4.00195c3.33301 0 6.66602 -3.33301 9.99902 -10v-4c0 -4.66699 -2.33301 -7 -7 -7
c-4.66699 0.666992 -9.33398 6.66699 -14.001 18zM428.999 56.0078c0 -21.333 9.33301 -32.001 28 -32.001h7v4c-11.333 0 -17 8.33301 -17 25c4 10.667 8.66699 16.667 14 18c5.33301 0 12.333 -11 21 -33h8c6.66699 2.66699 10 10 10 22c0 10.667 -7 20.334 -21 29.001
h-18c-21.333 -3.33301 -32 -14.333 -32 -33zM478.999 78.0068h2.99902c4 0 7.66699 -3.66699 11 -11c0 -3.33301 -3.66699 -7 -11 -11c-5.33301 0 -8.66602 6 -9.99902 18zM546.998 71.0068c-2 -10 -28.332 -31.667 -78.999 -65c-4.66699 2.66699 -8.33398 4 -11.001 4
c10.667 -18.667 19 -29.667 25 -33c0 14 13.333 27.333 40 40c28 24 44.667 36 50 36c0 3.33301 -7 9.33301 -21 18h-4zM1562 6.00684l0.000976562 -14.001c11.333 -16.667 23.333 -25 36 -25c24 6 36 19 36 39v14c-12.667 17.333 -23.334 26 -32.001 26
c-26.667 -5.33301 -40 -18.666 -40 -39.999zM1017 -43.9941c0 -12 7 -18 21 -18c18.667 0 38 28.667 58 86h-7c-31.333 0 -55.333 -22.667 -72 -68zM1584 28.0059c12.667 0 25.667 -8.33301 39 -25v-11c0 -4.66699 -3.66699 -7 -11 -7c-26 5.33301 -39 17 -39 35
c0 5.33301 3.66699 8 11 8zM525 3.00586l-3.00098 -7.99902v-3l14 -4c4.66699 2.66699 8.33398 4 11.001 4l7 -11c0 -4 -4.66699 -8.66699 -14 -14h-4c-12.667 9.33301 -23.334 14 -32.001 14h-4c-3.33301 0 -6.66602 -4.66699 -9.99902 -14l35 -47h11l-3 7v4
c24 21.333 36 35.666 36 42.999c-9.33301 19.333 -24 29 -44 29zM1519 -47.9932v-3c0 -13.333 7.33301 -24.333 22 -33h25c3.33301 0 10.333 7.33301 21 22v21h-3c0 -14.667 -9.66699 -23 -29 -25c-10.667 4 -19 11.333 -25 22v11c0 6.66699 8.33301 10 25 10v11
c-4.66699 0 -7 1.33301 -7 4c-19.333 -10 -29 -23.333 -29 -40zM517.999 -32.9932l11 -0.000976562v-8c0 -3.33301 -3.66699 -6.66602 -11 -9.99902h-3c-4.66699 0 -7 2.33301 -7 7c0 3.33301 3.33301 7 10 11zM636.999 -40.9941c0 -10 -21.667 -36.0029 -65 -78.0029h-3
c0 -3.33301 7 -10.666 21 -21.999h4c0 12 9.33301 26.333 28 43h4c4 0 8.66699 -4.66699 14 -14c-16 -24 -29 -36 -39 -36c5.33301 -9.33301 14.666 -17.666 27.999 -24.999c0 12.667 9.66699 29.334 29 50.001v11c0 2.66699 -9.66699 11 -29 25c2.66699 0 14.667 13 36 39
v4c-7.33301 2 -16.666 3 -27.999 3zM1426 -50.9971c0 -6 -3.66699 -13.332 -11 -21.999v-3c12 0 36 -24 72 -72v-4l-4 -7h4c19.333 15.333 29 23.666 29 24.999v4l-8 -4h-3l-76 83h-3zM542.999 -79.9961c0 -2.66699 -1.00098 -6.33301 -3.00098 -11
c2 -9.33301 6.66699 -14 14 -14c4.66699 2.66699 8.33398 4 11.001 4v14c0 4.66699 -2.33301 7 -7 7h-15zM1394 -97.9951v-7c0.666992 -4.66699 3 -7 7 -7h7c4.66699 0 7 2.33301 7 7v7c0 4.66699 -2.33301 7 -7 7h-7c-4.66699 -0.666992 -7 -3 -7 -7zM1516 -104.995
v-14.001c2 0 5.33301 -1.33301 10 -4c7.33301 2 12.333 6.66699 15 14c-2.66699 4.66699 -4 8.33398 -4 11.001h-14c-4.66699 -0.666992 -7 -3 -7 -7zM1426 -115.996l-13.999 -24.999c23.333 -8.66699 35 -24.334 35 -47.001h4c19.333 14 29 22.667 29 26h-4
c-4.66699 -2.66699 -8.33398 -4 -11.001 -4c-6.66699 14 -19.667 30.667 -39 50zM661.999 -144.995l7.00195 -2.99902l25 3c2.66699 -4 4 -7.33301 4 -10c-4 -10 -7.66699 -15 -11 -15c-8.66699 5.33301 -18.334 8 -29.001 8h-7c-3.33301 0 -7 -5 -11 -15
c0 -10 11 -17 33 -21c0 -12 7 -18 21 -18h7v3c-7.33301 0 -11 3.66699 -11 11c17.333 22 26 37.667 26 47c-6.66699 12 -16.334 18 -29.001 18h-18c-4.66699 -0.666992 -7 -3.33398 -7 -8.00098zM1358 -187.994l-0.000976562 -3.00098h7
c4.66699 0 8.33398 9.66699 11.001 29h7c3.33301 0 7 -3.66699 11 -11v-7c-12 -12.667 -18 -23.667 -18 -33v-3c0 -5.33301 6 -9 18 -11c13.333 12 27.666 21.667 42.999 29c2 4.66699 3 8 3 10l-7 -3h-4c-17.333 28.667 -31.666 43 -42.999 43
c-18.667 -9.33301 -28 -22.666 -28 -39.999zM730 -169.995c-4 -33.333 -14.667 -50 -32 -50v-3c23.333 -12 36.333 -18 39 -18c-4.66699 5.33301 -7 10 -7 14c10 21.333 18.333 33.333 25 36c4.66699 0 7 -3.66699 7 -11h11c4.66699 0 7 2.33301 7 7v4l-25 14
c2.66699 0 4 1.33301 4 4c-6 0 -15.667 1 -29 3zM673 -169.995c3.33301 0 6.66699 -3.33203 10 -9.99902l-14 -11c-4.66699 0 -7 2.33301 -7 7v4c0 3.33301 3.66699 6.66602 11 9.99902zM1261 -219.994c-4.66699 2.66699 -8.33105 4 -10.998 4
c0 -11.333 -24 -18.666 -72 -21.999c-9.33301 -10 -14 -19.667 -14 -29c4 -11.333 10 -17 18 -17v-11c0 -4.66699 -2.33301 -7 -7 -7l14 -18c-4.66699 -0.666992 -7 -3 -7 -7v-11c2.66699 -7.33301 9.66699 -11 21 -11c34 4 51 17 51 39c-2 12 -5.66699 18 -11 18h-4
c-12 0 -26.333 -2.33301 -43 -7l-3 7c24 10.667 36 22.667 36 36c-2.66699 4.66699 -4 8.33398 -4 11.001c8 4.66699 14 7 18 7c12 -22 18 -36.333 18 -43c-2.66699 -4.66699 -4 -8.33398 -4 -11.001c18 10 30 15 36 15v3c-13.333 0 -23 15.667 -29 47l11 7h4
c6 0 14.333 -15.667 25 -47c-2.66699 0 -4 -1 -4 -3h4c13.333 7.33301 23 11 29 11v3c-10.667 0 -20.334 15.667 -29.001 47l11 7h3c7.33301 0 15.666 -14.333 24.999 -43c-2 -4.66699 -3 -8.33398 -3 -11.001c16.667 10 28.667 15 36 15v7l-8 -4
c-19.333 36 -32.333 54 -39 54c-25.333 -16.667 -44.333 -25 -57 -25c0 -3.33301 -3.66699 -7 -11 -11zM1394 -187.994h10l4 -18l-7 -3h-4c-4.66699 0 -7 3.66699 -7 11c2.66699 4.66699 4 8 4 10zM960.004 -205.994c2 -6.66699 4.33203 -10.001 6.99902 -10.001
c-4 -64.667 -11.333 -97 -22 -97v-4c26.667 0 40 -1 40 -3v3l-8 11c2 31.333 7 47 15 47c9.33301 -2.66699 14 -7.66699 14 -15c0 -21.333 -3.66699 -36.666 -11 -45.999c16 0 28 -1.33301 36 -4v4l-7 10v4l4 43l-15 11h-10l-18 -4v22l3 36
c-7.33301 0 -16.666 -2.66699 -27.999 -8zM762.003 -237.995c3.33301 -21.333 14.334 -32 33.001 -32h3l18 3v8c-4.66699 -2.66699 -8.33398 -4 -11.001 -4c-10 3.33301 -17 9.33301 -21 18v14c0.666992 5.33301 3 8 7 8c16.667 -10 28.667 -15 36 -15l3 7v11
c0 3.33301 -6 9.33301 -18 18h-17c-18.667 0 -29.667 -12 -33 -36zM809.004 -205.995l6.99902 -10v-7h-14c-4.66699 0 -7 2.33301 -7 7v7c0.666992 0 5.33398 1 14.001 3zM827.003 -262.995c0 -18 12 -28.667 36 -32l21 7v7l-7 -3h-4c-12.667 0 -21 4.66699 -25 14v14
c0.666992 4.66699 3 7 7 7c7.33301 -4.66699 19.333 -7 36 -7l4 7c-5.33301 17.333 -16 26 -32 26c-19.333 0 -31.333 -13.333 -36 -40zM1042 -291.995c3.33301 -35.333 21.333 -53.001 54 -53.001c6 0 18 2.33301 36 7v3l-25 -3h-4c-31.333 4 -47 18.333 -47 43v3
c4 38.667 22 58 54 58h4c24 -4.66699 36 -16.667 36 -36v-4c-4 -21.333 -13.667 -32 -29 -32l-4 7c10 24.667 15 40.334 15 47.001h-7c-36 -14.667 -54 -34 -54 -58c4.66699 -2 8 -3 10 -3c2.66699 0 10 4.66699 22 14h4v-11h14c15.333 0 27.333 8.66699 36 26v17
c0 22 -15.667 35.333 -47 40c-45.333 -7.33301 -68 -29 -68 -65zM863.003 -230.996h7c4.66699 -0.666992 7 -3 7 -7v-3c0 -5.33301 -2.33301 -8 -7 -8c-10 4 -15 7.66699 -15 11c1.33301 4.66699 4 7 8 7zM899.003 -258.996c0 -2.66699 7 -12.333 21 -29v-7
c0 -4.66699 -2.33301 -7 -7 -7h-4c-9.33301 4.66699 -14 11.667 -14 21h-4v-18c0 -7.33301 11 -11 33 -11c12 3.33301 18 12 18 26c0 2.66699 -7.33301 12 -22 28v4c0.666992 4.66699 3 7 7 7c10 -4.66699 15 -10.667 15 -18h3v14c0 5.33301 -2.33301 8 -7 8h-18
c-12.667 0 -19.667 -6 -21 -18zM1193 -240.995h3c6 0 11 -11 15 -33l-11 -7c-4 0 -8.66699 4.66699 -14 14v18c0.666992 5.33301 3 8 7 8zM1110 -262.995l7 -4c-8.66699 -21.333 -17 -33 -25 -35h-3v3c0 14.667 7 26.667 21 36zM1225 -309.995h4.00098
c3.33301 0 6.66602 -3.33301 9.99902 -10v-4c0 -4 -4.66699 -8.66699 -14 -14h-14c-4 0 -9 4.66699 -15 14v4c2 6.66699 11.667 10 29 10z" />
    <glyph glyph-name="greater" unicode="&#x3e;" 
d="M87 1241l840 -484v-83l-840 -481v167l625 355l-625 359v167z" />
    <glyph glyph-name="question" unicode="?" horiz-adv-x="1215" 
d="M630 2227l7.99805 0.00488281c3.33301 0 7 -3.66699 11 -11v-1044c7.33301 -7.33301 11 -14.333 11 -21v-9c0 -6.66699 -3.66699 -14 -11 -22v-2c62.667 -6.66699 125.667 -29.667 189 -69c93.333 -72.667 140 -170.334 140 -293.001
c0 -90.667 -49.333 -187.334 -148 -290.001c-40 -52 -60 -106 -60 -162l8 -52c0 -26 -28.333 -44 -85 -54v-113h3c58.667 14.667 92.334 22 101.001 22c25.333 0 42 -21 50 -63c25.333 -98.667 38 -153.334 38 -164.001c0 -29.333 -33.667 -48.333 -101 -57
c-56 -16.667 -101.667 -27.667 -137 -33c-25.333 0 -45.666 44.667 -60.999 134c-14 48 -21 80 -21 96c0 25.333 25.333 42.666 76 51.999c0 4.66699 4.66699 10 14 16c0 24 -8.33301 36 -25 36c-23.333 0 -35 10 -35 30v5c0 5.33301 1.66699 11 5 17h-3
c-1.33301 0 -6.66602 -1 -15.999 -3c-21.333 0 -36 13.667 -44 41c-7.33301 36.667 -11 63 -11 79v39c0 86.667 41 176 123 268c34.667 50 52 93 52 129c0 64.667 -25.333 116.667 -76 156c-22.667 10.667 -43.667 16 -63 16c-92 0 -153.333 -41 -184 -123
c-3.33301 -17.333 -6 -51 -8 -101c2 -6.66699 3 -15 3 -25c0 -27.333 -37.333 -46.333 -112 -57c-53.333 -16.667 -90 -25 -110 -25c-27.333 0 -41 33.667 -41 101c0 154 61 275.667 183 365c103.333 56 204 84 302 84h11c-7.33301 8 -11 17.333 -11 28
c3.33301 18 9.66602 27 18.999 27c0 38 -14.667 72.667 -44 104c-8 -7.33301 -15.333 -11 -22 -11h-8c-14 0 -24 10 -30 30c3.33301 24 14.333 36 33 36h2c15.333 0 28.333 -12.667 39 -38c15.333 -10.667 26.333 -25.334 33 -44.001h2v964c0 3.33301 3.66699 7 11 11z
M588.998 1019c0 -26 16.333 -41.332 49 -45.999c28 5.33301 42 21.666 42 48.999c-7.33301 25.333 -17.666 38 -30.999 38v-14c0 -2.66699 -3.66699 -6 -11 -10h-8c-2.66699 0 -6.33398 3.33301 -11.001 10v14h-2c-18.667 -10 -28 -23.667 -28 -41zM629.998 302.006
c8 -27.333 19.001 -41.001 33.001 -41.001v16c0 2.66699 3.66699 6.33398 11 11.001h8c3.33301 0 7 -3.66699 11 -11v-14h3c16.667 10 25 23 25 39c-4.66699 29.333 -18.334 44 -41.001 44h-11c-19.333 0 -32.333 -14.667 -39 -44zM646.999 187.005
c8.66699 -10.667 13 -20 13 -28v-5l-2 -14l5 -3v52zM692.999 20.0049l-0.000976562 -30c0 -2.66699 -2.66699 -5.66699 -8 -9h-11c-7.33301 0 -11 11 -11 33c-9.33301 -4.66699 -15.666 -13.667 -18.999 -27c4.66699 -24 21 -36 49 -36c29.333 4.66699 44 16.667 44 36
c-6 22 -18 33 -36 33h-8z" />
    <glyph glyph-name="at" unicode="@" horiz-adv-x="1567" 
d="M785 2220h8.99609c2.66699 0 6.33398 -3.66699 11.001 -11v-923c7.33301 -8 11 -15.333 11 -22v-9c0 -6.66699 -3.66699 -14 -11 -22v-31c0.666992 -3.33301 2.33398 -5 5.00098 -5c176.667 0 323.667 -65 441 -195c66.667 -91.333 100 -158.333 100 -201
c11.333 -8.66699 19.666 -57 24.999 -145v-3c0 -93.333 -19.333 -176 -58 -248c-52.667 -103.333 -120.667 -173 -204 -209c-24 -9.33301 -45.333 -14 -64 -14h-8c-12 0 -40 10.333 -84 31h-8c-12.667 0 -29.667 -19.667 -51 -59c-58 -57.333 -115.333 -86 -172 -86h-23
c-104.667 0 -191 51 -259 153c-33.333 56.667 -52.666 124.667 -57.999 204c0 114.667 19.333 203.667 58 267c77.333 119.333 173 179 287 179c32.667 0 73.667 -10.333 123 -31h5c14 0 25.333 19.667 34 59c0 15.333 32.333 29 97 41h17c18 0 29.333 -57.333 34 -172
l36 -365c12 -22.667 24 -34 36 -34h11c33.333 0 65 30.667 95 92c18.667 42.667 28 83.667 28 123c0 190 -79 331 -237 423c-58.667 32 -124.667 48 -198 48h-28c-130.667 0 -257 -49.333 -379 -148c-102 -104.667 -153 -214.334 -153 -329.001v-106
c13.333 -92.667 37.333 -169.667 72 -231c32 -60 79.333 -117.667 142 -173c98 -66.667 195.667 -100 293 -100c135.333 0 260 38 374 114c76 61.333 128 117 156 167c28.667 35.333 68.334 53 119.001 53c10 0 16.667 -6.33301 20 -19
c-9.33301 -67.333 -63.333 -156.666 -162 -267.999c-115.333 -100 -236 -160.333 -362 -181c-16 -4 -51.333 -8.66699 -106 -14c-195.333 0 -356 54.667 -482 164c-78 71.333 -129 136.666 -153 195.999c-56 96.667 -84 207 -84 331c0 176.667 68.667 337.334 206 482.001
c100.667 92.667 210.334 154 329.001 184c62 15.333 115 23 159 23v28c-14 0 -22.333 11 -25 33c4 18.667 10.333 28 19 28c0 38 -14.667 73.333 -44 106c-8 -7.33301 -15.333 -11 -22 -11h-9c-14 0 -24 10 -30 30c3.33301 24.667 14.333 37 33 37h3
c15.333 0 28.333 -13.333 39 -40c16 -10 27 -24.667 33 -44h3v842c0 2.66699 3.66699 6.33398 11 11zM742.996 1130c0 -26.667 17.001 -42.333 51.001 -47c27.333 5.33301 41 22 41 50c-6.66699 26 -16.667 39 -30 39v-14c0 -3.33301 -3.66699 -7 -11 -11h-9
c-2.66699 0 -6.33398 3.66699 -11.001 11v14h-3c-18.667 -10.667 -28 -24.667 -28 -42zM567.997 453.001c0 -48.667 15.666 -97 46.999 -145c32.667 -35.333 65.334 -53 98.001 -53h30c58 0 108.333 43.667 151 131c11.333 33.333 17 68.666 17 105.999v22
c0 96 -42 158.333 -126 187c-18.667 2 -33.334 3 -44.001 3c-35.333 0 -73.666 -23.333 -114.999 -70c-38.667 -51.333 -58 -111.666 -58 -180.999z" />
    <glyph glyph-name="A" unicode="A" horiz-adv-x="1184" 
d="M582 2196l6.99707 0.000976562c2.66699 0 6.33398 -3.33301 11.001 -10v-916c6.66699 -7.33301 10 -14.333 10 -21v-8c0 -4.66699 -1.66699 -9.66699 -5 -15h80c32 0 55.667 -32.333 71 -97l371 -994c13.333 -25.333 25.333 -60.666 36 -105.999
c0 -16.667 -13.667 -26.334 -41 -29.001c-17.333 0 -60.666 1 -129.999 3c-26 -2 -43.333 -3 -52 -3c-33.333 0 -57.666 34.667 -72.999 104c-34.667 103.333 -57 156 -67 158c-8 8.66699 -41 13 -99 13h-296c-39.333 0 -63.666 -15.667 -72.999 -47
c-44 -135.333 -72.333 -208 -85 -218c-18.667 -6.66699 -36 -10 -52 -10h-68c-8 0 -16.667 1 -26 3c-6 -2 -13.667 -3 -23 -3h-18c-40 0 -60 8.66699 -60 26v10c0 13.333 77 218.666 231 615.999l205 545c14.667 19.333 32 29 52 29h65c-3.33301 6 -5 12.667 -5 20
c3.33301 17.333 9.33301 26 18 26c0 36.667 -14 69.667 -42 99c-2.66699 -6.66699 -8.66699 -10 -18 -10h-15c-14 7.33301 -21 16.666 -21 27.999v5c0 14.667 9.66699 24.334 29 29.001h5c16 0 26.333 -11.333 31 -34c9.33301 0 20.666 -14.667 33.999 -44h2v841
c0 2.66699 3.66699 6 11 10zM536.997 1098c5.33301 -27.333 21 -41 47 -41c20 0 33 13.667 39 41c0 16 -7.66699 29 -23 39c0 -12 -3.66699 -18 -11 -18h-7c-4.66699 0 -9 7 -13 21c-21.333 -10 -32 -24 -32 -42zM575.997 883.001c-16 -10 -29.667 -38.667 -41 -86
c-67.333 -179.333 -101 -276.333 -101 -291c0 -20.667 16.333 -31 49 -31c10 -1.33301 33.333 -2 70 -2h91c52 0 78 6.66699 78 20v11c-8.66699 45.333 -38 136 -88 272c-20.667 71.333 -40 107 -58 107z" />
    <glyph glyph-name="B" unicode="B" horiz-adv-x="1143" 
d="M333 2191l7.99805 0.000976562c2.66699 0 6 -3.66699 10 -11v-975c7.33301 -7.33301 11 -14.333 11 -21v-8c0 -6 -2.66699 -12 -8 -18v-3h3c300.667 -50.667 485.334 -86 554.001 -106c38.667 -14 83.667 -38.333 135 -73c44.667 -44.667 70 -87 76 -127
c7.33301 -33.333 11 -53.666 11 -60.999c0 -142.667 -55.333 -239.334 -166 -290.001c-10.667 -8 -16 -16 -16 -24c0 -12.667 18.333 -33 55 -61c54.667 -59.333 82 -127 82 -203v-11c0 -125.333 -48.333 -224 -145 -296c-74 -42 -146.333 -63 -217 -63h-39
c-35.333 0 -59.333 2.66699 -72 8c-3.33301 -2 -6 -3 -8 -3c-356.667 65.333 -551 101.666 -583 108.999c-16 8 -24 20.333 -24 37v2c0 9.33301 69.667 395 209 1157c10 16 23 24 39 24c11.333 0 29 -2.66699 53 -8l-3 13v3c4 17.333 10.333 26 19 26
c0 37.333 -14 70.666 -42 99.999c-3.33301 -6.66699 -9.66602 -10 -18.999 -10h-16c-14 7.33301 -21 17 -21 29v5c0 14.667 9.66699 24.334 29 29.001h6c16 0 26.333 -11.333 31 -34c10 0 21.667 -15 35 -45h2v898c0 2.66699 3.66699 6.33398 11 11zM287.998 1031
c5.33301 -28 21 -42 47 -42c20.667 0 34 14 40 42c0 16 -8 29.333 -24 40c0 -12.667 -3.33301 -19 -10 -19h-8c-4.66699 0 -9 7 -13 21c-21.333 -9.33301 -32 -23.333 -32 -42zM400.998 674.001c0 -21.333 8.00098 -35.333 24.001 -42c162 -33.333 259 -50 291 -50
c49.333 0 89.666 22 120.999 66c14 32.667 21 62.667 21 90c0 78 -61.667 127.333 -185 148l-190 31c-36.667 0 -55 -29 -55 -87c-18 -78.667 -27 -130.667 -27 -156zM305.999 146.001c0 -29.333 56.332 -49.333 168.999 -60c68 -16 120 -24 156 -24h34
c76 0 125.333 37.667 148 113c4 16.667 6 30 6 40v21c0 72.667 -38 123 -114 151c-21.333 8.66699 -120.666 28.667 -297.999 60l-6 -2l-10 2c-25.333 0 -41.333 -23.667 -48 -71c-24.667 -139.333 -37 -216 -37 -230z" />
    <glyph glyph-name="C" unicode="C" horiz-adv-x="1275" 
d="M590 2203l7.99707 -0.000976562c2.66699 0 6.33398 -3.66699 11.001 -11v-937c6.66699 -7.33301 10 -14.333 10 -21v-9c0 -6 -3.33301 -13 -10 -21v-19c44.667 2 68 3.66699 70 5c166.667 0 307.334 -73 422.001 -219c32.667 -56 49 -90.333 49 -103v-8
c0 -27.333 -74 -50 -222 -68h-3c-20.667 0 -41.334 19 -62.001 57c-60 66.667 -136.667 100 -230 100c-95.333 0 -178.333 -42.333 -249 -127c-45.333 -60 -68 -143 -68 -249v-16c0 -4 1 -7.66699 3 -11l-3 -6c10 -90 28 -164 54 -222
c22 -53.333 58.333 -104.666 109 -153.999c52 -50.667 126.667 -76 224 -76c56.667 0 117.334 21 182.001 63c66.667 64.667 100 137.667 100 219c0 48.667 17 73 51 73c108.667 25.333 171 38 187 38c20 -6 30 -23.333 30 -52v-46c0 -143.333 -54 -268.666 -162 -375.999
c-126 -104.667 -267 -157 -423 -157c-198 0 -358.667 79.333 -482 238c-50.667 68.667 -92 160 -124 274c-14.667 74 -22 132.667 -22 176v32c0 187.333 67.667 341.666 203 462.999c82 70 172.333 115.333 271 136c30.667 6.66699 52.334 10 65.001 10v19
c-14 0 -22.333 11 -25 33c4 18 10.333 27 19 27c0 38 -14.333 72.333 -43 103c-2.66699 -7.33301 -9 -11 -19 -11h-16c-14.667 8 -22 18 -22 30v5c0 14.667 10 24.667 30 30h5c16.667 0 27.667 -11.667 33 -35c10 0 21.667 -15.333 35 -46h3v858
c0 2.66699 3.66699 6.33398 11 11zM548.997 1077c5.33301 -29.333 21.667 -44 49 -44c20.667 0 34 14.667 40 44c0 16 -8 29.333 -24 40h-5c0 -12.667 -3.66699 -19 -11 -19h-8c-4 0 -8.66699 6.33301 -14 19c-18 -10 -27 -23.333 -27 -40z" />
    <glyph glyph-name="D" unicode="D" horiz-adv-x="1205" 
d="M292 2207l7.99902 -0.00195312c2.66699 0 6.33398 -3.66699 11.001 -11v-939c7.33301 -8 11 -15.333 11 -22v-8c0 -6 -3.66699 -13 -11 -21v-13c262.667 -39.333 417.334 -64.333 464.001 -75l80 -27c56.667 -18.667 121.667 -64 195 -136
c38 -47.333 67.333 -94.333 88 -141c28.667 -91.333 43 -158 43 -200v-22c0 -275.333 -84.667 -480.666 -254 -615.999c-90 -64 -196.667 -96 -320 -96c-59.333 3.33301 -140.333 14 -243 32c-220 32.667 -343.667 54 -371 64c-8.66699 10 -13 19 -13 27v10
c0 9.33301 15 111 45 305c85.333 553.333 130.666 842.333 135.999 867c11.333 16 25.666 24 42.999 24l75 -11h2v3c-13.333 0 -21.333 10.667 -24 32c4 17.333 10.333 26 19 26c0 38 -14.333 72 -43 102c-2.66699 -7.33301 -8.66699 -11 -18 -11h-16
c-14.667 8 -22 17.667 -22 29v6c0 14.667 10 24.334 30 29.001h5c16.667 0 27.334 -11.667 32.001 -35c10 0 21.667 -15 35 -45h2v862c0 2.66699 3.66699 6.33398 11 11zM251.999 1089c5.33301 -28.667 21.334 -43 48.001 -43c20.667 0 34 14.333 40 43
c0 16 -8 29.333 -24 40h-5v-16c0 -3.33301 -3.66699 -7 -11 -11h-8c-2.66699 0 -6.33398 3.66699 -11.001 11v16h-2c-18 -10 -27 -23.333 -27 -40zM290 191.998l-3.00098 0.000976562c0 -25.333 23 -40.333 69 -45c126.667 -20 203.334 -30 230.001 -30
c130 0 224 75.667 282 227c23.333 68 35 151.667 35 251c0 88.667 -33 167 -99 235c-59.333 42.667 -101 64 -125 64c-20 12.667 -99 27 -237 43h-8c-26.667 0 -42 -25 -46 -75c-65.333 -414.667 -98 -633.334 -98 -656.001v-14z" />
    <glyph glyph-name="E" unicode="E" horiz-adv-x="1065" 
d="M279 2202l6.99707 -0.000976562c2.66699 0 6.33398 -3.33301 11.001 -10v-906c6.66699 -7.33301 10 -14 10 -20v-8c0 -6 -3.33301 -12.667 -10 -20v-23h2c464.667 -69.333 711.334 -109 740.001 -119c8.66699 -9.33301 13 -19.666 13 -30.999
c-8 -118 -25.667 -177 -53 -177h-5c-7.33301 0 -188.333 27 -543 81h-17c-22.667 0 -36.334 -15.333 -41.001 -46c-15.333 -94.667 -23 -148.667 -23 -162v-5c0 -26 21.333 -41.333 64 -46c280 -40 438.667 -65.333 476 -76c12 -7.33301 18 -19 18 -35
c-6 -106.667 -23.667 -160 -53 -160h-8l-492 76c-37.333 0 -56 -25.333 -56 -76c-16.667 -92 -25 -150.333 -25 -175v-5c5.33301 -28.667 35.666 -43 90.999 -43c16 -3.33301 183.333 -29.666 502 -78.999c18.667 -9.33301 28 -20 28 -32v-8
c-9.33301 -113.333 -22.666 -170 -39.999 -170c-6 -3.33301 -11.333 -5 -16 -5c-527.333 78 -807.666 122 -840.999 132c-12 11.333 -18 23 -18 35l172 1113c10 17.333 22.667 26 38 26c10.667 0 30.334 -2.66699 59.001 -8v13c-13.333 0 -21 10 -23 30
c3.33301 16.667 9.33301 25 18 25c0 36 -13.667 68.333 -41 97c-2.66699 -6.66699 -8.66699 -10 -18 -10h-15c-13.333 7.33301 -20 16.666 -20 27.999v5c0 13.333 9.33301 22.333 28 27h5c15.333 0 25.333 -10.667 30 -32c9.33301 0 20.333 -14.667 33 -44h3v833
c0 2.66699 3.33301 6 10 10zM240.997 1119c5.33301 -27.333 20.333 -41.001 45 -41.001c20 0 32.667 13.667 38 41c0 14.667 -7.33301 27.334 -22 38.001h-5c0 -12 -3.66699 -18 -11 -18h-7c-4 0 -8.33301 6 -13 18c-16.667 -10 -25 -22.667 -25 -38z" />
    <glyph glyph-name="F" unicode="F" horiz-adv-x="874" 
d="M404 2224l8.00293 -0.000976562c2.66699 0 6 -3.66699 10 -11v-931c7.33301 -8 11 -15 11 -21v-8c0 -6.66699 -3.66699 -13.667 -11 -21v-16c212.667 48.667 326.334 73 341.001 73c26 0 45.333 -46.333 58 -139c5.33301 -8.66699 8 -20.667 8 -36
c-2.66699 -30 -14.334 -45 -35.001 -45l-275 -65c-166 -32 -249 -55 -249 -69c-3.33301 -11.333 -5 -19 -5 -23v-5c22.667 -121.333 41 -195 55 -221c7.33301 -6.66699 16 -10 26 -10h8c28 3.33301 165.333 33 412 89c3.33301 2 12.666 3.66699 27.999 5
c27.333 0 45 -30.667 53 -92c8.66699 -35.333 13 -57 13 -65v-13c0 -26.667 -43 -45 -129 -55c-166 -38.667 -278.667 -66 -338 -82c-12 -9.33301 -18 -20.666 -18 -33.999v-5c0 -6 31.333 -149.333 94 -430v-3c0 -30 -39.333 -49 -118 -57
c-36.667 -10.667 -72.334 -18.667 -107.001 -24c-26.667 0 -43.334 29 -50.001 87c-162.667 706.667 -244 1066.67 -244 1080v3c0 26 40.333 44.333 121 55c22 6.66699 129.333 31 322 73v18c-13.333 0 -21 10.667 -23 32c3.33301 17.333 9.33301 26 18 26
c0 37.333 -14 70.666 -42 99.999c-2.66699 -7.33301 -8.66699 -11 -18 -11h-16c-14 8 -21 17.667 -21 29v5c0 14.667 9.66699 24.334 29 29.001h5c16 0 26.333 -11.333 31 -34c10 0 21.667 -14.667 35 -44h2v855c0 2.66699 3.66699 6.33398 11 11zM364.003 1108
c5.33301 -27.333 21.333 -41 48 -41c20 0 33 13.667 39 41c0 16 -8 29.333 -24 40h-5c0 -12.667 -3.33301 -19 -10 -19h-8c-4 0 -8.33301 6.33301 -13 19c-18 -10 -27 -23.333 -27 -40z" />
    <glyph glyph-name="G" unicode="G" horiz-adv-x="1271" 
d="M618 2205l8.00195 0.000976562c2.66699 0 6 -3.33301 10 -10v-879c7.33301 -7.33301 11 -14.333 11 -21v-8c0 -6.66699 -3.66699 -13.667 -11 -21v-26h3c84 0 175.333 -34 274 -102c68 -60 112.333 -116.333 133 -169l8 -26c0 -26 -41 -44.333 -123 -55
c-28.667 -8.66699 -59 -15.667 -91 -21c-20 0 -41.667 20 -65 60c-55.333 57.333 -118 86 -188 86c-112 0 -202.333 -48.667 -271 -146c-33.333 -53.333 -50 -126.333 -50 -219c5.33301 -109.333 30.666 -206 75.999 -290c46 -76 98 -127.333 156 -154
c44 -15.333 88.333 -23 133 -23c47.333 3.33301 89 12 125 26c75.333 28.667 125 71.334 149 128.001c17.333 41.333 26 76 26 104v13c0 34.667 -11.333 52 -34 52c-10 0 -73.333 -13 -190 -39h-31c-15.333 10 -27.666 38 -36.999 84c-6.66699 40 -10 63.333 -10 70
c0 28.667 31 47 93 55c229.333 54 353.666 81 372.999 81c25.333 0 43.666 -42.667 54.999 -128c71.333 -302 107 -463 107 -483v-2c0 -28 -44.333 -46.333 -133 -55c-20 0 -40.667 24.333 -62 73c-8 8.66699 -16 13 -24 13h-5c-5.33301 0 -26.333 -25.333 -63 -76
c-49.333 -50 -95.333 -83 -138 -99c-40 -21.333 -106 -36 -198 -44h-52c-149.333 0 -281.666 60 -396.999 180c-60 68 -100.667 132.333 -122 193c-16 35.333 -30 77 -42 125c-10.667 46.667 -17.667 97 -21 151v42c0 228 100 401 300 519c49.333 28 115.333 50.667 198 68
c45.333 5.33301 82 8.66602 110 9.99902v19c-13.333 0 -21.333 10.333 -24 31c3.33301 17.333 9.66602 26 18.999 26c0 36.667 -14 69.667 -42 99c-2.66699 -6.66699 -8.66699 -10 -18 -10h-16c-14 7.33301 -21 16.666 -21 27.999v6c0 14 9.66699 23.333 29 28h5
c16 0 26.333 -11.333 31 -34c10 0 21.333 -14.667 34 -44h3v804c0 2.66699 3.33301 6 10 10zM579.002 1143c5.33301 -27.333 21 -41 47 -41c20 0 33 13.667 39 41c0 16 -7.66699 29 -23 39h-6c0 -12 -3.33301 -18 -10 -18h-8c-4 0 -8.33301 6 -13 18
c-17.333 -9.33301 -26 -22.333 -26 -39z" />
    <glyph glyph-name="H" unicode="H" horiz-adv-x="1155" 
d="M204 2219h7.99512c2.66699 0 6.33398 -3.66699 11.001 -11v-1003c6.66699 -7.33301 10 -14.333 10 -21v-9c0 -6 -3.33301 -13 -10 -21v-24c80.667 0 121 -12.667 121 -38c2 0 3 -2.66699 3 -8c-7.33301 -188.667 -14.666 -320.667 -21.999 -396c0 -36 18 -54 54 -54
c230 -14 370.667 -21 422 -21c29.333 0 44 30.333 44 91c8.66699 246 16.667 369 24 369c8.66699 12.667 24 19 46 19h53l19 -3v14c-13.333 0 -21.333 10.667 -24 32c3.33301 18 9.66602 27 18.999 27c0 37.333 -14.333 71.333 -43 102c-8 -6.66699 -15.333 -10 -22 -10h-8
c-13.333 0 -23 9.66699 -29 29c3.33301 23.333 14 35 32 35h3c14.667 0 27 -12.667 37 -38c16 -10 27 -24.333 33 -43h2v971c0 3.33301 3.66699 7 11 11h8c2.66699 0 6.33398 -3.66699 11.001 -11v-1049c7.33301 -7.33301 11 -14.333 11 -21v-8
c0 -6.66699 -3.66699 -14 -11 -22v-21h29c61.333 0 92 -12.667 92 -38c-39.333 -809.333 -61.666 -1214 -66.999 -1214c-14 -12 -28.333 -18.333 -43 -19c-147.333 2.66699 -221 13.334 -221 32.001c-4 8 -6 19.667 -6 35v3l22 455c0 25.333 -27.667 38 -83 38
c-222.667 12 -352 18 -388 18c-30.667 0 -46 -28.667 -46 -86c-10.667 -288.667 -20.334 -433 -29.001 -433c0 -12.667 -15.333 -19 -46 -19h-3c-138 3.33301 -207 10.666 -207 21.999c-7.33301 9.33301 -11 19 -11 29v11c36.667 795.333 58.334 1193 65.001 1193
c12 14 23.667 21 35 21c32.667 -2 60.334 -3 83.001 -3v17c-14 0 -22 10.667 -24 32c3.33301 18 9.66602 27 18.999 27c0 38 -14.333 72 -43 102c-3.33301 -7.33301 -9.66602 -11 -18.999 -11h-16c-14.667 8 -22 18 -22 30v5c0 14.667 10 24.667 30 30h5
c16.667 0 27.334 -11.667 32.001 -35c10 0 21.667 -15.333 35 -46h3v925c0 3.33301 3.66699 7 11 11zM162.995 1027c6 -28.667 22.333 -43.001 49 -43.001c20.667 0 34 14.333 40 43c0 16.667 -8 30.334 -24 41.001h-5c0 -12.667 -3.66699 -19 -11 -19h-8
c-4 0 -8.66699 6.33301 -14 19c-18 -10 -27 -23.667 -27 -41zM957.995 983.999c0 -26 16.001 -41 48.001 -45c26.667 5.33301 40 21.333 40 48c-4.66699 23.333 -14.334 35 -29.001 35c0 -12.667 -5.33301 -19 -16 -19c-10.667 4 -16 11.333 -16 22
c-18 -10 -27 -23.667 -27 -41z" />
    <glyph glyph-name="I" unicode="I" horiz-adv-x="470" 
d="M260 2213l7.99902 -0.000976562c2.66699 0 6.33398 -3.33301 11.001 -10v-928c6.66699 -7.33301 10 -14.333 10 -21v-8c0 -6 -2.66699 -12 -8 -18h68c28 0 42 -23.333 42 -70v-1103c0 -25.333 -11.333 -42.666 -34 -51.999c-8 0 -13.333 -1 -16 -3c-29.333 2 -52 3 -68 3
h-96c-36 0 -54 17.333 -54 52v1069c0 14 -1 30.333 -3 49c3.33301 36.667 18 55 44 55h70c-4.66699 6.66699 -7 14.334 -7 23.001c3.33301 17.333 9.33301 26 18 26c0 37.333 -14 70.333 -42 99c-2.66699 -6.66699 -8.66699 -10 -18 -10h-16
c-13.333 7.33301 -20 16.666 -20 27.999v6c0 14 9.33301 23.333 28 28h5c16 0 26.667 -11.333 32 -34c9.33301 0 20.333 -14.667 33 -44h3v853c0 2.66699 3.33301 6 10 10zM220.999 1103c5.33301 -28 20.999 -42 46.999 -42c20 0 33 14 39 42
c0 15.333 -7.66699 28.333 -23 39h-5c0 -12 -3.66699 -18 -11 -18h-8c-3.33301 0 -7.66602 6 -12.999 18c-17.333 -10 -26 -23 -26 -39z" />
    <glyph glyph-name="J" unicode="J" horiz-adv-x="760" 
d="M345 2215l6.99805 0.000976562c2.66699 0 6 -3.33301 10 -10v-978c6.66699 -7.33301 10 -14 10 -20v-15c31.333 10 52.333 15 63 15c22.667 0 47 -52 73 -156c140.667 -425.333 213.667 -652.333 219 -681c6.66699 -47.333 10 -81.666 10 -102.999
c0 -99.333 -43.667 -181.333 -131 -246c-32 -26.667 -87.333 -54.334 -166 -83.001c-64.667 -12 -104 -18 -118 -18h-35c-106.667 0 -194 46 -262 138c-50 90 -75 153.667 -75 191c0 21.333 46 44 138 68c6.66699 4.66699 25.334 9 56.001 13
c18.667 0 34.334 -27 47.001 -81c34.667 -72 78.334 -108 131.001 -108h10c56.667 0 102 24.333 136 73c6.66699 21.333 10 40.666 10 57.999c0 33.333 -35.333 154 -106 362c-102 312.667 -153 472.667 -153 480c0 24.667 34.333 44.667 103 60l2 5c-8 4 -12 12.333 -12 25
c3.33301 16.667 9 25 17 25c0 36 -13.333 68 -40 96c-2.66699 -6.66699 -8.33398 -10 -17.001 -10h-15c-14 7.33301 -21 16.333 -21 27v5c0 14 9.33301 23.333 28 28h5c15.333 0 25.333 -11 30 -33c9.33301 0 20.333 -14 33 -42h2v905c0 2 3.66699 5.33301 11 10z
M306.998 1061c5.33301 -26.667 20.333 -40 45 -40c19.333 0 32 13.333 38 40c0 15.333 -7.66699 28 -23 38h-5c0 -12 -3.33301 -18 -10 -18h-7c-4 0 -8.33301 6 -13 18c-16.667 -9.33301 -25 -22 -25 -38z" />
    <glyph glyph-name="K" unicode="K" horiz-adv-x="1259" 
d="M424 2214h7.99707c2.66699 0 6 -3.33301 10 -10v-889c7.33301 -7.33301 11 -14.333 11 -21v-8c0 -6 -3.66699 -13 -11 -21v-10c78.667 -18 118 -38 118 -60c0 -2 0.666992 -4.66699 2 -8c-81.333 -265.333 -122 -401 -122 -407v-8c4 -10 11.667 -15 23 -15
c10 0 110 54.667 300 164c28.667 14.667 80.667 43.334 156 86.001c62 38 103 57 123 57c21.333 -2.66699 107.333 -28.667 258 -78c8.66699 -6.66699 13 -13.667 13 -21v-5c-2.66699 -12 -29.667 -29.333 -81 -52l-453 -242c-12.667 -14 -19 -25.333 -19 -34v-3
c0 -9.33301 83.667 -273.666 251 -792.999l2 -18c0 -10 -9.33301 -16 -28 -18c-181.333 51.333 -272 81.666 -272 90.999c-18 33.333 -44.667 117.666 -80 252.999c-24.667 76 -59.667 190 -105 342c-7.33301 14 -17.666 21 -30.999 21c-16 0 -70.667 -29 -164 -87
c-9.33301 0 -37.333 -79 -84 -237c-23.333 -85.333 -43.333 -128 -60 -128h-7c-22 0 -90.667 21 -206 63c-10.667 8 -16 16 -16 24v10c20.667 75.333 137 447.333 349 1116c8.66699 10 21 15 37 15c2.66699 0 18.334 -3.33301 47.001 -10l-3 18
c3.33301 17.333 9.33301 26 18 26c0 37.333 -13.667 70.333 -41 99c-3.33301 -6.66699 -9.66602 -10 -18.999 -10h-15c-14 7.33301 -21 17 -21 29v5c0 14 9.66699 23.667 29 29h5c16 0 26.333 -11.333 31 -34c10 0 21.333 -15 34 -45h3v814c0 2.66699 3.33301 6 10 10z
M384.997 1143c5.33301 -28 21 -42 47 -42c20 0 33 14 39 42c0 15.333 -7.66699 28.333 -23 39h-6c0 -12 -3.33301 -18 -10 -18h-8c-4 0 -8.33301 6 -13 18c-17.333 -10 -26 -23 -26 -39z" />
    <glyph glyph-name="L" unicode="L" horiz-adv-x="913" 
d="M340 2209l8 -0.000976562c3.33301 0 7 -3.66699 11 -11v-892c7.33301 -7.33301 11 -14.333 11 -21v-8c0 -6.66699 -3.66699 -14 -11 -22v-3c84 -10.667 126 -24.667 126 -42l3 -14c-109.333 -586.667 -164 -884 -164 -892c-5.33301 -25.333 -8 -47.666 -8 -66.999
c0 -22.667 45.667 -39 137 -49c19.333 -5.33301 157 -31 413 -77c26.667 -10.667 40 -23.334 40 -38.001c-18 -112 -30.333 -172 -37 -180c-16 -8.66699 -27 -13 -33 -13c-496.667 91.333 -767.334 142.333 -812.001 153c-16 8 -24 22.333 -24 43
c130.667 710 204 1101.33 220 1174c6 10 18.333 17 37 21l51 -8v3l-2 16c3.33301 18 9.33301 27 18 27c0 38 -14.333 72 -43 102c-2.66699 -7.33301 -8.66699 -11 -18 -11h-16c-14.667 7.33301 -22 17 -22 29v6c0 14.667 10 24.334 30 29.001h5
c16.667 0 27.334 -11.667 32.001 -35c10 0 21.667 -15 35 -45h3v814c0 2.66699 3.33301 6.33398 10 11zM300 1129c6 -28.667 21.998 -43 47.998 -43c20.667 0 34.334 14.333 41.001 43c0 16 -8 29.333 -24 40h-6c0 -12 -3.66699 -18 -11 -18h-8
c-3.33301 0 -7.66602 6 -12.999 18c-18 -10 -27 -23.333 -27 -40z" />
    <glyph glyph-name="M" unicode="M" horiz-adv-x="1408" 
d="M150 2206l8 -0.00292969c2.66699 0 6 -3.66699 10 -11v-782c7.33301 -7.33301 11 -14.333 11 -21v-8c0 -6 -3.66699 -13 -11 -21c1.33301 0 6.66602 -1 15.999 -3c166.667 -2.66699 250 -10.334 250 -23.001c10 -9.33301 31.667 -77 65 -203l174 -591
c4.66699 -5.33301 10.667 -10.666 18 -15.999c16 0 32.667 30 50 90c158 420 244.667 648.667 260 686c17.333 12 28.666 18 33.999 18l182 -8l-3 13v3c3.33301 17.333 9.66602 26 18.999 26c0 37.333 -14 70.666 -42 99.999c-3.33301 -7.33301 -9.66602 -11 -18.999 -11
h-16c-14 8 -21 17.667 -21 29v6c0 14 9.66699 23.667 29 29h5c16.667 0 27.334 -11.667 32.001 -35c9.33301 0 20 -13 32 -39h2v8c0 38.667 -0.666992 290.667 -2 756l10 8h8l10 -8c2 -261.333 3 -398.666 3 -411.999c0 -66 1 -211.333 3 -436
c6.66699 -2.66699 10 -9 10 -19v-7l-2 -14c64.667 -0.666992 97 -5.66699 97 -15c8.66699 -7.33301 13 -16.333 13 -27c-33.333 -763.333 -52.666 -1156.67 -57.999 -1180c-11.333 -12 -23.666 -18 -36.999 -18c-138 0 -207 10.667 -207 32l-3 10l32 702
c-2 40 -5.66699 60 -11 60h-8c-18 -12.667 -46 -73 -84 -181c-140 -349.333 -218 -541.333 -234 -576c-13.333 -14 -30 -21 -50 -21c-108.667 0 -163 8 -163 24c-15.333 23.333 -42.333 108.333 -81 255c-8.66699 20.667 -55 174.667 -139 462c-16 44 -27.667 66 -35 66h-2
c-16 0 -26.667 -107.667 -32 -323l-23 -436c-11.333 -16 -25.333 -24 -42 -24c-135.333 2.66699 -203 11.334 -203 26.001c-3.33301 15.333 -5 25 -5 29c33.333 757.333 52.666 1146.33 57.999 1167c6.66699 11.333 19 19.333 37 24c1.33301 0 2 -1 2 -3l13 3h3l13 -3
c-6.66699 7.33301 -10 16 -10 26c3.33301 18 9.33301 27 18 27c0 36.667 -14 69.667 -42 99c-2.66699 -6.66699 -8.66699 -10 -18 -10h-16c-14 7.33301 -21 17 -21 29v5c0 14.667 9.66699 24.334 29 29.001h5c16 0 26.333 -11.333 31 -34c10 0 21.667 -15 35 -45h2v706
c0 3.33301 3.66699 7 11 11zM110 1239c5.33301 -28 21.333 -42 48 -42c20 0 33 14 39 42c0 16 -8 29.333 -24 40h-5c0 -12 -3.33301 -18 -10 -18h-8c-4 0 -8.33301 6 -13 18c-18 -10 -27 -23.333 -27 -40zM1209 1179c5.33301 -28 21 -42 47 -42c20 0 33.333 14 40 42
c0 16 -8 29 -24 39h-3c0 -6.66699 -4.33301 -12.667 -13 -18c-10 0 -17 6 -21 18c-17.333 -9.33301 -26 -22.333 -26 -39z" />
    <glyph glyph-name="N" unicode="N" horiz-adv-x="1169" 
d="M152 2211l8 0.000976562c2.66699 0 6.33398 -3.33301 11.001 -10v-988c6.66699 -7.33301 10 -14.333 10 -21v-8c0 -6 -3.33301 -12.667 -10 -20v-3c54 3.33301 85 5 93 5c28.667 0 66 -38 112 -114c15.333 -18.667 160.333 -219.334 435 -602.001
c15.333 -15.333 25.666 -23 30.999 -23c10.667 3.33301 16 10.333 16 21v16c0 16 -15 245.667 -45 689v8c0 31.333 24.333 47 73 47c15.333 1.33301 25 2 29 2v3c-16 10 -24 20.333 -24 31v5c0 10 6.33301 18.667 19 26c0 36.667 -14 69.667 -42 99
c0 -2 -4.33301 -5.33301 -13 -10h-13c-19.333 2.66699 -29 12.334 -29 29.001v5c0 14 9.66699 23.333 29 28h5c16 0 26.333 -11 31 -33c9.33301 0 20 -13 32 -39h2v5l1 826c18.667 11.333 28 9 28 -7v-908c6 0 10.333 -7 13 -21v-2c0 -10 -3.66699 -18.667 -11 -26v-8
c37.333 2 65.333 3 84 3c26 0 39 -28.667 39 -86c48.667 -718 73 -1086.67 73 -1106c0 -23.333 -48.667 -36.333 -146 -39c-29.333 0 -58 -2 -86 -6c-30.667 0 -68.667 38.333 -114 115l-443 612c-7.33301 6.66699 -16 10 -26 10c-6 -6.66699 -10.333 -15.334 -13 -26.001
c29.333 -435.333 44 -668 44 -698v-5c0 -20.667 -6 -34.334 -18 -41.001c-20 -5.33301 -84 -10.666 -192 -15.999c-30 0 -45 40.667 -45 122c-46.667 696 -70 1051 -70 1065c0 27.333 34.667 41 104 41c-10.667 10 -16 20.667 -16 32c4 17.333 10.333 26 19 26
c0 36.667 -14 69.667 -42 99c-2.66699 -7.33301 -8.66699 -11 -18 -11h-16c-14 7.33301 -21 17 -21 29v5c0 14 9.66699 23.667 29 29h5c16 0 26.333 -11.333 31 -34c10 0 21.333 -15 34 -45h3v913c0 2.66699 3.33301 6 10 10zM886 1101c0 -21.333 14.666 -35.333 43.999 -42
c30 4.66699 45 18.667 45 42c-3.33301 24.667 -13 37 -29 37c-3.33301 -10.667 -6.66602 -16 -9.99902 -16h-11c-2.66699 0 -7 6 -13 18c-17.333 -9.33301 -26 -22.333 -26 -39zM112.999 1041c5.33301 -27.333 20.999 -41 46.999 -41c20 0 33 13.667 39 41
c0 16 -7.66699 29 -23 39h-5c0 -12 -3.66699 -18 -11 -18h-8c-3.33301 0 -7.66602 6 -12.999 18c-17.333 -9.33301 -26 -22.333 -26 -39z" />
    <glyph glyph-name="O" unicode="O" horiz-adv-x="1249" 
d="M579 2206l7.99609 0.000976562c2.66699 0 6.33398 -3.66699 11.001 -11v-897c6.66699 -7.33301 10 -14.333 10 -21v-8c0 -6.66699 -3.33301 -14 -10 -22v-8h47c151.333 0 287 -56.667 407 -170c62.667 -69.333 104.334 -133 125.001 -191c36.667 -98 55 -186.333 55 -265
c2 0 3 -5.33301 3 -16c0 -252 -90.333 -441.667 -271 -569c-108.667 -65.333 -222 -98 -340 -98c-213.333 0 -381.333 81.333 -504 244c-54.667 75.333 -93 180.666 -115 315.999c0 2.66699 -0.666992 15.334 -2 38.001c0 1.33301 0.666992 6.66602 2 15.999
c-3.33301 12.667 -5 25.667 -5 39c0 10 1.66699 20 5 30c0 1.33301 -0.666992 6.66602 -2 15.999c0 54.667 16.667 135 50 241c19.333 46.667 50.333 100 93 160c74.667 80 143.667 132 207 156c25.333 16 79.333 32 162 48c30 3.33301 47.667 5 53 5v3
c-13.333 0 -21.333 10.667 -24 32c4 17.333 10.333 26 19 26c0 38 -14 71.667 -42 101c-3.33301 -6.66699 -9.66602 -10 -18.999 -10h-16c-14 7.33301 -21 17 -21 29v5c0 14.667 9.66699 24.334 29 29.001h5c16.667 0 27.334 -11.333 32.001 -34c10 0 21.667 -15 35 -45h2
v820c0 2.66699 3.66699 6.33398 11 11zM538.996 1128c0 -26 16.002 -41 48.002 -45c26.667 5.33301 40 21 40 47c-6.66699 25.333 -16.334 38 -29.001 38v-14c0 -2.66699 -3.66699 -6 -11 -10h-8c-2.66699 0 -6.33398 3.33301 -11.001 10v14h-2c-18 -10 -27 -23.333 -27 -40
zM273.998 586.001c1.33301 -83.333 17 -161.999 47 -235.999c23.333 -49.333 53.666 -90.333 90.999 -123c64.667 -44 127.334 -66 188.001 -66h45c52 0 111.333 22 178 66c49.333 47.333 85 100.666 107 159.999c14 41.333 24.333 105 31 191
c-4 64 -13.667 128.667 -29 194c-19.333 52 -43 96.333 -71 133c-62 70.667 -144.333 106 -247 106c-114 0 -203.667 -48.667 -269 -146c-32 -55.333 -53 -118.333 -63 -189c-2 -34.667 -4.66699 -64.667 -8 -90z" />
    <glyph glyph-name="P" unicode="P" horiz-adv-x="1023" 
d="M201 2208h8.00098c2.66699 0 6 -3.33301 10 -10v-966c7.33301 -7.33301 11 -14.333 11 -21v-8c0 -6 -3.66699 -12.667 -11 -20v-11c300.667 -30.667 458.667 -48.667 474 -54c39.333 -9.33301 87 -27.333 143 -54c112 -76 168 -180.667 168 -314
c0 -166 -64.667 -286 -194 -360c-58 -29.333 -132.333 -44 -223 -44l-290 31c-32.667 0 -49 -31 -49 -93l-36 -308c-12 -17.333 -28.667 -26 -50 -26c-134.667 14.667 -202 26 -202 34c-6.66699 9.33301 -10 17 -10 23c2 38.667 43.333 420.334 124 1145
c7.33301 20.667 22 31 44 31c15.333 0 37 -1.66699 65 -5c-10 9.33301 -15 19.666 -15 30.999c3.33301 16.667 9.33301 25 18 25c0 36.667 -14 69.667 -42 99c-2.66699 -6.66699 -8.66699 -10 -18 -10h-15c-14 7.33301 -21 16.666 -21 27.999v5
c0 14.667 9.33301 24.334 28 29.001h6c15.333 0 25.666 -11.333 30.999 -34c9.33301 0 20.333 -14.667 33 -44h3v891c0 2.66699 3.33301 6 10 10zM162.001 1066c0 -24.667 15.668 -39.333 47.001 -44c26 5.33301 39 21 39 47c-6.66699 24 -16.334 36 -29.001 36v-13
c0 -2.66699 -3.33301 -6 -10 -10h-8c-2.66699 0 -6 3.33301 -10 10v13h-3c-17.333 -10 -26 -23 -26 -39zM287.002 621.001c0 -31.333 43.001 -47 129.001 -47c40.667 -6.66699 96 -10 166 -10c87.333 0 140.666 48.333 159.999 145c2 10 3 23.667 3 41v5
c0 76 -40.667 128 -122 156c-100 24 -189.667 36 -269 36h-3c-21.333 0 -33.333 -19 -36 -57c-18.667 -148 -28 -237.667 -28 -269z" />
    <glyph glyph-name="Q" unicode="Q" horiz-adv-x="1139" 
d="M559 2206l8.00195 0.00195312c2.66699 0 5.66699 -3.33301 9 -10v-938c6.66699 -7.33301 10 -14 10 -20v-7c0 -6 -3.33301 -12.667 -10 -20v-7c91.333 -6 183.333 -32 276 -78c114 -70 191.667 -165 233 -285c21.333 -65.333 32 -125.333 32 -180v-17
c0 -216.667 -76.333 -394.334 -229 -533.001c-3.33301 -5.33301 -5 -10.333 -5 -15v-7c0 -13.333 24.333 -51.666 73 -114.999c6.66699 -14.667 10 -23.334 10 -26.001c0 -19.333 -35.667 -48 -107 -86l-15 -2c-12.667 2 -39.334 32 -80.001 90c-27.333 44 -51 66 -71 66
c-23.333 -6.66699 -61.333 -12.334 -114 -17.001c-151.333 0 -287 43.667 -407 131c-128 109.333 -192 259.666 -192 450.999c0 68 18 154.667 54 260c19.333 44 41 84.667 65 122c112.667 160.667 263 241 451 241v2c-12.667 0 -20 10 -22 30c3.33301 16 9 24 17 24
c0 34.667 -13 65.334 -39 92.001c-2.66699 -6 -8.33398 -9 -17.001 -9h-15c-12.667 6.66699 -19 15.667 -19 27v4c0 13.333 9 22.333 27 27h4c15.333 0 25.333 -10.333 30 -31c8.66699 0 19 -14 31 -42h3v868c0 2.66699 3 6 9 10zM523.002 1102
c0 -23.333 14.667 -37.333 44 -42c24 5.33301 36 20 36 44c-6 22.667 -15 34 -27 34v-12c0 -2.66699 -3 -6 -9 -10h-8c-2 0 -5 3.33301 -9 10v12h-3c-16 -8.66699 -24 -20.667 -24 -36zM231.002 576.002v-59c0 -78 27.667 -150 83 -216c48 -44 103 -71.667 165 -83l46 -7
c16.667 4 25 8.66699 25 14v12c0 6.66699 -14 31 -42 73c-3.33301 5.33301 -5 10.333 -5 15c0 16 27 41.333 81 76c2.66699 5.33301 13 10 31 14h10c14 0 40 -29.333 78 -88c10.667 -12.667 20.334 -19 29.001 -19h10c31.333 23.333 56.666 57.333 75.999 102
c34 83.333 51 165.333 51 246c0 152 -58.667 254.333 -176 307c-44 18 -87 27 -129 27h-14c-106 0 -192 -61.667 -258 -185c-37.333 -84 -56 -150.667 -56 -200c-3.33301 0 -5 -9.66699 -5 -29z" />
    <glyph glyph-name="R" unicode="R" horiz-adv-x="1074" 
d="M522 2209l8.00195 -0.000976562c2.66699 0 6 -3.33301 10 -10v-914c6.66699 -7.33301 10 -14 10 -20v-8c0 -6 -3.33301 -13 -10 -21v-20c51.333 4.66699 89 7 113 7c178 0 292.333 -86.667 343 -260l8 -54c0 -100 -19 -173 -57 -219l-75 -78l-2 -15
c0 -2 25.667 -21.667 77 -59c40 -40 69.333 -106.333 88 -199c15.333 -127.333 31.666 -208 48.999 -242c3.33301 -14 5 -22.667 5 -26v-3c0 -22 -29.333 -33 -88 -33c-56.667 -5.33301 -98.667 -8 -126 -8c-28.667 0 -47.667 27.667 -57 83
c-19.333 104.667 -37.333 188.667 -54 252c-34.667 65.333 -64 98 -88 98c-26 10.667 -54.333 16 -85 16c-188.667 -10 -283 -21.333 -283 -34c-7.33301 -12 -11 -23 -11 -33c20.667 -212.667 31 -347 31 -403c0 -24 -36.667 -36 -110 -36
c0 -1.33301 -36.333 -4.66602 -109 -9.99902c-30.667 0 -46 23.333 -46 70c-62 725.333 -93 1093 -93 1103c0 29.333 38.667 44 116 44c11.333 2 153 14 425 36v18c-12.667 0 -20.334 10.333 -23.001 31c3.33301 17.333 9.33301 26 18 26
c0 36.667 -13.667 69.334 -41 98.001c-2.66699 -6.66699 -8.66699 -10 -18 -10h-15c-14 7.33301 -21 16.666 -21 27.999v5c0 14 9.33301 23.333 28 28h5c16 0 26.333 -11 31 -33c10 0 21.333 -14.667 34 -44h2v839c0 2.66699 3.66699 6 11 10zM483.002 1120
c0 -24.667 15.668 -39.333 47.001 -44c25.333 6 38 21.667 38 47c-6.66699 24 -16 36 -28 36v-13c0 -2.66699 -3.33301 -6 -10 -10h-8c-2.66699 0 -6.33398 3.33301 -11.001 10v13h-2c-17.333 -10 -26 -23 -26 -39zM254.003 948
c13.333 -191.333 23.668 -287.001 31.001 -287.001c9.33301 -10 29 -15 59 -15c218 16 327 33 327 51c46.667 21.333 70 68 70 140c0 84.667 -36 140.334 -108 167.001c-20.667 3.33301 -36.334 5 -47.001 5c-216.667 -10.667 -325 -22.667 -325 -36
c-4.66699 -8.66699 -7 -17 -7 -25z" />
    <glyph glyph-name="S" unicode="S" horiz-adv-x="1065" 
d="M467 2228l8 -0.000976562c2.66699 0 6.33398 -3.66699 11.001 -11v-788c7.33301 -8 11 -15.333 11 -22v-8c0 -6.66699 -3.66699 -14 -11 -22v-19h11c234 0 391.333 -81.333 472 -244c20 -52 30 -90 30 -114v-3c0 -32.667 -18 -49 -54 -49h-163
c-36.667 2.66699 -55 17.334 -55 44.001c-22 60 -49 97 -81 111c-36.667 25.333 -90 38 -160 38h-22c-88 0 -146 -36 -174 -108c-3.33301 -16.667 -5 -28.667 -5 -36v-16c0 -58 68.667 -102.333 206 -133c16 -7.33301 96.667 -28 242 -62
c73.333 -20 134.666 -51 183.999 -93c85.333 -66.667 128 -154.334 128 -263.001c0 -158 -76 -274.667 -228 -350c-83.333 -40 -185.666 -60 -306.999 -60c-102 0 -201.333 20.667 -298 62c-47.333 20 -100 60 -158 120c-46.667 63.333 -74.667 135.666 -84 216.999v16
c0 22.667 18 35.334 54 38.001h169c30.667 0 48.667 -22.667 54 -68c23.333 -63.333 60.333 -107.666 111 -132.999c57.333 -25.333 114.333 -38 171 -38c75.333 0 143.333 22 204 66c27.333 38.667 41 70.334 41 95.001c0 86.667 -90.667 148 -272 184
c-138.667 33.333 -247.334 69.666 -326.001 108.999c-110 67.333 -165 165 -165 293c0 106 49.667 199.333 149 280c51.333 41.333 118.333 69.333 201 84c0 2 30.667 6.33301 92 13c0 -1.33301 1 -2 3 -2v16c-14 0 -22.333 10.667 -25 32c4 18.667 10.333 28 19 28
c0 38 -14.333 72.333 -43 103c-2.66699 -7.33301 -9 -11 -19 -11h-16c-14.667 8 -22 18 -22 30v5c0 15.333 10 25.333 30 30h5c16.667 0 27.667 -11.667 33 -35c10 0 21.667 -15.333 35 -46h3v709c0 2.66699 3.66699 6.33398 11 11zM426 1255
c0 -26 16.334 -41.332 49.001 -45.999c27.333 6 41 22.333 41 49c-7.33301 25.333 -17.333 38 -30 38v-14c0 -2.66699 -3.66699 -6.33398 -11 -11.001h-8c-2.66699 0 -6.33398 3.66699 -11.001 11v14h-3c-18 -10 -27 -23.667 -27 -41z" />
    <glyph glyph-name="T" unicode="T" horiz-adv-x="1025" 
d="M495 2212l8 0.000976562c2.66699 0 6 -3.66699 10 -11v-938c6.66699 -7.33301 10 -14.333 10 -21v-8c0 -6 -3.33301 -13 -10 -21v-15h448c34.667 0 52 -15.667 52 -47c2 -12.667 3 -30.334 3 -53.001v-75c0 -33.333 -17.333 -50 -52 -50h-203c-70 0 -105 -6 -105 -18
c-6.66699 0 -10 -29.333 -10 -88v-827c0 -43.333 -8 -65 -24 -65c0 -3.33301 -10.333 -5 -31 -5h-156c-38.667 0 -58 15.667 -58 47v860c0 14 -0.666992 30.333 -2 49l2 6c-6 26 -22.333 39 -49 39c-19.333 1.33301 -44.666 2 -75.999 2h-104
c-24 0 -55.333 -0.666992 -94 -2c-29.333 3.33301 -44 18 -44 44v128c0 36.667 14 55 42 55h432v10c-13.333 0 -21 10.333 -23 31c3.33301 17.333 9.33301 26 18 26c0 37.333 -14 70.333 -42 99c-2.66699 -6.66699 -8.66699 -10 -18 -10h-15c-14 7.33301 -21 17 -21 29v5
c0 14 9.33301 23.333 28 28h6c16 0 26.333 -11 31 -33c9.33301 0 20.666 -15 33.999 -45h2v863c0 2.66699 3.66699 6.33398 11 11zM456 1096c0 -25.333 15.6689 -39.999 47.002 -43.999c26 5.33301 39 20.666 39 45.999c-6.66699 24.667 -16.334 37 -29.001 37v-13
c0 -2.66699 -3.33301 -6 -10 -10h-8c-2.66699 0 -6.33398 3.33301 -11.001 10v13h-2c-17.333 -10 -26 -23 -26 -39z" />
    <glyph glyph-name="U" unicode="U" horiz-adv-x="1120" 
d="M191 2213l7.00098 -0.000976562c2.66699 0 6.33398 -3.33301 11.001 -10v-933c6.66699 -7.33301 10 -14.333 10 -21v-8c0 -6 -3.33301 -12.667 -10 -20c86 -4.66699 129 -17.667 129 -39c1.33301 -9.33301 2 -14.333 2 -15l-72 -743v-23c0 -106 39.667 -175.333 119 -208
c48 -19.333 90.667 -29 128 -29h16c95.333 0 158 25 188 75c16 16.667 30.667 52.667 44 108c12 95.333 39.333 354.666 82 777.999c8 17.333 21.667 26 41 26c40.667 -3.33301 63 -5 67 -5c-6.66699 9.33301 -10 17 -10 23v5c0 8.66699 7.66699 19 23 31v998
c0 2.66699 3.66699 6 11 10h7c2.66699 0 6.33398 -3.33301 11.001 -10v-908c16 12.667 27 27.334 33 44.001c7.33301 6.66699 16 10 26 10c18.667 -2.66699 28 -12 28 -28v-5c0 -11.333 -6.66699 -20.666 -20 -27.999h-13c-6.66699 0 -14.334 3.33301 -23.001 10
c-20.667 -26.667 -31 -48 -31 -64v-37c6.66699 -8.66699 10 -16.334 10 -23.001v-13l-10 -15v-5c75.333 0 113 -17.333 113 -52c-46.667 -471.333 -76.667 -746 -90 -824c-41.333 -110 -83.333 -180.667 -126 -212c-78.667 -75.333 -190.334 -113 -335.001 -113
c-276 10.667 -448 96.667 -516 258c-27.333 69.333 -41 132 -41 188v13c0 35.333 26.667 304 80 806c10.667 15.333 23.667 23 39 23c23.333 -1.33301 37.666 -2 42.999 -2c-3.33301 6 -5 12.667 -5 20c3.33301 17.333 9.33301 26 18 26c0 36.667 -13.667 69.334 -41 98.001
c-2.66699 -6.66699 -8.66699 -10 -18 -10h-16c-13.333 7.33301 -20 16.666 -20 27.999v5c0 14.667 9.33301 24.334 28 29.001h5c16 0 26.333 -11.333 31 -34c10 0 21.333 -14.667 34 -44h2v859c0 2.66699 3.66699 6 11 10zM152.001 1105
c0 -25.333 15.334 -39.999 46.001 -43.999c26 5.33301 39 20.666 39 45.999c-6.66699 24 -16 36 -28 36v-13c0 -2.66699 -3.66699 -6 -11 -10h-7c-2.66699 0 -6.33398 3.33301 -11.001 10v13h-2c-17.333 -9.33301 -26 -22 -26 -38zM938.002 1030
c5.33301 -27.333 20.667 -41 46 -41c20 0 33 13.667 39 41c0 15.333 -7.66699 28.333 -23 39h-5c0 -14 -3.66699 -21 -11 -21h-7c-4.66699 0 -9 7 -13 21c-17.333 -10 -26 -23 -26 -39z" />
    <glyph glyph-name="V" unicode="V" horiz-adv-x="1106" 
d="M945 2220l7.99805 -0.000976562c2.66699 0 6.33398 -3.66699 11.001 -11v-767c5.33301 -6.66699 8 -12.667 8 -18v-8c0 -6 -2.66699 -12.333 -8 -19v-13c8.66699 0 39.334 2.66699 92.001 8c23.333 -4.66699 35 -15.334 35 -32.001
c-171.333 -774 -264 -1181.33 -278 -1222c-13.333 -21.333 -56.333 -32 -129 -32c-82.667 -10.667 -133 -16 -151 -16c-26 0 -48 29 -66 87l-467 1070v15c-0 20.667 28.333 32.334 85 35.001c5.33301 0 22 0.666992 50 2v8c-16 10 -24 20.667 -24 32v5c0 10 6 19 18 27
c0 36 -14 69.333 -42 100h-2c-3.33301 -6.66699 -9.66602 -10 -18.999 -10h-8c-13.333 0 -23 9.66699 -29 29c3.33301 22.667 14 34 32 34c22.667 -2 34 -13.333 34 -34c10.667 0 23 -15 37 -45h3v762c0 2.66699 3.33301 6 10 10h8c2.66699 0 6.33398 -3.33301 11.001 -10
v-839c6.66699 -9.33301 10 -17.333 10 -24v-2c0 -10.667 -3.33301 -19.667 -10 -27v-10h2c13.333 0 33.666 1.66699 60.999 5c28.667 0 51.667 -28.333 69 -85c5.33301 -8 105.666 -239.333 300.999 -694c10 -10.667 18 -16 24 -16c16 0 33.333 60 52 180
c23.333 94.667 68.333 301.334 135 620.001c9.33301 38.667 28.666 58 57.999 58c34.667 4 57.667 6 69 6v5c-18 9.33301 -27 21.666 -27 36.999c4 17.333 10.333 26 19 26c0 37.333 -14 71 -42 101c-3.33301 -7.33301 -9.66602 -11 -18.999 -11h-16
c-14 7.33301 -21 17 -21 29v5c0 14.667 9.66699 24.334 29 29.001h6c16 0 26.333 -11.333 31 -34c24.667 -19.333 37 -36 37 -50h3v693c0 3.33301 3.33301 7 10 11zM902.998 1276c6 -30 21.001 -45 45.001 -45c26 0 41 15.667 45 47c-6.66699 24.667 -16.334 37 -29.001 37
v-13c0 -2.66699 -3.66699 -6 -11 -10h-8c-6.66699 0 -10 8.66699 -10 26c-21.333 -10 -32 -24 -32 -42zM105.999 1196c5.33301 -28 21 -42 47 -42c20.667 0 34 14 40 42c0 16 -8 29.333 -24 40h-5c0 -14 -3.66699 -21 -11 -21h-8c-4 0 -8.33301 7 -13 21
c-17.333 -10 -26 -23.333 -26 -40z" />
    <glyph glyph-name="W" unicode="W" horiz-adv-x="1653" 
d="M1481 2216h7.99609c3.33301 0 7 -3.66699 11 -11v-929c7.33301 -9.33301 11 -17.333 11 -24v-3c0 -10.667 -3.66699 -19.667 -11 -27v-8h85c36 0 54 -10 54 -30v-11c-5.33301 -31.333 -49.666 -201 -132.999 -509c-50.667 -184.667 -90.667 -335 -120 -451
c-8.66699 -22.667 -26.667 -88 -54 -196c-14.667 -52.667 -28.334 -79 -41.001 -79c0 -5.33301 -22.667 -8 -68 -8h-57c-90.667 0 -136 6.33301 -136 19c-18 45.333 -43.333 141.333 -76 288c-20 73.333 -42 159.666 -66 258.999c-25.333 106.667 -47 187.334 -65 242.001
c-1.33301 0 -6.66602 1.66699 -15.999 5c-16 0 -39.667 -78.667 -71 -236c-9.33301 -28.667 -45.666 -174 -108.999 -436c-17.333 -90.667 -36.333 -136 -57 -136c-9.33301 -3.33301 -25.666 -5 -48.999 -5h-149c-52.667 0 -79 21.667 -79 65
c-29.333 100 -116.333 428.333 -261 985c-34.667 116.667 -52 182.667 -52 198v3c0 22 22.667 33 68 33h54c-8.66699 8.66699 -13 18.667 -13 30c3.33301 18 9.66602 27 18.999 27c0 37.333 -14.667 71.666 -44 102.999c-7.33301 -7.33301 -14.333 -11 -21 -11h-9
c-13.333 0 -23.333 10 -30 30c4 24 15 36 33 36h3c15.333 0 28 -13 38 -39c16 -10 27 -24.333 33 -43h2v852c0 3.33301 3.66699 7 11 11h8c3.33301 0 7 -3.66699 11 -11v-931c7.33301 -7.33301 11 -14.666 11 -21.999v-8c0 -6.66699 -3.66699 -14 -11 -22v-2h57
c25.333 0 43.666 -10 54.999 -30c38 -163.333 63.333 -267.666 76 -312.999c0 -8 17.333 -84 52 -228c27.333 -127.333 48 -205.333 62 -234l11 -8c15.333 0 34.333 54.333 57 163c9.33301 26.667 33 119 71 277c10.667 30.667 37.667 136 81 316c11.333 38 30.333 57 57 57
h164c46.667 0 70 -21 70 -63l185 -729c4.66699 -20 13 -30 25 -30h2c13.333 0 34.333 70.667 63 212c10.667 37.333 38.667 153.666 84 348.999c36.667 164.667 59.334 247 68.001 247c14 9.33301 37.667 14 71 14h16c-16 10 -24 20.667 -24 32v6c0 10 6.33301 19 19 27
c0 36.667 -14.667 71 -44 103h-2c-3.33301 -7.33301 -9.66602 -11 -18.999 -11h-8c-14 0 -24 10 -30 30c3.33301 24 14 36 32 36c24 -2.66699 36 -14.667 36 -36c10.667 0 23.334 -15.333 38.001 -46h2v850c0 2.66699 3.66699 6.33398 11 11zM1440 1099
c6 -28.667 22.333 -43.001 49 -43.001c21.333 0 35 14.333 41 43c0 16.667 -8 30.334 -24 41.001h-6c0 -14.667 -3.66699 -22 -11 -22h-8c-4 0 -8.33301 7.33301 -13 22c-18.667 -10 -28 -23.667 -28 -41zM82.9961 1094c0 -26 16.333 -41.332 49 -45.999
c27.333 5.33301 41 21.666 41 48.999c-4.66699 23.333 -14.667 35 -30 35c0 -12.667 -3.66699 -19 -11 -19h-8c-4.66699 0 -9 7.33301 -13 22c-18.667 -10 -28 -23.667 -28 -41z" />
    <glyph glyph-name="X" unicode="X" horiz-adv-x="1345" 
d="M681 2220l6.99707 -0.00195312c2.66699 0 6 -3.33301 10 -10v-1068c6.66699 -7.33301 10 -13.666 10 -18.999v-8c0 -6 -3.33301 -12.667 -10 -20v-2c55.333 30 89.333 46.333 102 49h11c9.33301 -6.66699 14 -12.334 14 -17.001l-59 -602c0 -22 46 -52.667 138 -92
l461 -258c0 -2.66699 2 -6.66699 6 -12c0 -16 -43.667 -43.667 -131 -83c-51.333 -31.333 -86 -48.333 -104 -51c-20.667 1.33301 -75.334 29.666 -164.001 84.999c-144 82 -218.333 123 -223 123h-10c-15.333 0 -24.666 -45 -27.999 -135c-12 -108.667 -21 -207 -27 -295
c0 -20.667 -44.333 -51 -133 -91c-48.667 -29.333 -79.667 -44 -93 -44c-14.667 4.66699 -22 14.334 -22 29.001l66 639c0 28 -26 53 -78 75c-2 2.66699 -154.333 85 -457 247c-9.33301 8 -15 15.667 -17 23c0 15.333 32.667 37 98 65c70.667 41.333 111.334 62 122.001 62
h19c18 -7.33301 117.667 -64.666 299 -171.999c17.333 -11.333 31 -17 41 -17h11c14.667 0 25 72.667 31 218c9.33301 131.333 19.333 197 30 197l70 45v10c-12 0 -19 9.66699 -21 29c2.66699 16 8.33398 24 17.001 24c0 33.333 -13.333 64.333 -40 93
c-6.66699 -6.66699 -13 -10 -19 -10h-7c-12.667 0 -21.667 9 -27 27c2.66699 21.333 12.334 32 29.001 32h2c14 0 25.333 -11.333 34 -34c14 -9.33301 24 -22.666 30 -39.999h2v998c0 3.33301 3.33301 6.66602 10 10zM643.997 984.998c0 -23.333 14.667 -37.334 44 -42.001
c25.333 6 38 21 38 45c-6.66699 22.667 -16 34 -28 34v-12c0 -2.66699 -3.33301 -6 -10 -10h-7c-2.66699 0 -6 3.33301 -10 10v12h-2c-16.667 -9.33301 -25 -21.666 -25 -36.999z" />
    <glyph glyph-name="Y" unicode="Y" horiz-adv-x="1062" 
d="M141 2221l7.99805 -0.00292969c2.66699 0 6 -3.33301 10 -10v-940c7.33301 -8 11 -15 11 -21v-8c0 -6.66699 -3.66699 -13.667 -11 -21v-21c87.333 -13.333 131 -41.333 131 -84l123 -457l16 -11h15c6.66699 0.666992 86 74 238 220c88 87.333 137.667 131 149 131l21 5
c134.667 -35.333 213 -59.666 235 -72.999l6 -8v-8c0 -15.333 -62 -77.333 -186 -186l-423 -397c-18.667 -33.333 -51 -137.666 -97 -312.999c-23.333 -89.333 -40.666 -134 -51.999 -134c-6 -3.33301 -11.333 -5 -16 -5h-3c-21.333 0 -91 20 -209 60
c-8.66699 10.667 -13 19.334 -13 26.001c0 8 38.333 148.333 115 421v21c-4.66699 36.667 -43 184 -115 442c-43.333 158 -74.666 279 -93.999 363c0 14 9.66699 22 29 24c18.667 -4 52.667 -13 102 -27v6c-13.333 0 -21.333 10.333 -24 31c3.33301 17.333 9.33301 26 18 26
c0 36 -13.667 69 -41 99c-7.33301 -6.66699 -14.333 -10 -21 -10h-8c-13.333 0 -23 9.66699 -29 29c3.33301 22.667 14 34 32 34h2c14.667 0 27 -12.333 37 -37c14.667 -10 25 -24 31 -42h3v865c0 2.66699 3.33301 6 10 10zM101.998 1103
c0 -24.667 15.668 -39.333 47.001 -44c26 5.33301 39 21 39 47c-6.66699 24 -16.334 36 -29.001 36v-13c0 -2.66699 -3.33301 -6 -10 -10h-8c-2.66699 0 -6 3.33301 -10 10v13h-3c-17.333 -9.33301 -26 -22.333 -26 -39z" />
    <glyph glyph-name="Z" unicode="Z" horiz-adv-x="1103" 
d="M705 2201l8 -0.000976562c2.66699 0 6 -3.66699 10 -11v-923c7.33301 -7.33301 11 -14.666 11 -21.999v-8c0 -6 -3.66699 -13 -11 -21v-14c136 9.33301 212.333 14 229 14c24.667 0 39 -16.333 43 -49c2 -39.333 4.66699 -69.666 8 -90.999c0 -2 -1 -4.66699 -3 -8
c2 -10 3 -18 3 -24v-3c0 -36 -13.333 -68.333 -40 -97l-549 -753l-3 -16v-13c0 -6.66699 14.333 -11.334 43 -14.001l579 38c32 0 48 -27 48 -81c3.33301 -30.667 5 -68.334 5 -113.001c0 -28.667 -34 -43 -102 -43c-592.667 -39.333 -901 -59 -925 -59
c-26.667 8.66699 -40 29.334 -40 62.001v3c0 14.667 -2 56.667 -6 126c0 26.667 26 70.667 78 132l251 344c164.667 224 250.667 343.333 258 358c5.33301 8.66699 8 14.667 8 18c0 16.667 -12.667 25 -38 25l-511 -33h-11c-30 0 -45 40.333 -45 121c-2 40.667 -3 66 -3 76
c0 26.667 37.667 40 113 40c317.333 21.333 511 34 581 38v10c-14 0 -22 11 -24 33c3.33301 18 9.33301 27 18 27c0 36.667 -14.333 70.667 -43 102c-7.33301 -7.33301 -14.333 -11 -21 -11h-8c-13.333 0 -23.333 10 -30 30c4 23.333 15 35 33 35h2
c15.333 0 28 -12.667 38 -38c15.333 -10 26 -24.333 32 -43h3v845c0 2.66699 3.66699 6.33398 11 11zM664 1095c0 -26 16.333 -41.332 49 -45.999c26.667 6 40 22 40 48c-6.66699 25.333 -16.667 38 -30 38v-13c0 -2.66699 -3.33301 -6.33398 -10 -11.001h-8
c-3.33301 0 -7 3.66699 -11 11v13h-3c-18 -10 -27 -23.333 -27 -40z" />
    <glyph glyph-name="bracketleft" unicode="[" horiz-adv-x="758" 
 />
    <glyph glyph-name="backslash" unicode="\" horiz-adv-x="569" 
 />
    <glyph glyph-name="bracketright" unicode="]" horiz-adv-x="758" 
 />
    <glyph glyph-name="asciicircum" unicode="^" 
 />
    <glyph glyph-name="underscore" unicode="_" horiz-adv-x="1024" 
d="M0 -100h1024v-60h-1024v60z" />
    <glyph glyph-name="grave" unicode="`" horiz-adv-x="1024" 
d="M673 1079l-69 0.000976562l-330 202c-20.667 13.333 -36.167 26.666 -46.5 39.999s-15.5 27.333 -15.5 42c0 20.667 6.83301 37.667 20.5 51s31.5 20 53.5 20c13.333 0 26.833 -4 40.5 -12s32.167 -23.667 55.5 -47z" />
    <glyph glyph-name="a" unicode="a" horiz-adv-x="922" 
d="M618 2216l6.99805 -0.000976562c2.66699 0 6.33398 -3.33301 11.001 -10v-1207c6.66699 -7.33301 10 -14.333 10 -21v-8c0 -6 -3.33301 -12.667 -10 -20v-3c52 -14.667 94.333 -50 127 -106c18.667 -59.333 57.667 -243.666 117 -552.999c27.333 -80.667 41 -124 41 -130
c0 -20 -44 -35.333 -132 -46c-16.667 -7.33301 -37.334 -11 -62.001 -11c-13.333 0 -33.333 13 -60 39h-18c-98 -93.333 -215 -140 -351 -140h-15c-57.333 -0 -112.666 23.333 -165.999 70c-50 63.333 -75 126.333 -75 189c0 133.333 91.667 226 275 278
c67.333 22.667 127 45.334 179 68.001c36 25.333 54 49.333 54 72c0 54.667 -23.333 92 -70 112c-15.333 3.33301 -26.666 5 -33.999 5h-23c-54 0 -102.333 -16.333 -145 -49c-21.333 -16.667 -37 -52.334 -47 -107.001c0 -14.667 -66.667 -32 -200 -52
c-17.333 0 -27.666 12.333 -30.999 37c0 124 66.667 216.333 200 277c106 45.333 210.667 68 314 68c11.333 0 35.333 -1.66699 72 -5l-2 5v8c3.33301 17.333 9.33301 26 18 26c0 35.333 -14 68 -42 98c-6.66699 -6.66699 -13.334 -10 -20.001 -10h-8
c-13.333 0 -23 9.33301 -29 28c4 22.667 14.667 34 32 34h2c14.667 0 26.667 -12 36 -36c15.333 -10 26 -24 32 -42h2v1132c0 2.66699 3.66699 6 11 10zM578.998 832.999c0 -25.333 15.333 -39.998 46 -43.998c26 5.33301 39 20.666 39 45.999
c-6.66699 24.667 -16 37 -28 37v-13c0 -2.66699 -3.66699 -6.33398 -11 -11.001h-7c-3.33301 0 -7 3.66699 -11 11v13h-2c-17.333 -10 -26 -23 -26 -39zM282.998 306.001v-15c8 -72.667 39 -109 93 -109c0 -2 8 -3 24 -3h26c51.333 0 102.333 23.333 153 70
c22 38 33 72.667 33 104c0 56 -8.66699 98.333 -26 127c-6.66699 3.33301 -12.667 5 -18 5c-112 -39.333 -189.667 -71.333 -233 -96c-34.667 -32 -52 -59.667 -52 -83z" />
    <glyph glyph-name="b" unicode="b" horiz-adv-x="1004" 
d="M455 2216l7.00391 -0.000976562c2.66699 0 6 -3.66699 10 -11v-949c7.33301 -7.33301 11 -14 11 -20v-8c0 -6 -2.66699 -12 -8 -18v-3c74.667 -17.333 112 -38.333 112 -63v-3c0 -6 -25.333 -82.667 -76 -230c-20.667 -58 -31 -96.333 -31 -115v-2
c3.33301 -8.66699 10 -13 20 -13c60.667 17.333 107.667 26 141 26h20c46 0 101.333 -16.333 166 -49c71.333 -44.667 121.666 -112 150.999 -202c8.66699 -33.333 14.667 -69 18 -107c0 -139.333 -44.333 -272 -133 -398c-88 -100.667 -179 -151 -273 -151
c-112.667 0 -211.334 42.667 -296.001 128c-26 40 -44 61.333 -54 64c-6 0 -19.667 -15.333 -41 -46l-13 -3h-10c-115.333 30.667 -173 53.667 -173 69l-3 13c0 10.667 118.333 367.334 355 1070c12 25.333 25.667 38 41 38c4.66699 -2 13 -3 25 -3
c2.66699 18.667 8.66699 28 18 28c0 35.333 -13.667 68 -41 98c-6.66699 -7.33301 -13.334 -11 -20.001 -11h-8c-12.667 0 -22 9.33301 -28 28c3.33301 22.667 13.666 34 30.999 34h2c14.667 0 26.667 -12 36 -36c14.667 -10 25 -23.667 31 -41h2v875
c0 2.66699 3.66699 6.33398 11 11zM416.004 1093c0 -24.667 15.334 -39.332 46.001 -43.999c25.333 5.33301 38 20.666 38 45.999c-6 24 -15.333 36 -28 36v-13c0 -2.66699 -3.33301 -6 -10 -10h-7c-2.66699 0 -6.33398 3.33301 -11.001 10v13h-2
c-17.333 -10 -26 -22.667 -26 -38zM324.005 337.001v-26c0 -92 35 -155 105 -189c0 -6.66699 29.667 -13.334 89 -20.001c73.333 0 140 55.333 200 166c18.667 44.667 32 99 40 163v3c0 70 -23 128.667 -69 176c-35.333 22.667 -68.333 36.334 -99 41.001h-28
c-88 0 -160.333 -68.333 -217 -205c-14 -50.667 -21 -87 -21 -109z" />
    <glyph glyph-name="c" unicode="c" horiz-adv-x="905" 
d="M497 2217h8.00195c2.66699 0 6.33398 -3.66699 11.001 -11v-1031c12.667 10 24.667 25.667 36 47c6.66699 5.33301 13 8 19 8h5c19.333 -2.66699 29 -12.334 29 -29.001v-13c-7.33301 -14 -16 -21 -26 -21h-8c-6.66699 0 -14.667 3.33301 -24 10
c-20.667 -26.667 -31 -48.334 -31 -65.001v-37c6.66699 -7.33301 10 -14.333 10 -21v-7c0 -6.66699 -3.33301 -13.667 -10 -21v-8c50.667 0 112.667 -22 186 -66c59.333 -45.333 96.666 -93.333 111.999 -144v-10c0 -21.333 -41.667 -39.666 -125 -54.999
c-30.667 -10.667 -52.667 -16 -66 -16c-20 0 -37.333 13 -52 39c-36.667 40.667 -77.667 61 -123 61c-91.333 0 -155 -40.333 -191 -121c-12.667 -32.667 -19 -62.334 -19 -89.001c0 -152 49.667 -264.667 149 -338c32.667 -13.333 58 -20 76 -20
c105.333 0 172.666 47.667 201.999 143c3.33301 63.333 14.666 95 33.999 95c88 28 144 42 168 42h5c17.333 -10 26 -24 26 -42c0 -186 -85.667 -314.333 -257 -385c-65.333 -28 -136 -42 -212 -42c-98 0 -189.667 36.667 -275 110c-53.333 54.667 -87.333 102.667 -102 144
c-34.667 64 -52 156.333 -52 277v11c-0 58.667 25.333 130.334 76 215.001c57.333 78.667 140.333 134.334 249 167.001c52.667 16 106.667 24 162 24v2c-12 0 -20 9 -24 27v5c4 19.333 12 29 24 29v1125c0 2.66699 3.33301 6.33398 10 11zM458.002 908
c0 -25.333 15.668 -40.332 47.001 -44.999c26.667 5.33301 40 21 40 47c-6.66699 24.667 -16.334 37 -29.001 37v-13c0 -2.66699 -3.66699 -6.33398 -11 -11.001h-8c-2.66699 0 -6 3.66699 -10 11v13h-3c-17.333 -10 -26 -23 -26 -39z" />
    <glyph glyph-name="d" unicode="d" horiz-adv-x="978" 
d="M590 2220l8 0.000976562c2.66699 0 6 -3.66699 10 -11v-824c12.667 10 24.667 25.333 36 46c6.66699 5.33301 12.667 8 18 8h5c19.333 -2.66699 29 -12 29 -28v-13c-7.33301 -13.333 -16 -20 -26 -20h-8c-6 0 -13.667 3.33301 -23 10c-20.667 -26.667 -31 -48 -31 -64
v-36c7.33301 -7.33301 11 -14.333 11 -21v-8l-3 -12l46 7c23.333 0 43 -43.667 59 -131c174.667 -650.667 262 -982.334 262 -995.001v-13c0 -23.333 -60.667 -46.666 -182 -69.999c-16.667 0 -32 15.667 -46 47c-8 4.66699 -13.333 7 -16 7c-12 -4 -27.333 -21 -46 -51
c-39.333 -46.667 -98.333 -81 -177 -103c-19.333 -4.66699 -46 -9.66699 -80 -15c-208 0 -348.333 126.667 -421 380c-10 44 -15 93.667 -15 149v2c0 145.333 60.667 257.666 182 336.999c67.333 31.333 123 47.333 167 48c66 0 122.333 -12 169 -36l16 -2
c3.33301 0 8.33301 4.33301 15 13c0 18 -28 133.333 -84 346v8c0 19.333 11.667 33 35 41c6 0 30 6 72 18c-10 10 -15 18.333 -15 25v6c4 18.667 11.667 28 23 28v916c0 2.66699 3.33301 6.33398 10 11zM552 1123c0 -24.667 15.334 -38.999 46.001 -42.999
c26 5.33301 39 20.666 39 45.999c-6.66699 24 -16.334 36 -29.001 36v-13c0 -2.66699 -3.33301 -6 -10 -10h-8c-2.66699 0 -6 3.33301 -10 10v13h-3c-16.667 -9.33301 -25 -22.333 -25 -39zM239.001 474.002c0 -143.333 47.666 -249.333 142.999 -318
c38 -18.667 70.667 -28 98 -28c90 0 152.333 46 187 138c7.33301 39.333 11 60.666 11 63.999c0 80.667 -24 167.334 -72 260.001c-49.333 61.333 -99 92 -149 92h-16c-87.333 0 -149.666 -38.333 -186.999 -115c-10 -36 -15 -67 -15 -93z" />
    <glyph glyph-name="e" unicode="e" horiz-adv-x="938" 
d="M483 2217l7.99707 0.00195312c2.66699 0 6.33398 -3.66699 11.001 -11v-1062c13.333 10 26 26 38 48c6 5.33301 12 8 18 8h6c19.333 -2.66699 29 -12.334 29 -29.001v-14c-7.33301 -14 -16 -21 -26 -21h-9c-6 0 -14 3.66699 -24 11c-21.333 -28 -32 -50.667 -32 -68v-38
c7.33301 -7.33301 11 -14.333 11 -21v-8c0 -6.66699 -3.66699 -14 -11 -22v-19c60.667 0 130.667 -24.333 210 -73c71.333 -60 121 -120 149 -180c16.667 -22.667 33.667 -70.334 51 -143.001v-6c0 -26 -50.333 -48.333 -151 -67c-271.333 -72 -422.333 -113.333 -453 -124
c-9.33301 -10 -14 -21 -14 -33v-8c20 -56 51.333 -96.333 94 -121c28.667 -14.667 52.334 -22 71.001 -22h18c106 0 183.333 44 232 132c16 41.333 42.333 62 79 62c39.333 12.667 74.333 21.667 105 27c23.333 0 35 -11.667 35 -35c0 -53.333 -23.333 -118 -70 -194
c-55.333 -74.667 -133.666 -126.667 -234.999 -156c-54.667 -20 -115 -30 -181 -30c-68.667 6.66699 -121.667 18.334 -159 35.001c-99.333 46 -172 117 -218 213c-41.333 78.667 -62 167 -62 265v8c0 4 -1 7.33301 -3 10c8 90 36 171 84 243
c58.667 85.333 143 144.666 253 177.999c50.667 14.667 95.667 22 135 22v11c-12 0 -20 9 -24 27v5c4 20 12 30 24 30v1159c0 2.66699 3.66699 6.33398 11 11zM441.997 869.002c0 -26 16.335 -41.333 49.002 -46c26.667 5.33301 40 21.333 40 48
c-6.66699 25.333 -16.334 38 -29.001 38v-13c0 -3.33301 -3.66699 -7 -11 -11h-8c-2.66699 0 -6.33398 3.66699 -11.001 11v13h-3c-18 -10 -27 -23.333 -27 -40zM234.999 583.002c0 -19.333 7.99902 -33.665 23.999 -42.998h13c22.667 0 133.334 28.667 332.001 86
c9.33301 9.33301 14 17.333 14 24v8c0 27.333 -28 60.666 -84 99.999c-26.667 14.667 -53.667 22 -81 22c-86.667 0 -153 -38 -199 -114c-12.667 -32.667 -19 -60.334 -19 -83.001z" />
    <glyph glyph-name="f" unicode="f" horiz-adv-x="634" 
d="M279 2222l7.99707 -0.00390625c2.66699 0 6 -3.33301 10 -10v-1010c13.333 10 26 26 38 48c6.66699 5.33301 13 8 19 8h5c19.333 -2.66699 29 -12.334 29 -29.001v-14c-7.33301 -14 -16 -21 -26 -21h-8c-6.66699 0 -15 3.66699 -25 11c-21.333 -28 -32 -50.333 -32 -67
v-38c7.33301 -7.33301 11 -14.333 11 -21v-8c0 -6.66699 -3.66699 -14 -11 -22v-10c49.333 22.667 102 34 158 34l11 -2c2 0 4.66699 0.666992 8 2c92.667 -4 139 -18 139 -42c0 -1.33301 1 -6.66602 3 -15.999c-2.66699 -86 -10.667 -129 -24 -129
c-0.666992 -3.33301 -6 -6 -16 -8c-44 2 -68 3 -72 3c-57.333 -6 -86 -31 -86 -75c-3.33301 0 -5.33301 -9 -6 -27v-8c0 -32 25 -48 75 -48c59.333 0 89 -14.333 89 -43c2 -15.333 3 -27 3 -35c-2 -21.333 -5 -35.666 -9 -42.999l3 -5
c-5.33301 -28.667 -19.666 -43 -42.999 -43c-51.333 2 -84.333 3 -99 3c-26.667 -8 -40 -27 -40 -57c-24.667 -446 -42.667 -669 -54 -669c-13.333 -7.33301 -26.666 -11 -39.999 -11c-121.333 5.33301 -182 12.333 -182 21c-10.667 8.66699 -16 20.334 -16 35.001
c28.667 410.667 43 630.334 43 659.001s-17 44.667 -51 48h-32c-34 0 -53.667 14.333 -59 43v6c0 76.667 11.667 115 35 115c0 2.66699 6.33301 4.33398 19 5.00098h5c16.667 0 37.334 -1 62.001 -3c28 0 42 24.333 42 73c0 45.333 22.333 101.333 67 168l38 33v21
c-12 0 -20 9 -24 27v5c4 20 12 30 24 30v1106c0 2.66699 3.66699 6 11 10zM237.997 928.996c0 -26 16.333 -41.333 49 -46c26.667 6 40 22 40 48c-6.66699 25.333 -16.667 38 -30 38v-13c0 -3.33301 -3.33301 -7 -10 -11h-8c-3.33301 0 -7 3.66699 -11 11v13h-3
c-18 -10 -27 -23.333 -27 -40z" />
    <glyph glyph-name="g" unicode="g" horiz-adv-x="1128" 
d="M447 2220l8.99805 -0.000976562c2.66699 0 6.33398 -3.66699 11.001 -11v-1059c14 10.667 27 27.667 39 51c7.33301 6 14 9 20 9h6c20.667 -3.33301 31 -13.666 31 -30.999v-14c-8 -15.333 -17.667 -23 -29 -23h-8c-6.66699 0 -15 3.66699 -25 11
c-22.667 -28.667 -34 -52 -34 -70v-40c7.33301 -7.33301 11 -14.666 11 -21.999v-9c0 -6.66699 -3.66699 -14 -11 -22v-9c10 4 29.667 6 59 6h31c38.667 0 96 -16 172 -48c56 -30 102 -79.667 138 -149c7.33301 -5.33301 13 -8 17 -8c10 0 24 15 42 45
c8 7.33301 15.333 11 22 11h9c129.333 -34 194 -60.333 194 -79v-11c0 -20.667 -76 -254.334 -228 -701.001c-34.667 -123.333 -70.334 -211.666 -107.001 -264.999c-76.667 -101.333 -177 -152 -301 -152h-9c-118.667 0 -239.667 34.667 -363 104
c-122 86 -183 183.667 -183 293c0 31.333 12.333 49 37 53h8c20.667 0 82.667 -19.667 186 -59c14 -9.33301 29 -42 45 -98c26 -45.333 77.667 -80 155 -104c6.66699 0 26.334 -2 59.001 -6c56.667 0 108.334 31 155.001 93c33.333 62 50 113.667 50 155l-11 8h-14
c-60.667 -22.667 -107.667 -34 -141 -34c-142.667 0 -259 60.333 -349 181c-39.333 69.333 -59 140.666 -59 213.999c0 100.667 25.333 203 76 307c56 103.333 128.333 175.333 217 216c12 8 32.667 15.667 62 23v8c-12.667 0 -21.334 9.33301 -26.001 28v6
c4.66699 20.667 13.334 31 26.001 31v1160c0 2.66699 3.66699 6.33398 11 11zM404.998 862.999c0 -26.667 17 -42.666 51 -47.999c28 6 42 23 42 51c-7.33301 26 -17.666 39 -30.999 39v-14c0 -2.66699 -3.66699 -6.33398 -11 -11.001h-9
c-2.66699 0 -6.33398 3.66699 -11.001 11v14h-3c-18.667 -10 -28 -24 -28 -42zM345.998 432v-4.99805c0 -113.333 54.333 -183 163 -209c23.333 -3.33301 37.333 -5 42 -5c120 0 202.667 85.333 248 256c4 32 6 53.667 6 65v20c0 105.333 -52.667 174.666 -158 207.999
c-25.333 4 -41.333 6 -48 6h-22c-64.667 0 -125 -45.333 -181 -136c-33.333 -70.667 -50 -137.334 -50 -200.001z" />
    <glyph glyph-name="h" unicode="h" horiz-adv-x="1003" 
d="M474 2213l7.99805 0.00390625c2.66699 0 6.33398 -3.66699 11.001 -11v-731c13.333 10.667 26.333 27.334 39 50.001c6.66699 5.33301 13 8 19 8h5c20.667 -2.66699 31 -12.667 31 -30v-14c-8 -14.667 -17.333 -22 -28 -22h-8c-6.66699 0 -15 3.66699 -25 11
c-22 -28 -33 -51 -33 -69v-38c7.33301 -8 11 -15.333 11 -22v-8c0 -6.66699 -3.66699 -14 -11 -22v-20c86 -24.667 129 -44 129 -58c2 -2.66699 3 -6.33398 3 -11.001v-11c0 -8.66699 -38.333 -129.667 -115 -363v-14c0 -14.667 6.33301 -22 19 -22
c4 0 29.667 9.33301 77 28c25.333 7.33301 57.333 12.666 96 15.999c89.333 0 178.333 -37.667 267 -113c50 -48.667 75 -113.667 75 -195c0 -62.667 -35 -188.667 -105 -378c-60.667 -190 -95.334 -297.333 -104.001 -322c-13.333 -12.667 -24.666 -20 -33.999 -22
c-135.333 37.333 -203 64 -203 80c-4 9.33301 -6 16.666 -6 21.999c101.333 306 158.333 486.667 171 542c5.33301 13.333 8 32 8 56v8c0 67.333 -39.333 114 -118 140c-24 6 -39.667 9 -47 9h-22c-78 0 -135 -47 -171 -141c-18 -36.667 -73 -198.334 -165 -485.001
c-11.333 -22 -23.333 -33 -36 -33h-19c-128.667 36 -193 63.667 -193 83v8c26 87.333 125 391.333 297 912l89 267c10.667 11.333 22.334 17 35.001 17c9.33301 0 20.333 -2 33 -6c-10.667 11.333 -16 20.666 -16 27.999v5c4 20 12.333 30 25 30v830
c0 2.66699 3.66699 6.33398 11 11zM456.998 1309v-3h6v3h-6zM431.998 1191c0 -26.667 16.667 -42.3301 50 -46.9971c27.333 5.33301 41 21.666 41 48.999c-6.66699 26 -16.667 39 -30 39v-14c0 -2.66699 -3.66699 -6.33398 -11 -11.001h-8c-3.33301 0 -7 3.66699 -11 11v14
h-3c-18.667 -10.667 -28 -24.334 -28 -41.001z" />
    <glyph glyph-name="i" unicode="i" horiz-adv-x="332" 
d="M127 2211l7.99902 -0.00195312c2.66699 0 6.33398 -3.66699 11.001 -11v-713c14 10.667 27 27.334 39 50.001c6.66699 5.33301 13 8 19 8h6c20 -2.66699 30 -12.667 30 -30v-14c-7.33301 -14.667 -16.333 -22 -27 -22h-9c-6.66699 0 -15 3.66699 -25 11
c-22 -28.667 -33 -52 -33 -70v-38c7.33301 -8 11 -15.667 11 -23v-8c0 -6.66699 -3.66699 -14 -11 -22v-22h67c36.667 0 55 -20.333 55 -61v-106c0 -29.333 -18.333 -44 -55 -44h-64v-117c5.33301 -6.66699 8 -13 8 -19v-14h61c33.333 0 50 -18.333 50 -55v-830
c0 -40.667 -16.667 -61 -50 -61h-147c-40.667 0 -61 18.333 -61 55v844c0 31.333 19.333 47 58 47h22v11c0 10.667 6.66699 21 20 31c0 24 -8.33301 36 -25 36c-24 0 -36 10 -36 30v6c0 15.333 10 25.333 30 30h6c20 -2.66699 30 -12.667 30 -30v-6l-2 -14l5 -2v58h-53
c-36.667 0 -55 18.333 -55 55v100c0 30.667 12 49.334 36 56.001h69v16c-12 0 -20.333 9.33301 -25 28v6c4.66699 20 13 30 25 30v813c0 2.66699 4 6.33398 12 11zM84.999 1204c7.33301 -29.333 18.332 -44.001 32.999 -44.001v19c0 2.66699 3.66699 6.33398 11 11.001h9
c2.66699 0 6.33398 -3.66699 11.001 -11v-17h2c16.667 9.33301 25 24.333 25 45c-6.66699 26 -16.667 39 -30 39v-14c0 -3.33301 -3.66699 -7 -11 -11h-8c-3.33301 0 -7.33301 3.66699 -12 11v14h-2c-18.667 -10.667 -28 -24.667 -28 -42zM87.998 851.997
c5.33301 -30 22 -45.001 50 -45.001c21.333 0 35 15 41 45c0 16.667 -8.33301 30.334 -25 41.001h-5c0 -9.33301 -3 -14 -9 -14h-11c-1.33301 0 -6 4.66699 -14 14c-18 -10 -27 -23.667 -27 -41z" />
    <glyph glyph-name="j" unicode="j" horiz-adv-x="444" 
d="M190 2250h7.99902c3.33301 0 7 -3.66699 11 -11v-818c14 10 27 26.333 39 49c6.66699 5.33301 13 8 19 8h6c20 -2.66699 30 -12.667 30 -30v-14c-7.33301 -14.667 -16.666 -22 -27.999 -22h-8c-6.66699 0 -15 3.66699 -25 11c-22 -28 -33 -50.667 -33 -68v-39
c7.33301 -8 11 -15.333 11 -22v-8c0 -6.66699 -3.66699 -14 -11 -22v-22l64 5c31.333 0 47 -41.333 47 -124c0 -5.33301 0.666992 -11.666 2 -18.999c0 -46 -16.333 -69 -49 -69c-20.667 -2 -40 -3 -58 -3l-3 -5v-110c5.33301 -6.66699 8 -13.334 8 -20.001v-11h3l39 3
l19 -3l5 3c38.667 0 58 -35.667 58 -107c38.667 -588 58 -905 58 -951c0 -100 -59.667 -169.667 -179 -209c-20 -5.33301 -70.333 -12.666 -151 -21.999c-44 0 -66 23 -66 69c-4 33.333 -6 61.666 -6 84.999v9c-0 32.667 18.333 49 55 49c33.333 0 61 19.333 83 58l5 27
l-3 14c0 2.66699 1 12 3 28c-40 570.667 -60 870.667 -60 900c0 24 22 38 66 42h8l-3 5v9c0 10.667 6.66699 20.667 20 30c0 24 -8.33301 36 -25 36c-24 0 -36 10 -36 30v5c0 12.667 7.33301 22 22 28v3h-8l-20 -3c-25.333 0 -40 20.333 -44 61l-5 110c0 29.333 31 44 93 44
h28v19c-12.667 0 -21 9.33301 -25 28v5c4.66699 20 13 30 25 30v918c0 3.33301 3.66699 7 11 11zM148.999 1140c7.33301 -29.333 18.332 -44 32.999 -44v19c0 2.66699 3.66699 6.33398 11 11.001h8c2.66699 0 6.33398 -3.66699 11.001 -11v-17h3c16.667 9.33301 25 24 25 44
c-7.33301 26 -17.666 39 -30.999 39v-14c0 -2.66699 -3.66699 -6.33398 -11 -11.001h-8c-2.66699 0 -6.33398 3.66699 -11.001 11v14h-3c-18 -10 -27 -23.667 -27 -41zM156.998 1027l0.000976562 -3c11.333 0 18.666 -9.33301 21.999 -28v-5l-3 -14l6 -3v56
c-10 -2 -18.333 -3 -25 -3zM150.999 790c6 -29.333 22.667 -44.001 50 -44.001c21.333 0 35 14.667 41 44c0 16.667 -8 30.334 -24 41.001h-6c0 -9.33301 -2.66699 -14 -8 -14h-11c-2 0 -6.66699 4.66699 -14 14c-18.667 -10 -28 -23.667 -28 -41z" />
    <glyph glyph-name="k" unicode="k" horiz-adv-x="894" 
d="M329 2217l8 0.000976562c2.66699 0 6 -3.33301 10 -10v-857c12.667 9.33301 24.334 24.333 35.001 45c6 5.33301 12 8 18 8h5c18 -2.66699 27 -12 27 -28v-12c-6.66699 -14 -15 -21 -25 -21h-7c-6.66699 0 -14.334 3.33301 -23.001 10c-20 -25.333 -30 -46 -30 -62v-36
c6.66699 -6.66699 10 -13.334 10 -20.001v-7c0 -6 -3.33301 -12.667 -10 -20v-5c78.667 -13.333 118 -31 118 -53v-10c0 -9.33301 -30 -139.333 -90 -390c-22 -78.667 -33 -127 -33 -145c0 -8.66699 4 -15.334 12 -20.001h8c15.333 0 71.333 33.333 168 100
c54.667 32.667 99 60.334 133 83.001c16.667 6.66699 31 10 43 10c142.667 -27.333 214 -48.333 214 -63c0 -18 -33.667 -44 -101 -78c-137.333 -80 -212.666 -126 -225.999 -138c-6.66699 -7.33301 -10 -14 -10 -20v-18c3.33301 -14 67 -191.333 191 -532
c0 -4 1 -7.33301 3 -10c-4.66699 -18.667 -10 -28 -16 -28h-25c-144 31.333 -216 53 -216 65c-8 0 -32.333 67 -73 201c-32 98 -54.333 161.667 -67 191c-6 3.33301 -11.333 5 -16 5h-5c-44 -12 -75.667 -32.667 -95 -62c-33.333 -140 -53.333 -219.667 -60 -239
c0 -11.333 -13.667 -18 -41 -20c-18.667 0 -74.667 13.333 -168 40c-10 10 -15 20 -15 30c0 8.66699 85.333 369.667 256 1083c9.33301 22 21 33 35 33h11l17 -3l-2 13v5c3.33301 18 10.666 27 21.999 27v948c0 2.66699 3.33301 6 10 10zM292 1094
c0 -24.667 15 -39.001 45 -43.001c25.333 5.33301 38 20.333 38 45c-6.66699 23.333 -16 35 -28 35v-12c0 -2.66699 -3.33301 -6 -10 -10h-8c-2.66699 0 -6 3.33301 -10 10v12h-2c-16.667 -9.33301 -25 -21.666 -25 -36.999z" />
    <glyph glyph-name="l" unicode="l" horiz-adv-x="310" 
d="M124 2211h7.99902c2.66699 0 6.33398 -3.66699 11.001 -11v-724c13.333 10 26 26 38 48c6.66699 6 13 9 19 9h5c20 -3.33301 30 -13.333 30 -30v-14c-7.33301 -14.667 -16.333 -22 -27 -22h-8c-6.66699 0 -14.667 3.66699 -24 11c-22 -27.333 -33 -50 -33 -68v-38
c7.33301 -7.33301 11 -14.333 11 -21v-8c0 -6.66699 -3.66699 -14 -11 -22v-27h3c74 0 111 -8.33301 111 -25c3.33301 -13.333 5 -26 5 -38l4 -1160c5.33301 -128 -12 -184 -52 -168v-3l-33 3h-92c-52.667 0 -79 14.333 -79 43v1299c0 32.667 24.333 49 73 49h30v21
c-12 0 -20 9.33301 -24 28v5c4 20 12 30 24 30v822c0 2.66699 3.66699 6.33398 11 11zM82.999 1199c0 -26 16.334 -41.332 49.001 -45.999c27.333 5.33301 41 21.333 41 48c-7.33301 25.333 -17.333 38 -30 38v-13c0 -2.66699 -3.66699 -6.33398 -11 -11.001h-8
c-2.66699 0 -6.33398 3.66699 -11.001 11v13h-3c-18 -10 -27 -23.333 -27 -40z" />
    <glyph glyph-name="m" unicode="m" horiz-adv-x="1365" 
d="M1119 2216l8 0.00195312c2.66699 0 6 -3.33301 10 -10v-1117h2c0 4.66699 8.33301 14 25 28c2 18 11.333 27 28 27h2c16.667 0 26.667 -10.667 30 -32c-5.33301 -18.667 -14.333 -28 -27 -28h-8c-6 0 -12.667 3.33301 -20 10
c-20.667 -22.667 -31.334 -43.334 -32.001 -62.001v-35c6.66699 -9.33301 10 -17 10 -23v-12l-10 -15v-8l42 -22c96.667 -46.667 145 -156.667 145 -330c1.33301 -4.66699 13.666 -150.334 36.999 -437.001c0 -35.333 -20 -53 -60 -53c-54.667 -4.66699 -97 -7 -127 -7h-7
c-26.667 0 -40 28.333 -40 85c-26 339.333 -45.333 509 -58 509c-9.33301 26.667 -26.666 47.667 -51.999 63c-14.667 10 -44.667 15 -90 15c-24.667 -2.66699 -53 -14.334 -85 -35.001c-32 -37.333 -48 -75.666 -48 -114.999v-55c0 -40.667 11.667 -195.667 35 -465
c0 -22.667 -22.333 -36 -67 -40c-60.667 -4.66699 -103.334 -7 -128.001 -7c-26 0 -39 25.667 -39 77c-24 300 -41.667 472.333 -53 517c-25.333 52 -63.666 78 -114.999 78h-22c-33.333 0 -67.666 -16.667 -102.999 -50c-28 -30.667 -42 -69.667 -42 -117v-25
c0 -22.667 11.667 -182 35 -478c0 -28 -39.333 -42 -118 -42c-28 -3.33301 -53.667 -5 -77 -5c-25.333 -0 -38 23.333 -38 70c-3.33301 22.667 -24 268.334 -62 737.001c0 31.333 30 47 90 47v3c-11.333 0 -19 8.33301 -23 25v5c4 18 11.667 27 23 27v1285
c0 2.66699 3.33301 6 10 10h7c2.66699 0 6 -3.33301 10 -10v-1195c12.667 9.33301 24.334 24.333 35.001 45c6.66699 5.33301 12.667 8 18 8h5c18 -2.66699 27 -12 27 -28v-12c-6.66699 -13.333 -15 -20 -25 -20h-7c-6 0 -13.667 3.33301 -23 10c-20 -26 -30 -47 -30 -63
v-35c6.66699 -6.66699 10 -13.334 10 -20.001v-7c0 -6 -3.33301 -12.667 -10 -20v-5c25.333 1.33301 43.666 2 54.999 2c30 0 45 -12.333 45 -37c7.33301 -21.333 13.333 -32.333 18 -33h5c12.667 0 29.334 12.667 50.001 38c63.333 54.667 135.666 82 216.999 82h10
c82.667 0 150 -30 202 -90c10 -4.66699 16 -7 18 -7c10.667 0 35.667 21.667 75 65c61.333 50 126.333 75 195 75h2c44 0 74 -2.66699 90 -8h3v3c-8 0 -13 7.33301 -15 22v5c0 8.66699 7.33301 18.667 22 30v1202c0 2.66699 3.33301 6 10 10zM1082 834.002
c4.66699 -26.667 19.667 -40 45 -40c18.667 0 31 13.333 37 40c0 15.333 -7.33301 28 -22 38h-5c0 -13.333 -3.33301 -20 -10 -20h-8c-4 0 -8 6.66699 -12 20c-16.667 -9.33301 -25 -22 -25 -38zM62 749.002c0 -24 15 -38 45 -42c25.333 5.33301 38 20.333 38 45
c-6.66699 23.333 -16 35 -28 35v-13c0 -2.66699 -3.33301 -6 -10 -10h-7c-2.66699 0 -6 3.33301 -10 10v13h-3c-16.667 -9.33301 -25 -22 -25 -38z" />
    <glyph glyph-name="n" unicode="n" horiz-adv-x="920" 
d="M522 2212h7.99902c2.66699 0 6 -3.33301 10 -10v-1067h2c0 10 11.333 24.333 34 43c4.66699 20.667 15 31 31 31h3c16.667 0 27 -11 31 -33c-6 -19.333 -15.667 -29 -29 -29h-8c-6 0 -12.667 3.66699 -20 11c-26 -28.667 -39 -59 -39 -91v-5
c10.667 -10 16 -18.667 16 -26v-7c0 -7.33301 -5.33301 -16 -16 -26h3c130.667 0 218.334 -55 263.001 -165c20.667 -28 38 -157.333 52 -388c15.333 -158 23 -257 23 -297c0 -26 -40.333 -39 -121 -39c0 -3.33301 -26 -5 -78 -5h-2c-29.333 0 -44 44.667 -44 134
c-24 330.667 -46.667 496 -68 496c-25.333 43.333 -60.333 65 -105 65h-31c-53.333 0 -100 -25 -140 -75c-17.333 -27.333 -26 -67 -26 -119v-10c0 -54 11.333 -215 34 -483c0 -31.333 -24.333 -47 -73 -47c-36 -4.66699 -78 -8 -126 -10c-31.333 0 -47 35.333 -47 106
c0 10 -19.667 252.667 -59 728c0 32.667 30 49 90 49c40.667 4 73.667 6 99 6h2c22 0 35.667 -20.667 41 -62c6 -8.66699 13 -13 21 -13c7.33301 0 27.333 17 60 51c59.333 43.333 105.666 65 138.999 65c18.667 6.66699 38.334 10 59.001 10v5
c-8 9.33301 -12 17.333 -12 24v5c0 7.33301 4 16 12 26v1142c0 2.66699 3.66699 6 11 10zM482.999 892c0 -25.333 15.668 -39.998 47.001 -43.998c25.333 5.33301 38 20.666 38 45.999c-6.66699 24.667 -16 37 -28 37v-13c0 -2.66699 -3.33301 -6.33398 -10 -11.001h-8
c-2.66699 0 -6.33398 3.66699 -11.001 11v13h-2c-17.333 -10 -26 -23 -26 -39z" />
    <glyph glyph-name="o" unicode="o" horiz-adv-x="977" 
d="M485 2216l7.99902 0.000976562c2.66699 0 6.33398 -3.66699 11.001 -11v-1158h3c0 10.667 11.667 26.334 35 47.001c5.33301 21.333 16.333 32 33 32h3c18 0 28.667 -11.667 32 -35c-5.33301 -20 -15.333 -30 -30 -30h-8c-6.66699 0 -14 3.66699 -22 11
c-26.667 -30 -40 -62 -40 -96v-5c10.667 -11.333 16 -20.333 16 -27v-8c0 -12.667 -7.33301 -22 -22 -28v-27c118 0 220.667 -39 308 -117c63.333 -67.333 105 -136.333 125 -207c16.667 -56.667 25 -103 25 -139c2 -33.333 3 -55.333 3 -66c0 -158.667 -71 -284 -213 -376
c-74.667 -40 -128.334 -60 -161.001 -60c-15.333 -6.66699 -51.666 -12 -108.999 -16c-212 0 -359 95.333 -441 286c-27.333 73.333 -41 151.333 -41 234v17c0 83.333 28 167.666 84 252.999c64.667 76.667 107.667 115 129 115c85.333 50.667 172.333 76 261 76v30
c-8.66699 9.33301 -13 17.666 -13 24.999v5c0 8 4.33301 17 13 27v1237c0 2.66699 3.66699 6.33398 11 11zM443.999 791.001c0 -26 16.334 -41.3311 49.001 -45.998c27.333 5.33301 41 21.666 41 48.999c-6.66699 25.333 -16.667 38 -30 38v-14
c0 -2.66699 -3.66699 -6.33398 -11 -11.001h-8c-2.66699 0 -6.33398 3.66699 -11.001 11v14h-3c-18 -10 -27 -23.667 -27 -41zM253 429.003c0 -124 35.666 -221.332 106.999 -291.999c41.333 -29.333 79.333 -44 114 -44h33c54.667 0 106.334 26.667 155.001 80
c32.667 42.667 49 100.667 49 174c0 162 -50.667 271 -152 327c-22.667 7.33301 -51 12.666 -85 15.999c-46.667 0 -94.667 -17.333 -144 -52c-51.333 -46 -77 -115.667 -77 -209z" />
    <glyph glyph-name="p" unicode="p" horiz-adv-x="987" 
d="M586 2214l7.99902 -0.00195312c2.66699 0 6 -3.33301 10 -10v-1094h3c0 10 11.333 25 34 45c5.33301 20.667 16 31 32 31h2c18 0 28.667 -11.333 32 -34c-5.33301 -19.333 -15 -29 -29 -29h-8c-6 0 -13 3.66699 -21 11c-26 -29.333 -39 -60 -39 -92v-5
c10 -10.667 15 -19.667 15 -27v-8c0 -11.333 -7 -20 -21 -26v-21c48 0 111.333 -28 190 -84c60.667 -60.667 102.667 -122 126 -184c29.333 -90.667 44 -165 44 -223c-1.33301 -11.333 -2 -23.666 -2 -36.999c0 -4 0.666992 -7.66699 2 -11c0 -62.667 -21 -137 -63 -223
c-74.667 -117.333 -185 -176 -331 -176c-60 0 -124.667 21 -194 63c-3.33301 2 -7.66602 3 -12.999 3c-8.66699 -10 -13 -16.333 -13 -19c0 -1.33301 0.666992 -2 2 -2l-2 -19v-2l66 -381c0 -32.667 -35.667 -49 -107 -49c-40 -7.33301 -70 -11 -90 -11h-2
c-26 0 -41 18.333 -45 55l-172 1174c0 28 29 43.667 87 47c8 0 43 4.33301 105 13c20 0 36.667 -20 50 -60l13 -3c10.667 0 29 15 55 45c62.667 50.667 118.667 76 168 76c0 5.33301 25.333 9 76 11h22v21c-9.33301 8.66699 -14 16.334 -14 23.001v6
c0 7.33301 4.66699 16 14 26v1170c0 2.66699 3.33301 6 10 10zM546.999 862.998c0 -25.333 15.668 -40.333 47.001 -45c26 6 39 22 39 48c-6.66699 24 -16.334 36 -29.001 36v-13c0 -2.66699 -3.33301 -6 -10 -10h-8c-2.66699 0 -6 3.33301 -10 10v13h-3
c-17.333 -9.33301 -26 -22.333 -26 -39zM284 505.998c0 -115.333 33.998 -206.666 101.998 -273.999c44 -28 79 -42 105 -42c102.667 0 170.334 38.667 203.001 116c15.333 30.667 23 73.667 23 129c-3.33301 157.333 -50.333 260.666 -141 309.999
c-27.333 12 -55.666 18 -84.999 18c-104 0 -169.667 -51.667 -197 -155c-6.66699 -26 -10 -60 -10 -102z" />
    <glyph glyph-name="q" unicode="q" horiz-adv-x="1030" 
d="M399 2211l8.00098 0.000976562c2.66699 0 6.33398 -3.66699 11.001 -11v-1022h3c0 11.333 12 27 36 47c4.66699 22 15.667 33 33 33h2c18.667 0 29.667 -12 33 -36c-5.33301 -20 -15.333 -30 -30 -30h-8c-6.66699 0 -14 3.66699 -22 11c-27.333 -30 -41 -62 -41 -96v-6
c10.667 -10.667 16 -19.667 16 -27v-8c0 -12.667 -7.33301 -22 -22 -28v-5h33c95.333 -11.333 156.666 -28 183.999 -50c18.667 0 57.334 -33 116.001 -99c6 -3.33301 11.333 -5 16 -5c12 0 23 14.667 33 44c10.667 8.66699 20 13 28 13c130 -14.667 195 -30 195 -46
c5.33301 -2.66699 8 -12 8 -28l-250 -1254c-10.667 -16.667 -25.334 -25 -44.001 -25c-135.333 19.333 -203 39.666 -203 60.999v16c58.667 265.333 88 404 88 416v5c0 3.33301 -3 10.666 -9 21.999h-16c-72 -34.667 -132.667 -52 -182 -52h-16
c-168.667 0 -289.667 79.667 -363 239c-24 59.333 -36 120 -36 182c0 132.667 34 254.334 102 365.001c10 22.667 44 61.334 102 116.001c73.333 49.333 134.666 74 183.999 74v14c-9.33301 9.33301 -14 17.666 -14 24.999v5c0 8 4.66699 17.333 14 28v1101
c0 2.66699 3.66699 6.33398 11 11zM358.001 920.001c0 -26.667 16.333 -42.332 49 -46.999c27.333 6 41 22.667 41 50c-6.66699 25.333 -16.667 38 -30 38v-14c0 -2.66699 -3.66699 -6.33398 -11 -11.001h-8c-3.33301 0 -7 3.66699 -11 11v14h-3
c-18 -10 -27 -23.667 -27 -41zM259.001 458.003c0 -91.333 36.668 -159.331 110.001 -203.998c37.333 -18 67.333 -27 90 -27c104.667 0 177.334 49.333 218.001 148c27.333 64 41 134.667 41 212c0 109.333 -45 184.666 -135 225.999
c-28.667 7.33301 -55.334 11.666 -80.001 12.999c-118.667 0 -198.334 -89.667 -239.001 -269c-3.33301 -43.333 -5 -76.333 -5 -99z" />
    <glyph glyph-name="r" unicode="r" horiz-adv-x="673" 
d="M176 2221l7.99902 -0.00195312c3.33301 0 7 -3.66699 11 -11v-1056h3c0 10.667 11.667 26 35 46c5.33301 22 16.333 33 33 33h3c18 0 28.667 -11.667 32 -35c-5.33301 -20 -15.333 -30 -30 -30h-8c-6.66699 0 -14 3.66699 -22 11c-26.667 -30 -40 -61.667 -40 -95v-6
c10.667 -10.667 16 -19.667 16 -27v-8c0 -12 -7.33301 -21 -22 -27v-6c74.667 -4.66699 112 -13.667 112 -27c3.33301 -11.333 5 -19.333 5 -24v-38c0 -21.333 5.33301 -35 16 -41c10 0.666992 27.333 13.334 52 38.001c66 52.667 132.667 79 200 79h22
c45.333 0 68 -19 68 -57c-6.66699 -116 -16.667 -174 -30 -174c-6.66699 -3.33301 -14 -5 -22 -5h-13c-8 0 -28 1.66699 -60 5c-106.667 0 -178 -38 -214 -114c-23.333 -22 -40.666 -96 -51.999 -222c-15.333 -228 -29.666 -342 -42.999 -342
c-13.333 -5.33301 -24.333 -8 -33 -8c-133.333 4.66699 -200 19 -200 43l-3 17c47.333 550.667 73.666 834.334 78.999 851.001c9.33301 16.667 26.333 25 51 25c15.333 -2 27 -3 35 -3v6c-8.66699 9.33301 -13 17.333 -13 24v5c0 8 4.33301 17.333 13 28v1134
c0 2.66699 3.66699 6.33398 11 11zM135.999 898.998c0 -26 16.001 -41.332 48.001 -45.999c27.333 6 41 22.333 41 49c-6.66699 25.333 -16.667 38 -30 38v-14c0 -2.66699 -3.66699 -6.33398 -11 -11.001h-8c-2.66699 0 -6.33398 3.66699 -11.001 11v14h-2
c-18 -10 -27 -23.667 -27 -41z" />
    <glyph glyph-name="s" unicode="s" horiz-adv-x="877" 
d="M395 2217l8.99902 0.000976562c2.66699 0 6.33398 -3.66699 11.001 -11v-1147h2c0 17.333 29.667 38.333 89 63c22 -4 33 -14 33 -30v-8c0 -16.667 -12 -27 -36 -31c-11.333 0 -21.333 9.33301 -30 28c-38.667 -23.333 -58 -58.333 -58 -105v-6
c10.667 -10.667 16 -19.667 16 -27v-8c0 -6.66699 -3.66699 -14.334 -11 -23.001h20c186.667 0 310 -60.667 370 -182c14.667 -33.333 22 -58.333 22 -75v-5c0 -24 -13.667 -36 -41 -36h-114c-7.33301 0 -17.333 -1 -30 -3c-29.333 0 -58 28.667 -86 86
c-38.667 29.333 -81 44 -127 44c-88 0 -139.667 -22 -155 -66l-3 -20v-5c0 -59.333 86 -102.666 258 -129.999c92.667 -18.667 169 -45.334 229 -80.001c70 -49.333 105 -115.666 105 -198.999c0 -75.333 -27.667 -145.333 -83 -210
c-83.333 -74 -207.666 -111 -372.999 -111c-87.333 0 -179.666 24 -276.999 72c-58 30.667 -102 93.334 -132 188.001c-2 12.667 -3 22.667 -3 30v6c0 18.667 13 29.667 39 33h155c23.333 0 40.666 -14.667 51.999 -44c10.667 -35.333 35.667 -64 75 -86
c36.667 -18.667 78 -28 124 -28c36 0 74.667 11.333 116 34c29.333 23.333 44 52.666 44 87.999v3c0 62.667 -95.667 109.667 -287 141c-124.667 32 -203 64.333 -235 97c-46 46 -69 101 -69 165c8.66699 69.333 21.667 118.333 39 147c32 53.333 93.667 94.666 185 123.999
c60 14.667 106 22 138 22c-7.33301 8 -11 15.667 -11 23v5c3.33301 18.667 9.66602 28 18.999 28v1238c0 3.33301 3.66699 7 11 11zM353.999 813.001c0 -26.667 16.668 -42.333 50.001 -47c27.333 6 41 22.667 41 50c-6.66699 25.333 -16.667 38 -30 38v-13
c0 -3.33301 -3.66699 -7.33301 -11 -12h-9c-2.66699 0 -6.33398 4 -11.001 12v13h-3c-18 -10 -27 -23.667 -27 -41z" />
    <glyph glyph-name="t" unicode="t" horiz-adv-x="704" 
d="M263 2214l9.00098 0.00195312c3.33301 0 7.33301 -4 12 -12v-797h3c0 11.333 12.667 28 38 50c5.33301 23.333 17 35 35 35h3c19.333 0 31 -12.667 35 -38c-6 -21.333 -16.667 -32 -32 -32h-9c-6.66699 0 -14.334 3.66699 -23.001 11c-29.333 -32 -44 -66 -44 -102v-6
c11.333 -12 17 -21.667 17 -29v-9c0 -13.333 -7.66699 -23 -23 -29v-6h9c22.667 0 46 1 70 3c41.333 0 62 -23.333 62 -70c0 -144.667 11.667 -217 35 -217c2.66699 -2.66699 12.334 -4.66699 29.001 -6c42 2 73.333 3 94 3l5 3c35.333 0 53 -29.333 53 -88
c2 -14 3 -32.667 3 -56c0 -10.667 -9.66699 -22.334 -29 -35.001c-101.333 -7.33301 -152 -15 -152 -23c-8 -12 -13 -25.667 -15 -41c15.333 -341.333 29 -512 41 -512c16.667 -27.333 46 -41 88 -41c38.667 2 60 3 64 3c29.333 0 44 -31.333 44 -94
c0 -24.667 1 -47.334 3 -68.001c0 -36.667 -39 -55 -117 -55c-2 -2 -10 -3 -24 -3h-26c-4 0 -8 -1 -12 -3l-5 3c-2 0 -10 -1 -24 -3c-10 2 -15.667 3 -17 3c-2.66699 0 -5.66699 -1 -9 -3c-75.333 0 -140.666 24.333 -195.999 73c-28.667 38.667 -46.334 82.667 -53.001 132
c-17.333 371.333 -28 561.666 -32 570.999c-12 21.333 -29.667 32 -53 32c-12.667 0 -30.334 -2 -53.001 -6c-42.667 0 -64 24.333 -64 73c0 24 -1 38.667 -3 44c0 43.333 13.667 65 41 65c0 2 3 3 9 3h3c70 0 105 13.667 105 41c0 8.66699 1 14.334 3 17.001l-12 202
c0 33.333 31.333 50 94 50h9v12c-10 10 -15 18.667 -15 26v6c0 8 5 17.667 15 29v882c0 3.33301 3.66699 7.33301 11 12zM220.001 1130c0 -28 17.334 -44.667 52.001 -50c29.333 6 44 23.667 44 53c-7.33301 27.333 -18 41 -32 41v-15c0 -2.66699 -4 -6.66699 -12 -12h-9
c-2.66699 0 -6.33398 4 -11.001 12v15h-3c-19.333 -11.333 -29 -26 -29 -44z" />
    <glyph glyph-name="u" unicode="u" horiz-adv-x="954" 
d="M631 2214h7.00098c2 0 5 -3 9 -9v-1207h3c0 9.33301 10 23 30 41c4.66699 18.667 14.334 28 29.001 28h2c16 0 25.667 -10.333 29 -31c-5.33301 -17.333 -14 -26 -26 -26h-8c-5.33301 0 -11.333 3.33301 -18 10c-24 -26.667 -36 -54.334 -36 -83.001v-5
c9.33301 -9.33301 14 -17.333 14 -24v-7c0 -10.667 -6.33301 -18.667 -19 -24l38 12h10c18.667 0 33.667 -26 45 -78c136 -428 204 -647.667 204 -659v-5c0 -20 -33.333 -37.333 -100 -52c-32 -12.667 -55.667 -19 -71 -19c-10.667 0.666992 -26.334 18 -47.001 52
c-6.66699 3.33301 -11.334 5 -14.001 5c-12 -11.333 -29.667 -36 -53 -74c-72 -72.667 -162 -109 -270 -109h-10c-76 0 -140 42.667 -192 128c-25.333 46 -76.666 200.333 -153.999 463c-22 64 -33 101 -33 111c0 22.667 27.667 39.334 83 50.001
c51.333 18.667 84.666 28 99.999 28c20 0 41.333 -46.667 64 -140c66 -214 110 -342 132 -384c29.333 -38 63.333 -57 102 -57h10c55.333 0 102 26.333 140 79c12.667 23.333 19 46 19 68v19c0 45.333 -40.333 189.333 -121 432l-17 62c0 22.667 23 39 69 49l40 22
c-8 8 -12 15 -12 21v5c0 6.66699 4 14.667 12 24v1275c0 2 3.33301 5 10 9zM595.001 775c0 -22.667 14.333 -35.999 43 -39.999c23.333 5.33301 35 19.666 35 42.999c-6 22 -14.667 33 -26 33v-12c0 -2.66699 -3 -5.66699 -9 -9h-7c-2.66699 0 -6 3 -10 9v12h-2
c-16 -8.66699 -24 -20.667 -24 -36z" />
    <glyph glyph-name="v" unicode="v" horiz-adv-x="796" 
d="M105 2207l7.00098 0.00195312c2.66699 0 6 -3.33301 10 -10v-1044h3c0 9.33301 10.667 23.333 32 42c4.66699 20 14.667 30 30 30h3c16.667 0 26.667 -10.667 30 -32c-5.33301 -18.667 -14.666 -28 -27.999 -28h-7c-6 0 -12.667 3.33301 -20 10
c-25.333 -27.333 -38 -56.333 -38 -87v-5c10 -10 15 -18.333 15 -25v-8c0 -10.667 -6.66699 -18.667 -20 -24v-15c0 -2.66699 27.667 -12.667 83 -30c18 -11.333 27 -26.333 27 -45v-384c0 -30.667 1 -73.334 3 -128.001c0 -5.33301 5.66699 -11 17 -17
c9.33301 0 26.666 18.333 51.999 55c21.333 34.667 108.666 162.667 261.999 384c10.667 6.66699 24 10.667 40 12c92 -26.667 147 -44.667 165 -54c4 -6 7.33301 -12.667 10 -20c0 -13.333 -63.333 -104 -190 -272c-22.667 -36 -103.334 -148.333 -242.001 -337
c-18 -31.333 -42 -61.333 -72 -90c-6 -3.33301 -12.667 -5 -20 -5h-3c-14 0 -83 20.667 -207 62c-16.667 0 -25 46.667 -25 140l-2 23l2 5c-13.333 333.333 -20.666 565.333 -21.999 696c0 14 10.667 23 32 27c14 -1.33301 35 -7 63 -17v12c-8.66699 8.66699 -13 16 -13 22
v5c0 7.33301 4.33301 15.666 13 24.999v1117c0 2.66699 3.33301 6 10 10zM67.001 918.002c0 -24 15 -38 45 -42c25.333 5.33301 38 20.333 38 45c-6.66699 23.333 -16 35 -28 35v-13c0 -2.66699 -3.33301 -6 -10 -10h-7c-2.66699 0 -6 3.33301 -10 10v13h-3
c-16.667 -9.33301 -25 -22 -25 -38z" />
    <glyph glyph-name="w" unicode="w" horiz-adv-x="1381" 
d="M669 2215h8.00391c2.66699 0 6.33398 -3.33301 11.001 -10v-1224h2c0 10.667 11.333 25.667 34 45c5.33301 20.667 16 31 32 31h2c18 0 28.667 -11.333 32 -34c-5.33301 -19.333 -15 -29 -29 -29h-8c-6 0 -13 3.66699 -21 11c-26 -29.333 -39 -60 -39 -92v-5
c10.667 -10.667 16 -19.334 16 -26.001v-8c0 -7.33301 -5.33301 -16 -16 -26h26c46 0 74 -7 84 -21c8.66699 -19.333 32.334 -108 71.001 -266c33.333 -142 57 -228.333 71 -259l8 -6h2c17.333 0 32.333 32.667 45 98c68 245.333 105.667 383.333 113 414
c10 18.667 19.667 29.334 29 32.001c12.667 5.33301 31.667 8 57 8h113c33.333 0 50 -12.333 50 -37c-22.667 -78 -104 -338.667 -244 -782c-10.667 -52.667 -34.334 -79 -71.001 -79c-22 0 -49 1 -81 3c-32 -2 -53 -3 -63 -3c-34.667 0 -57.334 9.66699 -68.001 29
c-60 226.667 -104.667 391 -134 493c-6.66699 13.333 -13 21.333 -19 24h-8c-10.667 0 -29.667 -61.333 -57 -184c-8.66699 -24.667 -32.334 -119 -71.001 -283c-8.66699 -50.667 -30.667 -76 -66 -76h-162c-32 0 -52.333 12 -61 36c-160.667 508 -246.334 781 -257.001 819
v11c0 19.333 21 29 63 29h100c52 0 78 -6.33301 78 -19c8 0 20.333 -36.667 37 -110c10.667 -31.333 47.334 -165.333 110.001 -402c5.33301 -12 11.666 -19.667 18.999 -23h8c11.333 0 29.666 59.333 54.999 178c33.333 123.333 61.333 236.333 84 339
c7.33301 24.667 32.666 37 75.999 37h29v2c-8.66699 9.33301 -13 17.333 -13 24v5c0 7.33301 4.33301 16 13 26v1300c0 2.66699 3.33301 6 10 10zM630.004 735c0 -25.333 15.667 -40.332 47 -44.999c26 5.33301 39 21 39 47c-6.66699 24.667 -16 37 -28 37v-13
c0 -2.66699 -3.66699 -6.33398 -11 -11.001h-8c-2.66699 0 -6 3.66699 -10 11v13h-3c-17.333 -10 -26 -23 -26 -39z" />
    <glyph glyph-name="x" unicode="x" horiz-adv-x="965" 
d="M385 2214h6.99902c2.66699 0 6 -3.33301 10 -10v-1234h2c0 9.33301 10.667 23 32 41c4.66699 20 14.667 30 30 30h2c16.667 0 26.334 -10.667 29.001 -32c-4.66699 -18 -13.667 -27 -27 -27h-7c-6 0 -12.333 3.33301 -19 10c-24.667 -27.333 -37 -56 -37 -86v-5
c9.33301 -10 14 -18 14 -24v-8c0 -10.667 -6.33301 -18.667 -19 -24v-15c49.333 -10.667 80.333 -25.334 93 -44.001l61 -196c10 -10 15.667 -15 17 -15h10c14 0 60.667 35.333 140 106c23.333 19.333 44.666 29 63.999 29h2c14 0 74.333 -18 181 -54
c8.66699 -5.33301 13 -11.666 13 -18.999v-10c-19.333 -21.333 -83.333 -73 -192 -155c-84 -64 -129.667 -100.667 -137 -110c-6.66699 -8.66699 -10 -17.667 -10 -27c5.33301 -25.333 52 -175.666 140 -450.999l3 -12c0 -9.33301 -7.33301 -16.666 -22 -21.999
c-144 35.333 -216 62.333 -216 81c-6 10.667 -31.333 91.334 -76 242.001c-9.33301 13.333 -18.333 20 -27 20c-10 0 -60.667 -38.333 -152 -115c-43.333 -37.333 -73.666 -56 -90.999 -56c-12 0 -75.667 18.667 -191 56c-8 8.66699 -12 15 -12 19
c0 15.333 36 48.333 108 99c0 1.33301 84 69.666 252 204.999c6.66699 7.33301 13.334 17.333 20.001 30c-4.66699 26 -40.667 144.333 -108 355c-6.66699 15.333 -12.334 35.666 -17.001 60.999v3c5.33301 11.333 14.333 17 27 17c9.33301 -2 40.333 -11 93 -27v7
c-8 8.66699 -12 16 -12 22v5c0 7.33301 4 15.666 12 24.999v1305c0 2.66699 3.33301 6 10 10zM347.999 739c0 -23.333 14.667 -37.001 44 -41.001c24.667 5.33301 37 20 37 44c-6.66699 22.667 -15.667 34 -27 34v-12c0 -2.66699 -3.33301 -6 -10 -10h-7
c-2.66699 0 -6 3.33301 -10 10v12h-3c-16 -9.33301 -24 -21.666 -24 -36.999z" />
    <glyph glyph-name="y" unicode="y" horiz-adv-x="827" 
d="M663 2217l7.99805 0.000976562c2.66699 0 6 -3.33301 10 -10v-1199h2c0 10 10.667 24 32 42c4.66699 20 14.667 30 30 30h2c16.667 0 26.667 -10.667 30 -32c-5.33301 -18 -14.666 -27 -27.999 -27h-7c-6 0 -12.667 3.33301 -20 10c-24 -27.333 -36 -56 -36 -86v-5
c9.33301 -10 14 -18.333 14 -25v-7c0 -11.333 -6.33301 -19.666 -19 -24.999v-7h2c48 14.667 78.333 22 91 22c13.333 0 21.666 -9 24.999 -27c-34.667 -519.333 -59.334 -856 -74.001 -1010c-11.333 -48.667 -22.666 -81.334 -33.999 -98.001
c-40 -54.667 -97.667 -93.334 -173 -116.001c-62 -18 -102.667 -27 -122 -27c-27.333 0 -49.666 49 -66.999 147c0 23.333 24 37.333 72 42c47.333 12.667 79 31.667 95 57c8.66699 20.667 13 43.667 13 69c0 23.333 -51 99.333 -153 228l-356 479v15
c0 17.333 34.333 33 103 47c47.333 16 75.333 24 84 24h12c18 0 39.333 -22 64 -66c12 -16 95.667 -136.333 251 -361c9.33301 -13.333 18.333 -20 27 -20h5c11.333 0 17 35.333 17 106c6.66699 296 12.334 444 17.001 444c0 11.333 24.667 23 74 35v20
c-8.66699 8 -13 15.333 -13 22v5c0 6.66699 4.33301 14.667 13 24v1270c0 2.66699 3 6 9 10zM626.998 777.001c0 -23.333 14.667 -37.002 44 -41.002c24.667 4.66699 37 19.334 37 44.001c-6.66699 22.667 -15.667 34 -27 34v-12c0 -2.66699 -3.33301 -6 -10 -10h-8
c-2 0 -5 3.33301 -9 10v12h-3c-16 -9.33301 -24 -21.666 -24 -36.999z" />
    <glyph glyph-name="z" unicode="z" horiz-adv-x="926" 
d="M527 2214h7.99902c2.66699 0 5.66699 -3 9 -9v-1108h3c0 9.33301 10.667 23 32 41c4.66699 20 14.334 30 29.001 30h3c16 0 25.667 -10.667 29 -32c-5.33301 -18 -14.333 -27 -27 -27h-7c-6 0 -12.667 3.33301 -20 10c-24.667 -27.333 -37 -56 -37 -86v-5
c10 -10 15 -18.333 15 -25v-7c0 -5.33301 -2.33301 -11 -7 -17c50 14.667 78.667 22 86 22c25.333 0 44.666 -35.333 57.999 -106c6.66699 -12 10 -25.667 10 -41c0 -19.333 -27.667 -85 -83 -197c-93.333 -194.667 -149 -315.334 -167 -362.001
c0 -1.33301 -0.666992 -4.66602 -2 -9.99902c0 -2 4 -7.66699 12 -17c22.667 0 95.334 18.667 218.001 56c99.333 31.333 156.666 47 171.999 47c28 0 48.333 -42 61 -126v-9c0 -20.667 -38.333 -38.667 -115 -54c-380 -114.667 -577 -172 -591 -172
c-20.667 0 -38 32.667 -52 98c-6 12.667 -9 26.667 -9 42v12c0 20.667 19.333 68 58 142c0 1.33301 64 138 192 410v17c0 4.66699 -7.33301 8.66699 -22 12h-8c-8 0 -110 -28.667 -306 -86h-5c-23.333 0 -41.333 30.333 -54 91c-5.33301 10.667 -8.66602 24.667 -9.99902 42
c0 22 36.667 40.667 110 56c1.33301 2 137.333 42.333 408 121v7c-8.66699 8.66699 -13 16 -13 22v5c0 6.66699 4.33301 14.667 13 24v1180c0 2 3 5 9 9zM490.999 866c0 -23.333 14.667 -37.334 44 -42.001c24 5.33301 36 20 36 44c-6 23.333 -15 35 -27 35v-13
c0 -2 -3 -5 -9 -9h-8c-2.66699 0 -5.66699 3 -9 9v13h-3c-16 -9.33301 -24 -21.666 -24 -36.999z" />
    <glyph glyph-name="braceleft" unicode="{" 
d="M240 698c114.667 3.33301 188.999 26.999 222.999 70.999s51 88.333 51 133v468c0 49.333 25.667 96.5 77 141.5s113 67.5 185 67.5h108v-50h-90c-40.667 0 -76.334 -11.167 -107.001 -33.5s-46.334 -52.833 -47.001 -91.5v-500
c0 -55.333 -20.167 -108.166 -60.5 -158.499s-87.833 -75.833 -142.5 -76.5v-2c54.667 -0.666992 102.334 -26 143.001 -76s61 -102.667 61 -158l-1 -500c0.666992 -38.667 16.334 -69.167 47.001 -91.5s66.334 -33.5 107.001 -33.5h90v-50h-108
c-72 0 -133.5 22.5 -184.5 67.5s-76.833 92.167 -77.5 141.5v468c0 44 -17 88 -51 132s-108.333 67.667 -223 71v60z" />
    <glyph glyph-name="bar" unicode="|" 
d="M427 1577h160v-1995h-160v1995z" />
    <glyph glyph-name="braceright" unicode="}" 
d="M774 638c-114.667 -3.33301 -189.001 -26.999 -223.001 -70.999s-51 -88 -51 -132v-468c-0.666992 -49.333 -26.5 -96.5 -77.5 -141.5s-112.5 -67.5 -184.5 -67.5h-108v50h90c40.667 0 76.334 11.167 107.001 33.5s46.334 52.833 47.001 91.5l-1 500
c0 55.333 20.333 108 61 158s88.667 75.333 144 76v2c-55.333 0.666992 -103.166 26.167 -143.499 76.5s-60.5 103.166 -60.5 158.499v500c-0.666992 38.667 -16.334 69.167 -47.001 91.5s-66.334 33.5 -107.001 33.5h-90v50h108c72 0 133.667 -22.5 185 -67.5
s77 -92.167 77 -141.5v-468c0 -44.667 17 -89 51 -133s108.333 -67.667 223 -71v-60z" />
    <glyph glyph-name="asciitilde" unicode="~" 
d="M923 878l-0.00195312 -156c-42 -48 -82.667 -80.5 -122 -97.5s-78 -25.5 -116 -25.5c-40 0 -99.167 16.167 -177.5 48.5s-137.166 48.5 -176.499 48.5c-34 0 -69.833 -9.33301 -107.5 -28s-80.834 -56 -129.501 -112v156c42.667 48.667 83.667 81.667 123 99
s77.333 26 114 26c42.667 0 103.167 -16.5 181.5 -49.5s135.833 -49.5 172.5 -49.5c34.667 0 70.834 9.33301 108.501 28s80.834 56 129.501 112z" />
    <glyph glyph-name="exclamdown" unicode="&#xa1;" horiz-adv-x="672" 
 />
    <glyph glyph-name="cent" unicode="&#xa2;" horiz-adv-x="1139" 
 />
    <glyph glyph-name="sterling" unicode="&#xa3;" 
d="M748 1347c-48 20.667 -101.333 30.999 -160 30.999h-2c-66.667 0 -130 -33.667 -190 -101c-56 -62 -84 -142.333 -84 -241c0 -10 0.333008 -20 1 -30c0 -90 17.667 -181 53 -273h360v-60h-334c9.33301 -20 19.666 -40 30.999 -60c23.333 -42 35 -88 35 -138
c0 -107.333 -54 -232.333 -162 -375h402c86.667 0 149.667 44 189 132l49 -1l-103 -231h-719l1 50c124.667 158.667 187 298 187 418c0 51.333 -11.333 99 -34 143c-11.333 21.333 -21.666 42 -30.999 62h-161v60h135c-38.667 95.333 -58 179.666 -58 252.999
c0 150.667 41.167 266.334 123.5 347.001s184.5 121 306.5 121h4c50 0 111.833 -4.66699 185.5 -14s110.5 -20.666 110.5 -33.999v-161h-58c-3.33301 40.667 -29 74.667 -77 102z" />
    <glyph glyph-name="currency" unicode="&#xa4;" 
d="M350 560c27.333 -26.667 60.333 -45.6641 99 -56.9971c19.333 -5.33301 38.666 -8 57.999 -8s38.666 2.66699 57.999 8c38.667 11.333 71.667 30.333 99 57c26.667 27.333 45.667 60.333 57 99c6 19.333 9 38.666 9 57.999s-3 38.666 -9 57.999
c-11.333 38.667 -30.333 71.667 -57 99c-27.333 26.667 -60.666 45.667 -99.999 57c-19.333 5.33301 -38.666 8 -57.999 8s-38.666 -3 -57.999 -9c-38.667 -11.333 -71.334 -30 -98.001 -56c-26 -26.667 -44.667 -59.334 -56 -98.001c-6.66699 -20 -10 -40 -10 -60
c0 -18.667 3 -37.334 9 -56.001c10.667 -39.333 29.667 -72.666 57 -99.999zM240 903.003l-118.001 118l80 81l118 -118c29.333 20 62.333 35.333 99 46c29.333 9.33301 59 14 89 14c27.333 0 55 -4 83 -12c38 -11.333 72 -27.333 102 -48l118 118l80 -81l-117 -117
c20.667 -30.667 36.667 -64.667 48 -102c8 -28 12 -56.333 12 -85c0 -28 -4 -56.333 -12 -85c-11.333 -37.333 -27.333 -71.333 -48 -102l117 -117l-80 -81l-118 118c-30 -21.333 -63.667 -37.333 -101 -48c-28 -8 -56.333 -12 -85 -12c-28 0 -56.333 4 -85 12
c-38 10.667 -72 26.667 -102 48l-118 -118l-80 81l118 117c-21.333 30.667 -37.333 65 -48 103c-8 28 -12 56 -12 84c0 29.333 4.33301 58.333 13 87c10.667 36.667 26.334 69.667 47.001 99z" />
    <glyph glyph-name="yen" unicode="&#xa5;" horiz-adv-x="1262" 
d="M547 225l-1.99707 241.993c0 12.667 -0.5 24.334 -1.5 35.001s-2.5 21.334 -4.5 32.001l-484 1c-9.33301 0 -16.333 2.16699 -21 6.5s-7 10.833 -7 19.5s2.16699 15 6.5 19s11.5 6 21.5 6h467l-121 172h-344c-11.333 0 -19.166 1.83301 -23.499 5.5
s-6.5 9.83398 -6.5 18.501c0 9.33301 2 15.833 6 19.5s11.333 5.5 22 5.5h307c-28.667 38 -64.667 89.667 -108 155c-87.333 131.333 -163 197 -227 197c-4.66699 0 -9 1.83301 -13 5.5s-6 7.5 -6 11.5c0 12.667 3.5 21.834 10.5 27.501s17.833 8.5 32.5 8.5
c18 0 59 -2.66699 123 -8s118.667 -8 164 -8h88c22 0 35.667 -2.16699 41 -6.5s8 -13.166 8 -26.499c0 -5.33301 -5 -10 -15 -14s-22.667 -6 -38 -6c-4 0 -10.167 0.666992 -18.5 2s-14.5 2 -18.5 2c-16 0 -28.5 -3.16699 -37.5 -9.5s-13.5 -14.833 -13.5 -25.5
c0 -12 5.5 -29.333 16.5 -52s26.5 -48.334 46.5 -77.001l158 -221c8.66699 -12.667 19.667 -30.334 33 -53.001c27.333 -46.667 51 -70 71 -70c6 0 11.5 1.66699 16.5 5s9.83301 8.33301 14.5 15l277 396c5.33301 8 9.66602 16.833 12.999 26.5s5 17.834 5 24.501
c0 12 -3.33301 21 -10 27s-19 10.667 -37 14c-10 1.33301 -23.667 2.66602 -41 3.99902c-31.333 2 -47 10.333 -47 25c0 10 2.66699 17.5 8 22.5s13.666 7.5 24.999 7.5c2 0 7 -0.333008 15 -1c37.333 -4.66699 73.333 -7 108 -7h139c20 0 41.667 0.333008 65 1
s35.666 1 36.999 1c7.33301 0 13.5 -1.5 18.5 -4.5s7.83301 -6.83301 8.5 -11.5c0 -18.667 -12.667 -30 -38 -34c-12 -2 -21 -3.66699 -27 -5c-42 -10 -91 -49 -147 -117l-12 -15l-169 -206h323c10 0 18 -2 24 -6s9 -9.66699 9 -17c0 -10 -2 -16.833 -6 -20.5
s-11.667 -5.5 -23 -5.5h-366c-30.667 -38 -62.834 -75.5 -96.501 -112.5s-51.167 -56.833 -52.5 -59.5h511c12 0 20.5 -1.83301 25.5 -5.5s7.5 -9.5 7.5 -17.5c0 -9.33301 -2.33301 -16.333 -7 -21s-12 -7 -22 -7h-530c0 -7.33301 -0.333008 -17.5 -1 -30.5
s-1 -22.833 -1 -29.5l2 -215c0 -76 1.83301 -126 5.5 -150s10.5 -38.667 20.5 -44c20 -11.333 55.833 -17.666 107.5 -18.999s77.5 -11.666 77.5 -30.999c0 -8 -3.33301 -14.667 -10 -20s-15 -8 -25 -8c-1.33301 0 -13.166 1.33301 -35.499 4s-43.833 4 -64.5 4
c-60.667 0 -130.167 -1.33301 -208.5 -4s-125.833 -4 -142.5 -4c-20.667 0 -34 1.33301 -40 4s-9 8 -9 16s2.66699 14.167 8 18.5s17.666 8.5 36.999 12.5c6 1.33301 14.333 3 25 5c49.333 10.667 80 21.334 92 32.001c11.333 8.66699 19.333 24.334 24 47.001
s7 56.667 7 102z" />
    <glyph glyph-name="brokenbar" unicode="&#xa6;" 
d="M427 371h160v-789h-160v789zM427 1578h160v-789h-160v789z" />
    <glyph glyph-name="section" unicode="&#xa7;" 
d="M545 321c37.333 10.667 69.668 28.3359 97.001 53.0029c48.667 43.333 73 98.666 73 165.999c0 3.33301 -0.333008 6.66602 -1 9.99902h-2c-0.666992 9.33301 -2 18.333 -4 27c-14.667 40.667 -52.334 83 -113.001 127c-39.333 19.333 -81.333 29 -126 29
c-52 0 -93.667 -14.833 -125 -44.5s-47 -68.834 -47 -117.501c0 -82 82.667 -165.333 248 -250zM466.002 -345.998c75.333 4 137.001 26.9971 185.001 68.9971c48 42.667 72 97.667 72 165c0 83.333 -105.333 175.333 -316 276c-82 42.667 -140.5 88.334 -175.5 137.001
s-52.5 107.667 -52.5 177c0 98.667 29.667 177.667 89 237c44.667 43.333 101.334 70.666 170.001 81.999l-40 19c-82 42.667 -140.5 88.334 -175.5 137.001s-52.5 107.667 -52.5 177c0 98.667 29.667 177.667 89 237c54.667 52.667 126.667 81.334 216 86.001
c5.33301 0.666992 11 1 17 1h3c44 0 98.333 -5.5 163 -16.5s97 -24.833 97 -41.5v-194h-51c-3.33301 54 -30 98 -80 132c-46.667 31.333 -96.334 48.333 -149.001 51h-15c-52 0 -93.667 -14.833 -125 -44.5s-47 -68.834 -47 -117.501c0 -88 95.667 -177.667 287 -269
c99.333 -44.667 167.5 -92.5 204.5 -143.5s55.5 -113.5 55.5 -187.5c0 -114 -33.667 -208 -101 -282c-31.333 -26 -64.333 -47.333 -99 -64c72 -37.333 123.333 -76.666 154 -117.999c36.667 -51.333 55 -113.666 55 -186.999c0 -114 -33.667 -208.333 -101 -283
c-82.667 -68 -175 -103 -277 -105v1c-4 -0.666992 -8.33301 -1 -13 -1h-3c-44 0 -98.333 5.5 -163 16.5s-97 24.833 -97 41.5v194h51c3.33301 -54 30 -98 80 -132c45.333 -30 93.666 -46.667 144.999 -50z" />
    <glyph glyph-name="dieresis" unicode="&#xa8;" horiz-adv-x="1024" 
d="M223 1289l70.998 71.998c8.66699 8 17 12 25 12c7.33301 0 16.333 -4.66699 27 -14l69 -73c6.66699 -9.33301 10 -17.666 10 -24.999c0 -8.66699 -4 -17.667 -12 -27l-69 -75c-11.333 -11.333 -19.666 -17 -24.999 -17c-9.33301 0 -17.666 4 -24.999 12l-76 86
c-6 8 -9 15.667 -9 23c0 8.66699 4.66699 17.334 14 26.001zM587.998 1289l70.998 72c8.66699 8 17 12 25 12c7.33301 0 16.333 -4.33301 27 -13l69 -74c6.66699 -9.33301 10 -17.666 10 -24.999c0 -8.66699 -4 -17.334 -12 -26.001l-69 -76
c-11.333 -11.333 -19.666 -17 -24.999 -17c-9.33301 0 -17.666 4 -24.999 12l-76 87c-6 7.33301 -9 14.666 -9 21.999c0 8.66699 4.66699 17.334 14 26.001z" />
    <glyph glyph-name="copyright" unicode="&#xa9;" horiz-adv-x="1674" 
d="M840 1456c96.667 0 190 -18.835 280 -56.502s169.667 -91.167 239 -160.5c68 -67.333 120.833 -146.666 158.5 -237.999s56.5 -185.666 56.5 -282.999c0 -98 -18.833 -192 -56.5 -282s-91.834 -170 -162.501 -240c-70 -70 -149.667 -123.167 -239 -159.5
s-183.666 -54.5 -282.999 -54.5c-97.333 0 -190 18.5 -278 55.5s-167.333 90.5 -238 160.5c-70.667 69.333 -124.5 148.5 -161.5 237.5s-55.5 183.167 -55.5 282.5c0 98.667 18.5 193 55.5 283s90.167 169.333 159.5 238c68 69.333 147.5 122.833 238.5 160.5
s186.5 56.5 286.5 56.5zM357 1197c-63.333 -64 -112.004 -137.168 -146.004 -219.501s-51 -168.833 -51 -259.5c0 -91.333 17 -177.666 51 -258.999s83.333 -154.333 148 -219c65.333 -64 138.333 -113 219 -147s166 -51 256 -51c91.333 0 177.833 16.833 259.5 50.5
s154.834 82.167 219.501 145.5c64.667 65.333 114.334 139.166 149.001 221.499s52 168.5 52 258.5c0 89.333 -17.333 175.833 -52 259.5s-83 156.834 -145 219.501c-64 64 -137.333 113.167 -220 147.5s-168.667 51.5 -258 51.5c-91.333 0 -178.666 -17.167 -261.999 -51.5
s-156.666 -83.5 -219.999 -147.5zM864.996 222.997c-94.667 0 -182.669 22.6689 -264.002 68.002s-143.333 107 -186 185s-64 159 -64 243s21.833 165.333 65.5 244s106.167 140.167 187.5 184.5s166 66.5 254 66.5c25.333 0 50.333 -2.16699 75 -6.5s50 -11.166 76 -20.499
c3.33301 -0.666992 6.33301 -1 9 -1c12.667 0 21.334 10 26.001 30h42l72 -198h-44c-34.667 62.667 -78.334 104 -131.001 124c-48 17.333 -97 26 -147 26h-15c-57.333 -5.33301 -112.833 -29 -166.5 -71s-94.167 -101 -121.5 -177c-22 -60 -33 -121.333 -33 -184
c0 -16.667 0.666992 -33.334 2 -50.001c7.33301 -80.667 30.5 -155.334 69.5 -224.001s88.833 -119.334 149.5 -152.001c48 -26.667 103.333 -40.667 166 -42c82.667 0 147.334 18.667 194.001 56s70 79.333 70 126h53v-100c0 -30.667 -32.167 -59.5 -96.5 -86.5
s-145.166 -40.5 -242.499 -40.5zM815.994 2222l12.001 -0.000976562c4 0 9.33301 -5.33301 16 -16v-656c10.667 -11.333 16 -22 16 -32v-12c0 -9.33301 -5.33301 -20 -16 -32v-108c0 -4 -5.33301 -9.33301 -16 -16h-12c-4 0 -9.33301 5.33301 -16 16v100
c-20.667 0 -32.667 16 -36 48c5.33301 26.667 14.666 40 27.999 40c0 55.333 -21.333 106 -64 152c-11.333 -10.667 -22 -16 -32 -16h-12c-20 0 -34.667 14.667 -44 44c5.33301 34.667 21.333 52 48 52h4c22 0 40.667 -18.667 56 -56
c23.333 -15.333 39.333 -36.666 48 -63.999h4v540c0 4 5.33301 9.33301 16 16z" />
    <glyph glyph-name="ordfeminine" unicode="&#xaa;" horiz-adv-x="648" 
 />
    <glyph glyph-name="guillemotleft" unicode="&#xab;" horiz-adv-x="944" 
d="M174 479l342 303h14v-37l-205 -266l205 -266v-37h-14zM487 479l342 303h14v-37l-205 -266l205 -266v-37h-14z" />
    <glyph glyph-name="logicalnot" unicode="&#xac;" 
d="M87 767h840v-491l-1 -1h-98v392h-741v100z" />
    <glyph glyph-name="registered" unicode="&#xae;" horiz-adv-x="1674" 
d="M751 1099l0.000976562 -373.998l3 -8c15.333 -37.333 34 -64.333 56 -81c19.333 -14.667 38 -22 56 -22h6c20.667 2.66699 41.167 15.5 61.5 38.5s35.833 55.5 46.5 97.5c8.66699 33.333 13 67.666 13 102.999c0 8.66699 -0.333008 17.667 -1 27
c-2.66699 44.667 -12 86.167 -28 124.5s-34.833 63.666 -56.5 75.999s-42.834 18.5 -63.501 18.5h-93zM984.001 576.002l81.999 -116c66.667 -94 116.667 -141 150 -141h34v-50h-346v50h45c20 0 30 7.33301 30 22c0 19.333 -23 57.333 -69 114l-75 102c-28 0 -56 14 -84 42
v-159c0 -80.667 12 -121 36 -121h53v-50h-316v50h43c24.667 0 37 40.333 37 121v538c0 80.667 -12.333 121 -37 121h-43v70h356c42.667 -0.666992 84.334 -14.667 125.001 -42c40 -27.333 70.833 -65.333 92.5 -114s32.5 -99.334 32.5 -152.001
c0 -52 -10.667 -102.167 -32 -150.5s-59.333 -93.166 -114 -134.499zM840 1456c96.667 0 190 -18.835 280 -56.502s169.667 -91.167 239 -160.5c68 -67.333 120.833 -146.666 158.5 -237.999s56.5 -185.666 56.5 -282.999c0 -98 -18.833 -192 -56.5 -282
s-91.834 -170 -162.501 -240c-70 -70 -149.667 -123.167 -239 -159.5s-183.666 -54.5 -282.999 -54.5c-97.333 0 -190 18.5 -278 55.5s-167.333 90.5 -238 160.5c-70.667 69.333 -124.5 148.5 -161.5 237.5s-55.5 183.167 -55.5 282.5c0 98.667 18.5 193 55.5 283
s90.167 169.333 159.5 238c68 69.333 147.5 122.833 238.5 160.5s186.5 56.5 286.5 56.5zM357 1197c-63.333 -64 -112.004 -137.168 -146.004 -219.501s-51 -168.833 -51 -259.5c0 -91.333 17 -177.666 51 -258.999s83.333 -154.333 148 -219
c65.333 -64 138.333 -113 219 -147s166 -51 256 -51c91.333 0 177.833 16.833 259.5 50.5s154.834 82.167 219.501 145.5c64.667 65.333 114.334 139.166 149.001 221.499s52 168.5 52 258.5c0 89.333 -17.333 175.833 -52 259.5s-83 156.834 -145 219.501
c-64 64 -137.333 113.167 -220 147.5s-168.667 51.5 -258 51.5c-91.333 0 -178.666 -17.167 -261.999 -51.5s-156.666 -83.5 -219.999 -147.5zM815.996 2222l12.001 -0.000976562c4 0 9.33301 -5.33301 16 -16v-656c10.667 -11.333 16 -22 16 -32v-12
c0 -9.33301 -5.33301 -20 -16 -32v-108c0 -4 -5.33301 -9.33301 -16 -16h-12c-4 0 -9.33301 5.33301 -16 16v100c-20.667 0 -32.667 16 -36 48c5.33301 26.667 14.666 40 27.999 40c0 55.333 -21.333 106 -64 152c-11.333 -10.667 -22 -16 -32 -16h-12
c-20 0 -34.667 14.667 -44 44c5.33301 34.667 21.333 52 48 52h4c22 0 40.667 -18.667 56 -56c23.333 -15.333 39.333 -36.666 48 -63.999h4v540c0 4 5.33301 9.33301 16 16z" />
    <glyph glyph-name="macron" unicode="&#xaf;" horiz-adv-x="670" 
 />
    <glyph glyph-name="degree" unicode="&#xb0;" horiz-adv-x="674" 
d="M339 1372c-57.333 0 -106.501 -20.333 -147.501 -61s-61.5 -90 -61.5 -148s20.333 -107 61 -147s90 -60 148 -60s107 20 147 60s60 89 60 147s-20.167 107.333 -60.5 148s-89.166 61 -146.499 61zM338.999 1442c76.667 0 142.002 -27.167 196.002 -81.5
s81 -119.833 81 -196.5c0 -76 -27.333 -141.333 -82 -196s-120.334 -82 -197.001 -82c-78 0 -143.667 27 -197 81s-80 119.667 -80 197s27.167 143 81.5 197s120.166 81 197.499 81z" />
    <glyph glyph-name="plusminus" unicode="&#xb1;" 
 />
    <glyph glyph-name="uni00B2" unicode="&#xb2;" 
 />
    <glyph glyph-name="uni00B3" unicode="&#xb3;" 
 />
    <glyph glyph-name="acute" unicode="&#xb4;" horiz-adv-x="1024" 
d="M607 1375c23.333 23.333 41.833 38.999 55.5 46.999s27.167 12 40.5 12c22 0 39.833 -6.66699 53.5 -20s20.5 -30.333 20.5 -51c0 -14.667 -5.16699 -28.667 -15.5 -42s-25.833 -26.666 -46.5 -39.999l-330 -203h-69z" />
    <glyph glyph-name="mu" unicode="&#xb5;" horiz-adv-x="1180" 
 />
    <glyph glyph-name="paragraph" unicode="&#xb6;" horiz-adv-x="1024" 
d="M929 1435l-0.000976562 -70h-127v-1365h-82v1365h-166v-1365h-84v738c-116 5.33301 -207.833 39.5 -275.5 102.5s-101.5 144.833 -101.5 245.5c0 104.667 35.833 189 107.5 253s166.834 96 285.501 96h443z" />
    <glyph glyph-name="periodcentered" unicode="&#xb7;" horiz-adv-x="557" 
d="M165 2218h6.99902c2.66699 0 6 -3.33301 10 -10v-1966c5.33301 -14.667 8 -23 8 -25v-2c0 -8.66699 -2.66699 -16 -8 -22v-15h57c29.333 0 44 -13 44 -39v-157c0 -30 -7.33301 -45 -22 -45c0 -3.33301 -16.333 -5.66602 -49 -6.99902h-113c-44.667 0 -67 12.333 -67 37
c-1.33301 15.333 -2 30 -2 44v118c0 24.667 9.66699 41 29 49h96v7c-12.667 0 -20.667 9 -24 27v5c0 9.33301 5.66699 17.666 17 24.999c0 34 -13 65 -39 93c-0.666992 -2 -5 -5.33301 -13 -10h-12c-18 2.66699 -27 11.667 -27 27v5c0 14 9 23 27 27h5
c14.667 0 24.334 -10.667 29.001 -32c23.333 -18 35 -33.333 35 -46h2v1902c0 2.66699 3.33301 6 10 10zM127.999 99c5.33301 -26 20.001 -38.999 44.001 -38.999c19.333 0 31.666 13 36.999 39c0 15.333 -7.33301 27.666 -22 36.999h-5c0 -12.667 -3.33301 -19 -10 -19h-7
c-4 0 -8 6.33301 -12 19c-16.667 -8.66699 -25 -21 -25 -37z" />
    <glyph glyph-name="periodcentered" unicode="&#x2219;" horiz-adv-x="557" 
d="M165 2218h6.99902c2.66699 0 6 -3.33301 10 -10v-1966c5.33301 -14.667 8 -23 8 -25v-2c0 -8.66699 -2.66699 -16 -8 -22v-15h57c29.333 0 44 -13 44 -39v-157c0 -30 -7.33301 -45 -22 -45c0 -3.33301 -16.333 -5.66602 -49 -6.99902h-113c-44.667 0 -67 12.333 -67 37
c-1.33301 15.333 -2 30 -2 44v118c0 24.667 9.66699 41 29 49h96v7c-12.667 0 -20.667 9 -24 27v5c0 9.33301 5.66699 17.666 17 24.999c0 34 -13 65 -39 93c-0.666992 -2 -5 -5.33301 -13 -10h-12c-18 2.66699 -27 11.667 -27 27v5c0 14 9 23 27 27h5
c14.667 0 24.334 -10.667 29.001 -32c23.333 -18 35 -33.333 35 -46h2v1902c0 2.66699 3.33301 6 10 10zM127.999 99c5.33301 -26 20.001 -38.999 44.001 -38.999c19.333 0 31.666 13 36.999 39c0 15.333 -7.33301 27.666 -22 36.999h-5c0 -12.667 -3.33301 -19 -10 -19h-7
c-4 0 -8 6.33301 -12 19c-16.667 -8.66699 -25 -21 -25 -37z" />
    <glyph glyph-name="cedilla" unicode="&#xb8;" horiz-adv-x="1024" 
d="M360 -290c56.667 -34.667 107.333 -52 152 -52c44 0 75.5 7.16699 94.5 21.5s28.5 36.5 28.5 66.5s-16.333 51.333 -49 64c-26.667 10.667 -60.667 16 -102 16c-10.667 0 -22 -0.666992 -34 -2l48 176h63l-37 -104c21.333 2.66699 42 4.33398 62 5.00098
c57.333 0 102 -13.5 134 -40.5s48 -64.833 48 -113.5c0 -50.667 -19.5 -90.834 -58.5 -120.501s-92.5 -44.5 -160.5 -44.5c-72.667 0 -135.667 10.667 -189 32v96z" />
    <glyph glyph-name="uni00B9" unicode="&#xb9;" 
 />
    <glyph glyph-name="ordmasculine" unicode="&#xba;" horiz-adv-x="718" 
 />
    <glyph glyph-name="guillemotright" unicode="&#xbb;" horiz-adv-x="944" 
d="M115 176h-14v37l205 266l-205 266v37h14l342 -303zM428 176h-14v37l205 266l-205 266v37h14l342 -303z" />
    <glyph glyph-name="onequarter" unicode="&#xbc;" horiz-adv-x="1708" 
 />
    <glyph glyph-name="onehalf" unicode="&#xbd;" horiz-adv-x="1964" 
 />
    <glyph glyph-name="threequarters" unicode="&#xbe;" horiz-adv-x="1708" 
 />
    <glyph glyph-name="questiondown" unicode="&#xbf;" horiz-adv-x="748" 
 />
    <glyph glyph-name="Agrave" unicode="&#xc0;" horiz-adv-x="1540" 
 />
    <glyph glyph-name="Aacute" unicode="&#xc1;" horiz-adv-x="1540" 
 />
    <glyph glyph-name="Acircumflex" unicode="&#xc2;" horiz-adv-x="1540" 
 />
    <glyph glyph-name="Atilde" unicode="&#xc3;" horiz-adv-x="1540" 
 />
    <glyph glyph-name="Adieresis" unicode="&#xc4;" horiz-adv-x="1540" 
 />
    <glyph glyph-name="Aring" unicode="&#xc5;" horiz-adv-x="1540" 
 />
    <glyph glyph-name="AE" unicode="&#xc6;" horiz-adv-x="2118" 
 />
    <glyph glyph-name="Ccedilla" unicode="&#xc7;" horiz-adv-x="1399" 
 />
    <glyph glyph-name="Egrave" unicode="&#xc8;" horiz-adv-x="1151" 
 />
    <glyph glyph-name="Eacute" unicode="&#xc9;" horiz-adv-x="1151" 
 />
    <glyph glyph-name="Ecircumflex" unicode="&#xca;" horiz-adv-x="1151" 
 />
    <glyph glyph-name="Edieresis" unicode="&#xcb;" horiz-adv-x="1151" 
 />
    <glyph glyph-name="Igrave" unicode="&#xcc;" horiz-adv-x="657" 
 />
    <glyph glyph-name="Iacute" unicode="&#xcd;" horiz-adv-x="657" 
 />
    <glyph glyph-name="Icircumflex" unicode="&#xce;" horiz-adv-x="657" 
 />
    <glyph glyph-name="Idieresis" unicode="&#xcf;" horiz-adv-x="657" 
 />
    <glyph glyph-name="Eth" unicode="&#xd0;" horiz-adv-x="1518" 
 />
    <glyph glyph-name="Ntilde" unicode="&#xd1;" horiz-adv-x="1554" 
 />
    <glyph glyph-name="Ograve" unicode="&#xd2;" horiz-adv-x="1614" 
 />
    <glyph glyph-name="Oacute" unicode="&#xd3;" horiz-adv-x="1614" 
 />
    <glyph glyph-name="Ocircumflex" unicode="&#xd4;" horiz-adv-x="1614" 
 />
    <glyph glyph-name="Otilde" unicode="&#xd5;" horiz-adv-x="1614" 
 />
    <glyph glyph-name="Odieresis" unicode="&#xd6;" horiz-adv-x="1614" 
 />
    <glyph glyph-name="multiply" unicode="&#xd7;" 
d="M507 618l-247 -247l-99 99l247 247l-247 248l99 98l247 -247l248 247l98 -99l-247 -247l247 -247l-99 -99z" />
    <glyph glyph-name="Oslash" unicode="&#xd8;" horiz-adv-x="1614" 
 />
    <glyph glyph-name="Ugrave" unicode="&#xd9;" horiz-adv-x="1501" 
 />
    <glyph glyph-name="Uacute" unicode="&#xda;" horiz-adv-x="1501" 
 />
    <glyph glyph-name="Ucircumflex" unicode="&#xdb;" horiz-adv-x="1501" 
 />
    <glyph glyph-name="Udieresis" unicode="&#xdc;" horiz-adv-x="1501" 
 />
    <glyph glyph-name="Yacute" unicode="&#xdd;" horiz-adv-x="1233" 
 />
    <glyph glyph-name="Thorn" unicode="&#xde;" horiz-adv-x="1120" 
 />
    <glyph glyph-name="germandbls" unicode="&#xdf;" horiz-adv-x="1251" 
 />
    <glyph glyph-name="agrave" unicode="&#xe0;" horiz-adv-x="922" 
 />
    <glyph glyph-name="aacute" unicode="&#xe1;" horiz-adv-x="922" 
 />
    <glyph glyph-name="acircumflex" unicode="&#xe2;" horiz-adv-x="922" 
 />
    <glyph glyph-name="atilde" unicode="&#xe3;" horiz-adv-x="922" 
 />
    <glyph glyph-name="adieresis" unicode="&#xe4;" horiz-adv-x="922" 
 />
    <glyph glyph-name="aring" unicode="&#xe5;" horiz-adv-x="922" 
 />
    <glyph glyph-name="ae" unicode="&#xe6;" horiz-adv-x="1454" 
 />
    <glyph glyph-name="ccedilla" unicode="&#xe7;" horiz-adv-x="905" 
 />
    <glyph glyph-name="egrave" unicode="&#xe8;" horiz-adv-x="909" 
 />
    <glyph glyph-name="eacute" unicode="&#xe9;" horiz-adv-x="909" 
 />
    <glyph glyph-name="ecircumflex" unicode="&#xea;" horiz-adv-x="909" 
 />
    <glyph glyph-name="edieresis" unicode="&#xeb;" horiz-adv-x="909" 
 />
    <glyph glyph-name="igrave" unicode="&#xec;" horiz-adv-x="514" 
 />
    <glyph glyph-name="iacute" unicode="&#xed;" horiz-adv-x="514" 
 />
    <glyph glyph-name="icircumflex" unicode="&#xee;" horiz-adv-x="514" 
 />
    <glyph glyph-name="idieresis" unicode="&#xef;" horiz-adv-x="514" 
 />
    <glyph glyph-name="eth" unicode="&#xf0;" horiz-adv-x="1139" 
 />
    <glyph glyph-name="ntilde" unicode="&#xf1;" horiz-adv-x="1108" 
 />
    <glyph glyph-name="ograve" unicode="&#xf2;" horiz-adv-x="1010" 
 />
    <glyph glyph-name="oacute" unicode="&#xf3;" horiz-adv-x="1010" 
 />
    <glyph glyph-name="ocircumflex" unicode="&#xf4;" horiz-adv-x="1010" 
 />
    <glyph glyph-name="otilde" unicode="&#xf5;" horiz-adv-x="1010" 
 />
    <glyph glyph-name="odieresis" unicode="&#xf6;" horiz-adv-x="1010" 
 />
    <glyph glyph-name="divide" unicode="&#xf7;" 
d="M87 647v140h839l1 -1v-139h-840zM398 408l82.001 84c10 9.33301 19.667 14 29 14c8.66699 0 19 -5.33301 31 -16l80 -86c8 -10.667 12 -20.334 12 -29.001c0 -10 -4.66699 -20.333 -14 -31l-80 -88c-13.333 -13.333 -23 -20 -29 -20
c-10.667 0 -20.334 4.66699 -29.001 14l-88 101c-6.66699 8.66699 -10 17.334 -10 26.001c0 10 5.33301 20.333 16 31zM398.001 1101l82.001 84c10 9.33301 19.667 14 29 14c8.66699 0 19 -5.33301 31 -16l80 -86c8 -10.667 12 -20.334 12 -29.001
c0 -10 -4.66699 -20.333 -14 -31l-80 -88c-13.333 -13.333 -23 -20 -29 -20c-10.667 0 -20.334 4.66699 -29.001 14l-88 101c-6.66699 8.66699 -10 17.334 -10 26.001c0 10 5.33301 20.333 16 31z" />
    <glyph glyph-name="oslash" unicode="&#xf8;" horiz-adv-x="1010" 
 />
    <glyph glyph-name="ugrave" unicode="&#xf9;" horiz-adv-x="1059" 
 />
    <glyph glyph-name="uacute" unicode="&#xfa;" horiz-adv-x="1059" 
 />
    <glyph glyph-name="ucircumflex" unicode="&#xfb;" horiz-adv-x="1059" 
 />
    <glyph glyph-name="udieresis" unicode="&#xfc;" horiz-adv-x="1059" 
 />
    <glyph glyph-name="yacute" unicode="&#xfd;" horiz-adv-x="868" 
 />
    <glyph glyph-name="thorn" unicode="&#xfe;" horiz-adv-x="1010" 
 />
    <glyph glyph-name="ydieresis" unicode="&#xff;" horiz-adv-x="868" 
 />
    <glyph glyph-name="dotlessi" unicode="&#x131;" horiz-adv-x="514" 
d="M328 223c0 -115.333 33.333 -173 100 -173h46v-50h-442v50h46c66.667 0 100 57.667 100 173v432c0 51.333 -37 77 -111 77h-48v44c148 46 235 106.667 261 182h48v-735z" />
    <glyph glyph-name="circumflex" unicode="&#x2c6;" horiz-adv-x="1024" 
d="M221 1079l232 355h118l232 -355h-58l-233 216l-233 -216h-58z" />
    <glyph glyph-name="caron" unicode="&#x2c7;" horiz-adv-x="1024" 
d="M221 1434h58l233 -214l233 214h58l-232 -356h-118z" />
    <glyph glyph-name="uni02C9" unicode="&#x2c9;" horiz-adv-x="1024" 
d="M254 1195v125h516v-125h-516z" />
    <glyph glyph-name="breve" unicode="&#x2d8;" horiz-adv-x="1024" 
d="M219 1349l50.998 0.00292969c11.333 -48.667 36.333 -84.334 75 -107.001s94.334 -34 167.001 -34s128 11.167 166 33.5s62.667 58.166 74 107.499h51c-13.333 -88.667 -44.666 -155.834 -93.999 -201.501s-115 -68.5 -197 -68.5c-81.333 0 -147 23 -197 69
s-82 113 -96 201z" />
    <glyph glyph-name="dotaccent" unicode="&#x2d9;" horiz-adv-x="1024" 
d="M422 1289l69 71.999c4 4 8.33301 7 13 9s9.33398 3 14.001 3c4 0 8.16699 -1 12.5 -3s8.5 -5 12.5 -9l71 -76c3.33301 -2.66699 5.66602 -6 6.99902 -10s2 -8.66699 2 -14c-0.666992 -6 -1.66699 -11 -3 -15s-4 -8 -8 -12l-71 -76c-8 -7.33301 -13.333 -11.833 -16 -13.5
s-5 -2.5 -7 -2.5c-6.66699 0 -12.167 0.833008 -16.5 2.5s-7.83301 4.5 -10.5 8.5l-75 87c-2.66699 2.66699 -4.66699 5.83398 -6 9.50098s-2 8.16699 -2 13.5c0 4 1 8.16699 3 12.5s5.66699 8.83301 11 13.5z" />
    <glyph glyph-name="ring" unicode="&#x2da;" horiz-adv-x="1024" 
d="M411 1257c0 -28 9.66699 -51.667 29 -71s43 -29 71 -29s51.667 9.66699 71 29s29 43 29 71c0 26.667 -9.83301 49.834 -29.5 69.501s-43.167 29.5 -70.5 29.5s-50.833 -9.83301 -70.5 -29.5s-29.5 -42.834 -29.5 -69.501zM335 1257c0 50 17 91.999 51 125.999
s75.667 51 125 51c50.667 0 93.167 -17.167 127.5 -51.5s51.5 -76.166 51.5 -125.499c0 -50 -17.167 -92.167 -51.5 -126.5s-76.833 -51.5 -127.5 -51.5c-49.333 0 -91 17.167 -125 51.5s-51 76.5 -51 126.5z" />
    <glyph glyph-name="ogonek" unicode="&#x2db;" horiz-adv-x="1024" 
d="M640 0c-47.333 -41.333 -84.168 -81.1699 -110.501 -119.503s-39.5 -75.833 -39.5 -112.5c0 -31.333 9 -56.333 27 -75s42.333 -28 73 -28c26.667 0 49.834 5.16699 69.501 15.5s36.167 26.5 49.5 48.5l28 -16c-24 -42 -54.167 -74.333 -90.5 -97
s-76.166 -34 -119.499 -34c-46.667 0 -84.667 11.833 -114 35.5s-44 53.834 -44 90.501c0 50.667 20.167 102.834 60.5 156.501s94.166 98.834 161.499 135.501h49z" />
    <glyph glyph-name="tilde" unicode="&#x2dc;" horiz-adv-x="1024" 
d="M808 1382c-13.333 -68.667 -36.1689 -120 -68.502 -154s-74.5 -51 -126.5 -51h-4c-33.333 0 -71 7.66699 -113 23c-44 16 -82 24 -114 24c-26 0 -46.167 -6.83301 -60.5 -20.5s-25.5 -37.5 -33.5 -71.5h-54c12.667 70.667 35.334 123.5 68.001 158.5
s75.667 52.5 129 52.5c30.667 -0.666992 68.334 -8.66699 113.001 -24c42.667 -15.333 80 -23 112 -23h4c24 0 43.333 6.66699 58 20s26.667 35.333 36 66h54z" />
    <glyph glyph-name="hungarumlaut" unicode="&#x2dd;" horiz-adv-x="1024" 
d="M217 1079l144 273.002c16 29.333 31.167 50.333 45.5 63s29.833 19 46.5 19c18.667 0 34.667 -6.66699 48 -20s20 -29 20 -47c0 -10.667 -3.5 -22.334 -10.5 -35.001s-17.167 -26.334 -30.5 -41.001l-205 -212h-58zM502 1079l144 273.002
c16 29.333 31.167 50.333 45.5 63s29.833 19 46.5 19c18.667 0 34.667 -6.66699 48 -20s20 -29 20 -47c0 -10.667 -3.5 -22.334 -10.5 -35.001s-17.167 -26.334 -30.5 -41.001l-205 -212h-58z" />
    <glyph glyph-name="endash" unicode="&#x2013;" horiz-adv-x="1108" 
d="M56 419v120h996v-120h-996z" />
    <glyph glyph-name="emdash" unicode="&#x2014;" horiz-adv-x="2048" 
d="M0 419v120h2048v-120h-2048z" />
    <glyph glyph-name="quoteleft" unicode="&#x2018;" horiz-adv-x="557" 
d="M99 2208v-507.001h2c4.66699 14.667 13 26 25 34c8 20 18 30 30 30h2c14 0 22.333 -9.33301 25 -28c-4.66699 -15.333 -12.334 -23 -23.001 -23h-6c-5.33301 0 -11 2.66699 -17 8c-22.667 -24 -34 -50.667 -34 -80c7.33301 0 12.333 -7 15 -21
c0 -8.66699 -4.33301 -17 -13 -25h51c28 0 42 -14 42 -42v-122c0 -32.667 -14 -49 -42 -49c-32.667 0 -49 -12.667 -49 -38c2 0 3 -2.66699 3 -8c15.333 -45.333 38.333 -75 69 -89c12.667 -8 19 -28.333 19 -61c-4 -18 -11.667 -27 -23 -27h-6
c-13.333 0 -29.666 5 -48.999 15c-80 48 -120 116 -120 204c1.33301 20.667 2 38.334 2 53.001v124c0 26.667 11.333 40 34 40h40v4c-6 6 -9 11.667 -9 17v6c0 5.33301 3 11 9 17v568c3.33301 5.33301 6 8 8 8h7c5.33301 -3.33301 8 -6 8 -8zM57 1527
c3.33301 -20 12.334 -30 27.001 -30c15.333 0 24.666 10.667 27.999 32c-4.66699 15.333 -9 23 -13 23c0 -11.333 -2.66699 -17 -8 -17h-7c-5.33301 0 -8 7 -8 21c-12.667 -6 -19 -15.667 -19 -29z" />
    <glyph glyph-name="quoteright" unicode="&#x2019;" horiz-adv-x="557" 
d="M107 2216l7 0.000976562c2 0 4.66699 -2.66699 8 -8v-568c6 -6 9 -11.667 9 -17v-6c0 -5.33301 -3 -11 -9 -17v-4h40c22.667 0 34 -13.333 34 -40v-124c0 -14.667 0.666992 -32.334 2 -53.001c0 -88 -40 -156 -120 -204c-19.333 -10 -35.666 -15 -48.999 -15h-6
c-11.333 0 -19 9 -23 27c0 32.667 6.33301 53 19 61c30.667 14 53.667 43.667 69 89c0 5.33301 1 8 3 8c0 25.333 -16.333 38 -49 38c-28 0 -42 16.333 -42 49v122c0 28 14 42 42 42h51c-8.66699 8 -13 16.333 -13 25c2.66699 14 7.66699 21 15 21
c0 29.333 -11.333 56 -34 80c-6 -5.33301 -11.667 -8 -17 -8h-6c-10.667 0 -18.334 7.66699 -23.001 23c2.66699 18.667 11 28 25 28h2c12 0 22 -10 30 -30c12 -8 20.333 -19.333 25 -34h2v507c0 2 2.66699 4.66699 8 8zM122 1556c0 -14 -2.66602 -21 -7.99902 -21h-7
c-5.33301 0 -8 5.66699 -8 17c-4 0 -8.33301 -7.66699 -13 -23c3.33301 -21.333 12.666 -32 27.999 -32c14.667 0 23.667 10 27 30c0 13.333 -6.33301 23 -19 29z" />
    <glyph glyph-name="quotesinglbase" unicode="&#x201a;" horiz-adv-x="557" 
d="M238 281c29.333 0 58.832 -21.833 88.499 -65.5s44.5 -94.167 44.5 -151.5c0 -72.667 -23.667 -148.167 -71 -226.5s-93.666 -117.5 -138.999 -117.5v43c48.667 28.667 77.667 92 87 190c0 79.333 -43 133 -129 161v42z" />
    <glyph glyph-name="quotedblleft" unicode="&#x201c;" horiz-adv-x="557" 
d="M99 2208v-507.001h2c4.66699 14.667 13 26 25 34c8 20 18 30 30 30h2c14 0 22.333 -9.33301 25 -28c-4.66699 -15.333 -12.334 -23 -23.001 -23h-6c-5.33301 0 -11 2.66699 -17 8c-22.667 -24 -34 -50.667 -34 -80c7.33301 0 12.333 -7 15 -21
c0 -8.66699 -4.33301 -17 -13 -25h51c28 0 42 -14 42 -42v-122c0 -32.667 -14 -49 -42 -49c-32.667 0 -49 -12.667 -49 -38c2 0 3 -2.66699 3 -8c15.333 -45.333 38.333 -75 69 -89c12.667 -8 19 -28.333 19 -61c-4 -18 -11.667 -27 -23 -27h-6
c-13.333 0 -29.666 5 -48.999 15c-80 48 -120 116 -120 204c1.33301 20.667 2 38.334 2 53.001v124c0 26.667 11.333 40 34 40h40v4c-6 6 -9 11.667 -9 17v6c0 5.33301 3 11 9 17v568c3.33301 5.33301 6 8 8 8h7c5.33301 -3.33301 8 -6 8 -8zM57 1527
c3.33301 -20 12.334 -30 27.001 -30c15.333 0 24.666 10.667 27.999 32c-4.66699 15.333 -9 23 -13 23c0 -11.333 -2.66699 -17 -8 -17h-7c-5.33301 0 -8 7 -8 21c-12.667 -6 -19 -15.667 -19 -29zM409.001 2208v-507.001h2c4.66699 14.667 13 26 25 34c8 20 18 30 30 30h2
c14 0 22.333 -9.33301 25 -28c-4.66699 -15.333 -12.334 -23 -23.001 -23h-6c-5.33301 0 -11 2.66699 -17 8c-22.667 -24 -34 -50.667 -34 -80c7.33301 0 12.333 -7 15 -21c0 -8.66699 -4.33301 -17 -13 -25h51c28 0 42 -14 42 -42v-122c0 -32.667 -14 -49 -42 -49
c-32.667 0 -49 -12.667 -49 -38c2 0 3 -2.66699 3 -8c15.333 -45.333 38.333 -75 69 -89c12.667 -8 19 -28.333 19 -61c-4 -18 -11.667 -27 -23 -27h-6c-13.333 0 -29.666 5 -48.999 15c-80 48 -120 116 -120 204c1.33301 20.667 2 38.334 2 53.001v124
c0 26.667 11.333 40 34 40h40v4c-6 6 -9 11.667 -9 17v6c0 5.33301 3 11 9 17v568c3.33301 5.33301 6 8 8 8h7c5.33301 -3.33301 8 -6 8 -8zM367.001 1527c3.33301 -20 12.334 -30 27.001 -30c15.333 0 24.666 10.667 27.999 32c-4.66699 15.333 -9 23 -13 23
c0 -11.333 -2.66699 -17 -8 -17h-7c-5.33301 0 -8 7 -8 21c-12.667 -6 -19 -15.667 -19 -29z" />
    <glyph glyph-name="quotedblright" unicode="&#x201d;" horiz-adv-x="557" 
d="M107 2216l7 0.000976562c2 0 4.66699 -2.66699 8 -8v-568c6 -6 9 -11.667 9 -17v-6c0 -5.33301 -3 -11 -9 -17v-4h40c22.667 0 34 -13.333 34 -40v-124c0 -14.667 0.666992 -32.334 2 -53.001c0 -88 -40 -156 -120 -204c-19.333 -10 -35.666 -15 -48.999 -15h-6
c-11.333 0 -19 9 -23 27c0 32.667 6.33301 53 19 61c30.667 14 53.667 43.667 69 89c0 5.33301 1 8 3 8c0 25.333 -16.333 38 -49 38c-28 0 -42 16.333 -42 49v122c0 28 14 42 42 42h51c-8.66699 8 -13 16.333 -13 25c2.66699 14 7.66699 21 15 21
c0 29.333 -11.333 56 -34 80c-6 -5.33301 -11.667 -8 -17 -8h-6c-10.667 0 -18.334 7.66699 -23.001 23c2.66699 18.667 11 28 25 28h2c12 0 22 -10 30 -30c12 -8 20.333 -19.333 25 -34h2v507c0 2 2.66699 4.66699 8 8zM122 1556c0 -14 -2.66602 -21 -7.99902 -21h-7
c-5.33301 0 -8 5.66699 -8 17c-4 0 -8.33301 -7.66699 -13 -23c3.33301 -21.333 12.666 -32 27.999 -32c14.667 0 23.667 10 27 30c0 13.333 -6.33301 23 -19 29zM397.001 2216l7 0.000976562c2 0 4.66699 -2.66699 8 -8v-568c6 -6 9 -11.667 9 -17v-6
c0 -5.33301 -3 -11 -9 -17v-4h40c22.667 0 34 -13.333 34 -40v-124c0 -14.667 0.666992 -32.334 2 -53.001c0 -88 -40 -156 -120 -204c-19.333 -10 -35.666 -15 -48.999 -15h-6c-11.333 0 -19 9 -23 27c0 32.667 6.33301 53 19 61c30.667 14 53.667 43.667 69 89
c0 5.33301 1 8 3 8c0 25.333 -16.333 38 -49 38c-28 0 -42 16.333 -42 49v122c0 28 14 42 42 42h51c-8.66699 8 -13 16.333 -13 25c2.66699 14 7.66699 21 15 21c0 29.333 -11.333 56 -34 80c-6 -5.33301 -11.667 -8 -17 -8h-6c-10.667 0 -18.334 7.66699 -23.001 23
c2.66699 18.667 11 28 25 28h2c12 0 22 -10 30 -30c12 -8 20.333 -19.333 25 -34h2v507c0 2 2.66699 4.66699 8 8zM412.001 1556c0 -14 -2.66602 -21 -7.99902 -21h-7c-5.33301 0 -8 5.66699 -8 17c-4 0 -8.33301 -7.66699 -13 -23c3.33301 -21.333 12.666 -32 27.999 -32
c14.667 0 23.667 10 27 30c0 13.333 -6.33301 23 -19 29z" />
    <glyph glyph-name="quotedblbase" unicode="&#x201e;" horiz-adv-x="910" 
d="M238 281c29.333 0 58.832 -21.833 88.499 -65.5s44.5 -94.167 44.5 -151.5c0 -72.667 -23.667 -148.167 -71 -226.5s-93.666 -117.5 -138.999 -117.5v43c48.667 28.667 77.667 92 87 190c0 79.333 -43 133 -129 161v42zM590.999 281
c29.333 0 58.832 -21.833 88.499 -65.5s44.5 -94.167 44.5 -151.5c0 -72.667 -23.667 -148.167 -71 -226.5s-93.666 -117.5 -138.999 -117.5v43c48.667 28.667 77.667 92 87 190c0 79.333 -43 133 -129 161v42z" />
    <glyph glyph-name="dagger" unicode="&#x2020;" 
d="M486 1022c-5.33301 64.667 -23.332 123.999 -53.999 177.999c-38 67.333 -57 110.333 -57 129c0 32.667 12 58.834 36 78.501s56 29.5 96 29.5c38 0 69.5 -9.16699 94.5 -27.5s37.5 -42.166 37.5 -71.499c0 -21.333 -18.333 -67 -55 -137
c-30.667 -56.667 -49 -116.334 -55 -179.001c64 5.33301 123 23.333 177 54c67.333 38 110.333 57 129 57c32.667 0 59 -12 79 -36s30 -56 30 -96c0 -38 -9.16699 -69.5 -27.5 -94.5s-42.5 -37.5 -72.5 -37.5c-21.333 0 -66.666 18.333 -135.999 55
c-56.667 30.667 -116.334 49.667 -179.001 57c5.33301 -117.333 42 -209.666 110 -276.999c-70.667 -306.667 -108 -631.334 -112 -974.001h-38c-4 342.667 -42 667.334 -114 974.001c68 67.333 105 159.666 111 276.999c-64 -6.66699 -123.333 -25 -178 -55
c-67.333 -38 -110.333 -57 -129 -57c-32.667 0 -58.834 12 -78.501 36s-29.5 56 -29.5 96c0 38 9.16699 69.5 27.5 94.5s42.166 37.5 71.499 37.5c21.333 0 67 -18.667 137 -56c56.667 -30.667 116.334 -49 179.001 -55z" />
    <glyph glyph-name="daggerdbl" unicode="&#x2021;" 
d="M528 186c62.667 7.33301 122.334 26.3311 179.001 56.998c69.333 36.667 114.666 55 135.999 55c30 0 54.167 -12.5 72.5 -37.5s27.5 -56.5 27.5 -94.5c0 -40 -10 -72 -30 -96s-46.333 -36 -79 -36c-18.667 0 -61.667 19 -129 57c-54 30.667 -113 48.667 -177 54
c6 -62.667 24.333 -122.334 55 -179.001c36.667 -70 55 -115.667 55 -137c0 -29.333 -12.5 -53.166 -37.5 -71.499s-56.5 -27.5 -94.5 -27.5c-40 0 -72 9.83301 -96 29.5s-36 45.834 -36 78.501c0 18.667 19 61.667 57 129c30.667 54 48.667 113.333 54 178
c-62.667 -6 -122.334 -24.333 -179.001 -55c-70 -37.333 -115.667 -56 -137 -56c-29.333 0 -53.166 12.5 -71.499 37.5s-27.5 56.5 -27.5 94.5c0 40 9.83301 72 29.5 96s45.834 36 78.501 36c18.667 0 61.667 -19 129 -57c54.667 -30 114 -48.333 178 -55
c-6 150.667 -43 283.334 -111 398.001c68 114 105 246.333 111 397c-64 -6.66699 -123.333 -25 -178 -55c-67.333 -38 -110.333 -57 -129 -57c-32.667 0 -58.834 12 -78.501 36s-29.5 56 -29.5 96c0 38 9.16699 69.5 27.5 94.5s42.166 37.5 71.499 37.5
c21.333 0 67 -18.667 137 -56c56.667 -30.667 116.334 -49 179.001 -55c-5.33301 64.667 -23.333 124 -54 178c-38 67.333 -57 110.333 -57 129c0 32.667 12 58.834 36 78.501s56 29.5 96 29.5c38 0 69.5 -9.16699 94.5 -27.5s37.5 -42.166 37.5 -71.499
c0 -21.333 -18.333 -67 -55 -137c-30.667 -56.667 -49 -116.334 -55 -179.001c64 5.33301 123 23.333 177 54c67.333 38 110.333 57 129 57c32.667 0 59 -12 79 -36s30 -56 30 -96c0 -38 -9.16699 -69.5 -27.5 -94.5s-42.5 -37.5 -72.5 -37.5
c-21.333 0 -66.666 18.333 -135.999 55c-56.667 30.667 -116.334 49.667 -179.001 57c5.33301 -150.667 42 -283 110 -397c-68 -114.667 -104.667 -247.334 -110 -398.001z" />
    <glyph glyph-name="bullet" unicode="&#x2022;" horiz-adv-x="1024" 
d="M216 718c0 82 28.999 151.666 86.999 208.999s128 86 210 86c81.333 0 150.833 -28.833 208.5 -86.5s86.5 -127.167 86.5 -208.5s-29.167 -151.166 -87.5 -209.499s-128.166 -87.5 -209.499 -87.5c-82 0 -151.667 29 -209 87s-86 128 -86 210z" />
    <glyph glyph-name="ellipsis" unicode="&#x2026;" horiz-adv-x="2048" 
d="M145 167l82.001 84c10 9.33301 19.667 14 29 14c8.66699 0 19 -5.33301 31 -16l80 -86c8 -10.667 12 -20.334 12 -29.001c0 -10 -4.66699 -20.333 -14 -31l-80 -88c-13.333 -13.333 -23 -20 -29 -20c-10.667 0 -20.334 4.66699 -29.001 14l-88 101
c-6.66699 8.66699 -10 17.334 -10 26.001c0 10 5.33301 20.333 16 31zM828.001 167l82.001 84c10 9.33301 19.667 14 29 14c8.66699 0 19 -5.33301 31 -16l80 -86c8 -10.667 12 -20.334 12 -29.001c0 -10 -4.66699 -20.333 -14 -31l-80 -88c-13.333 -13.333 -23 -20 -29 -20
c-10.667 0 -20.334 4.66699 -29.001 14l-88 101c-6.66699 8.66699 -10 17.334 -10 26.001c0 10 5.33301 20.333 16 31zM1511 167l82.001 84c10 9.33301 19.667 14 29 14c8.66699 0 19 -5.33301 31 -16l80 -86c8 -10.667 12 -20.334 12 -29.001
c0 -10 -4.66699 -20.333 -14 -31l-80 -88c-13.333 -13.333 -23 -20 -29 -20c-10.667 0 -20.334 4.66699 -29.001 14l-88 101c-6.66699 8.66699 -10 17.334 -10 26.001c0 10 5.33301 20.333 16 31z" />
    <glyph glyph-name="guilsinglleft" unicode="&#x2039;" horiz-adv-x="631" 
d="M174 479l342 303h14v-37l-205 -266l205 -266v-37h-14z" />
    <glyph glyph-name="guilsinglright" unicode="&#x203a;" horiz-adv-x="631" 
d="M115 176h-14v37l205 266l-205 266v37h14l342 -303z" />
    <glyph glyph-name="fraction" unicode="&#x2044;" horiz-adv-x="342" 
d="M-342 -29l940 1461h84l-938 -1461h-86z" />
    <glyph glyph-name="fraction" unicode="&#x2215;" horiz-adv-x="342" 
d="M-342 -29l940 1461h84l-938 -1461h-86z" />
    <glyph glyph-name="franc" unicode="&#x20a3;" 
d="M247 357h-194.001v60h194v732c0 156.667 -34.333 235 -103 235h-96v50h915l103 -231h-49c-39.333 121.333 -102.666 182 -189.999 182l-316 -1c-68 0 -102 -78.333 -102 -235v-352h361c66.667 0 100 21 100 63v58h50v-342h-50v60c0 41.333 -33.333 62 -100 62h-361v-281
h194v-60h-194v-72c0 -156.667 34 -235 102 -235h97v-50h-560v50h96c68.667 0 103 78.333 103 235v72z" />
    <glyph glyph-name="lira" unicode="&#x20a4;" 
d="M748 1347c-48 20.667 -101.333 30.999 -160 30.999h-2c-66.667 0 -130 -33.667 -190 -101c-56 -62 -84 -142.333 -84 -241c0 -10 0.333008 -20 1 -30c0 -70.667 11 -141.667 33 -213h380v-60h-360c8 -20 16.667 -40 26 -60h352v-60h-321c23.333 -42 35 -88 35 -138
c0 -107.333 -54 -232.333 -162 -375h402c86.667 0 149.667 44 189 132l49 -1l-103 -231h-719l1 50c124.667 158.667 187 298 187 418c0 51.333 -11.333 99 -34 143l-2 2h-172v60h143l-26 60h-135v60h113c-24 71.333 -36 135.666 -36 192.999
c0 150.667 41.167 266.334 123.5 347.001s185.833 121 310.5 121c50 0 111.833 -4.66699 185.5 -14s110.5 -20.666 110.5 -33.999v-161h-58c-3.33301 40.667 -29 74.667 -77 102z" />
    <glyph glyph-name="peseta" unicode="&#x20a7;" horiz-adv-x="2028" 
d="M409 1384v-661.999c2 -6 4.33301 -11.667 7 -17c27.333 -68 63.333 -119 108 -153c38 -29.333 76.667 -44 116 -44c6.66699 0 13 0.333008 19 1c45.333 5.33301 87.666 30.333 126.999 75s68.333 103.667 87 177c14.667 58 22 117.667 22 179
c0 16 -0.333008 31.667 -1 47c-4.66699 77.333 -21.167 150.166 -49.5 218.499s-64.5 116.5 -108.5 144.5c-37.333 23.333 -74.666 35 -111.999 35c-6.66699 0 -13.667 -0.333008 -21 -1h-194zM1496 908.001h-178.999v-685c0 -54 11.333 -93.667 34 -119
c18.667 -20.667 45.667 -33 81 -37l-71 192l49 1c36.667 -86.667 74.667 -144.667 114 -174c38 -29.333 80.333 -44 127 -44h7c61.333 0 111.666 17.333 150.999 52c39.333 35.333 59 80.666 59 135.999c0 68 -86.333 143.333 -259 226c-67.333 34.667 -115.333 72 -144 112
s-43 88.333 -43 145c0 80.667 24.333 145.334 73 194.001zM1039 910.001c-4.66699 -67.333 -20.6621 -131.999 -47.9951 -193.999c-33.333 -76 -80.333 -135.167 -141 -177.5s-124 -63.5 -190 -63.5c-66.667 0 -130.334 21.333 -191.001 64c-22 14.667 -42 31.667 -60 51
v-305c0 -156.667 34 -235 102 -235h97v-50h-560v50h96c68.667 0 103 78.333 103 235v864c0 156.667 -34.333 235 -103 235h-96v50h618c61.333 -1.33301 121.666 -22 180.999 -62c60.667 -41.333 108.334 -100.333 143.001 -177c33.333 -75.333 50.333 -154.333 51 -237h10
c144 0 216 118.333 216 355h50v-355h259c28 12.667 64.667 19.334 110 20.001h2c36 0 80.5 -4.5 133.5 -13.5s79.5 -20.167 79.5 -33.5v-159h-42c-2.66699 44 -24.5 80 -65.5 108s-85.5 42 -133.5 42c-42.667 0 -76.834 -12.167 -102.501 -36.5s-38.5 -56.5 -38.5 -96.5
c0 -72 78.333 -145.333 235 -220c81.333 -36.667 137.166 -75.834 167.499 -117.501s45.5 -92.834 45.5 -153.501c0 -93.333 -27.667 -170.333 -83 -231c-68 -56 -144 -84.667 -228 -86c-38.667 0 -73.667 3.66699 -105 11c-18.667 4 -37.334 6 -56.001 6
c-12 0 -24 -1 -36 -3c-18.667 -3.33301 -38.334 -5 -59.001 -5c-82.667 0 -140.5 19 -173.5 57s-52.167 96.667 -57.5 176h-1v687h-129z" />
    <glyph glyph-name="Euro" unicode="&#x20ac;" 
d="M140 372c-41.333 90 -66.6641 183.667 -75.9971 281h-108l17 60h87v29c0 10.667 0.333008 21 1 31h-71l17 60h58c9.33301 96.667 34.666 190.334 75.999 281.001c54 118.667 129.333 210 226 274s196 96 298 96c28.667 0 57.667 -2.66699 87 -8
c26.667 -6.66699 54 -16.334 82 -29.001c5.33301 -4 10.666 -6 15.999 -6c13.333 0 24.666 15 33.999 45h41l84 -281l-40 -1c-32.667 89.333 -78.667 148.666 -138 177.999c-28.667 14.667 -55.667 25.334 -81 32.001v3c-33.333 10.667 -67 16 -101 16
c-11.333 0 -22.666 -0.666992 -33.999 -2c-80 -8 -155.333 -45.833 -226 -113.5s-123 -158.834 -157 -273.501c-21.333 -69.333 -34.333 -139.666 -39 -210.999h706l-17 -60h-692c0 -20 0.666992 -40 2 -60h674l-17 -60h-652c11.333 -105.333 39 -204.666 83 -297.999
c49.333 -104.667 113.666 -183.334 192.999 -236.001c68 -45.333 140 -68.333 216 -69c124 2 209.333 32.333 256 91c49.333 60.667 74 122.334 74 185.001h48v-143c0 -46.667 -37 -89 -111 -127c-70 -36 -159 -54.667 -267 -56c-120.667 0 -229.167 32.667 -325.5 98
s-170.833 156.666 -223.5 273.999z" />
    <glyph glyph-name="afii61352" unicode="&#x2116;" horiz-adv-x="2271" 
 />
    <glyph glyph-name="trademark" unicode="&#x2122;" horiz-adv-x="1497" 
 />
    <glyph glyph-name="partialdiff" unicode="&#x2202;" 
d="M232 537c0 -27.333 1.66504 -53.668 4.99805 -79.001c9.33301 -81.333 29.833 -158 61.5 -230s71.167 -127 118.5 -165c42.667 -35.333 85.334 -53 128.001 -53c4 0 8.33301 0.333008 13 1c46.667 3.33301 89.167 26.833 127.5 70.5s65.166 103.5 80.499 179.5
c10.667 48.667 16 98.334 16 149.001c0 28 -1.66699 56.333 -5 85c-9.33301 81.333 -30.166 158.5 -62.499 231.5s-72.166 128.167 -119.499 165.5c-43.333 33.333 -86 50 -128 50h-11c-45.333 -3.33301 -87.333 -26.5 -126 -69.5s-66 -102.5 -82 -178.5
c-10.667 -56 -16 -108.333 -16 -157zM936.998 476.998c0 -88 -18.835 -171.669 -56.502 -251.002s-90.667 -141 -159 -185s-139.833 -66 -214.5 -66s-146.167 22 -214.5 66s-121.333 105.667 -159 185s-56.5 163 -56.5 251c0 87.333 19.333 171 58 251
s92.334 141.667 161.001 185s139 65 211 65c72.667 0 143.334 -21.667 212.001 -65c19.333 -12 37.333 -25.667 54 -41c-56 156.667 -133.833 282.334 -233.5 377.001s-208.5 146.334 -326.5 155.001v55c204 0 375.667 -95 515 -285s209 -422.333 209 -697z" />
    <glyph glyph-name="Delta" unicode="&#x2206;" horiz-adv-x="1081" 
d="M514 1195l-406 -1072h801zM547 1434l526 -1434h-1067z" />
    <glyph glyph-name="product" unicode="&#x220f;" horiz-adv-x="1515" 
d="M511 1384c-68 0 -102 -78.333 -102 -235v-1281c0 -156.667 34 -235 102 -235h97v-51h-560v51h96c68.667 0 103 78.333 103 235v1281c0 156.667 -34.333 235 -103 235h-96v50h1419v-50h-97c-68 0 -102 -78.333 -102 -235v-1281c0 -156.667 34 -235 102 -235h97v-50h-560
v50h96c68.667 0 103 78.333 103 235v1281c0 156.667 -34.333 235 -103 235h-492z" />
    <glyph glyph-name="summation" unicode="&#x2211;" horiz-adv-x="1206" 
d="M1059 548l-788 -914h635c86.667 0 149.667 60.667 189 182h49l-103 -232h-921v50c41.333 0 76.666 17.667 105.999 53l663 781l-663 859c-29.333 38 -64.666 57 -105.999 57v50h921l103 -232h-49c-39.333 121.333 -102.333 182 -189 182h-485z" />
    <glyph glyph-name="minus" unicode="&#x2212;" 
d="M87 647v140h839l1 -1v-139h-840z" />
    <glyph glyph-name="radical" unicode="&#x221a;" 
d="M181 0l-164 359l74 35l85 -185l728 1470h150v-60h-72z" />
    <glyph glyph-name="infinity" unicode="&#x221e;" 
d="M439 755c-10 68.667 -34.666 113 -73.999 133c-30.667 14.667 -58.667 22 -84 22c-8 0 -15.667 -0.666992 -23 -2c-32.667 -6.66699 -63.5 -21.5 -92.5 -44.5s-50.833 -51.167 -65.5 -84.5c-13.333 -30.667 -20 -60.667 -20 -90v-8c1.33301 -32 10.5 -61.667 27.5 -89
s40.833 -46.666 71.5 -57.999c19.333 -7.33301 39.666 -11 60.999 -11c10.667 0 21.667 1 33 3c31.333 6.66699 61.5 21.167 90.5 43.5s54.167 84.166 75.5 185.499zM466.001 687c8 -64 39.333 -115 94 -153c46 -32 87 -48 123 -48c7.33301 0 14.333 0.666992 21 2
c41.333 8 80.5 25.333 117.5 52s65.167 60.334 84.5 101.001c17.333 36 26 72 26 108v11c-1.33301 40 -13.166 76.167 -35.499 108.5s-52.833 55.166 -91.5 68.499c-24.667 8.66699 -50 13 -76 13c-14.667 0 -29.334 -1.33301 -44.001 -4c-44.667 -6 -87 -26.667 -127 -62
s-70.667 -101 -92 -197zM450.001 827c6 23.333 13 46.335 21 69.002c22.667 58.667 54.334 104.334 95.001 137.001s83.334 49 128.001 49s87.334 -16 128.001 -48s72.334 -77 95.001 -135s34 -118.667 34 -182s-11.333 -124 -34 -182s-54.334 -103 -95.001 -135
s-83.334 -48 -128.001 -48s-87.334 16.333 -128.001 49s-72.334 78 -95.001 136c-8 23.333 -15 46.666 -21 69.999c-3.33301 -14 -7.33301 -27.667 -12 -41c-18 -48.667 -42.667 -86.334 -74 -113.001s-64.333 -40 -99 -40s-68 13.667 -100 41s-56.5 65.166 -73.5 113.499
s-25.5 98.166 -25.5 149.499c0 50.667 8.5 100.334 25.5 149.001s41.5 86.667 73.5 114s65.333 41 100 41s67.667 -13.333 99 -40s56 -64 74 -112c4.66699 -14 8.66699 -28 12 -42z" />
    <glyph glyph-name="integral" unicode="&#x222b;" horiz-adv-x="665" 
d="M-12 -281c-40 0 -59.9971 9.66699 -59.9971 29v159h36c0.666992 -28.667 12.167 -50.167 34.5 -64.5s43.5 -21.5 63.5 -21.5h1c54.667 0 93 54 115 162c21.333 108 34.666 213.333 39.999 316l70 734l8 62c18 158.667 63 301.834 135 429.501s150 191.5 234 191.5
c40 0 60 -9.66699 60 -29v-159h-36c-0.666992 28.667 -12.334 50.167 -35.001 64.5s-43.667 21.5 -63 21.5c-47.333 0 -86 -51.833 -116 -155.5s-46.333 -224.834 -49 -363.501l-73 -767c-13.333 -154 -56.833 -294 -130.5 -420s-151.834 -189 -234.501 -189z" />
    <glyph glyph-name="approxequal" unicode="&#x2248;" 
d="M923 1053l-0.00195312 -156c-42 -48 -82.667 -80.5 -122 -97.5s-78 -25.5 -116 -25.5c-40 0 -99.167 16.167 -177.5 48.5s-137.166 48.5 -176.499 48.5c-34 0 -69.833 -9.33301 -107.5 -28s-80.834 -56 -129.501 -112v156c42.667 48.667 83.667 81.667 123 99
s77.333 26 114 26c42.667 0 103.167 -16.5 181.5 -49.5s135.833 -49.5 172.5 -49.5c34.667 0 70.834 9.33301 108.501 28s80.834 56 129.501 112zM922.998 705l-0.00195312 -156c-42 -48 -82.667 -80.5 -122 -97.5s-78 -25.5 -116 -25.5c-40 0 -99.167 16.167 -177.5 48.5
s-137.166 48.5 -176.499 48.5c-34 0 -69.833 -9.33301 -107.5 -28s-80.834 -56 -129.501 -112v156c42.667 48.667 83.667 81.667 123 99s77.333 26 114 26c42.667 0 103.167 -16.5 181.5 -49.5s135.833 -49.5 172.5 -49.5c34.667 0 70.834 9.33301 108.501 28
s80.834 56 129.501 112z" />
    <glyph glyph-name="lessequal" unicode="&#x2264;" 
d="M927 1074l-625 -359l625 -355v-167l-840 481v83l840 484v-167zM87 1v140h839l1 -1v-139h-840z" />
    <glyph glyph-name="greaterequal" unicode="&#x2265;" 
d="M87 1241l840 -484v-83l-840 -481v167l625 355l-625 359v167zM87 2v140h839l1 -1v-139h-840z" />
    <glyph glyph-name="uniF001" unicode="&#xf001;" horiz-adv-x="1073" 
 />
    <glyph glyph-name="uniF001" unicode="&#xfb01;" horiz-adv-x="1073" 
 />
    <glyph glyph-name="uniF002" unicode="&#xf002;" horiz-adv-x="1081" 
 />
    <glyph glyph-name="uniF002" unicode="&#xfb02;" horiz-adv-x="1081" 
 />
    <glyph glyph-name=".null" horiz-adv-x="0" 
 />
    <glyph glyph-name="nonmarkingreturn" horiz-adv-x="508" 
 />
  </font>
</defs>
</svg>
